SplineFontDB: 3.0
FontName: JotiOne-Regular
FullName: Joti One
FamilyName: Joti One
Weight: Book
Copyright: Copyright (c) 2012, Eduardo Tunni (http://www.tipo.net.ar), with Reserved Font Name 'Joti'
Version: 1.001
ItalicAngle: 0
UnderlinePosition: -50
UnderlineWidth: 50
Ascent: 800
Descent: 200
sfntRevision: 0x00010042
LayerCount: 2
Layer: 0 1 "Back"  1
Layer: 1 1 "Fore"  0
XUID: [1021 907 407760134 1113144]
FSType: 0
OS2Version: 3
OS2_WeightWidthSlopeOnly: 0
OS2_UseTypoMetrics: 1
CreationTime: 1334084820
ModificationTime: 1351749399
PfmFamily: 17
TTFWeight: 400
TTFWidth: 5
LineGap: 0
VLineGap: 0
Panose: 2 0 0 0 0 0 0 0 0 0
OS2TypoAscent: 1003
OS2TypoAOffset: 0
OS2TypoDescent: -331
OS2TypoDOffset: 0
OS2TypoLinegap: 0
OS2WinAscent: 1003
OS2WinAOffset: 0
OS2WinDescent: 331
OS2WinDOffset: 0
HheadAscent: 1003
HheadAOffset: 0
HheadDescent: -331
HheadDOffset: 0
OS2SubXSize: 650
OS2SubYSize: 600
OS2SubXOff: 0
OS2SubYOff: 75
OS2SupXSize: 650
OS2SupYSize: 600
OS2SupXOff: 0
OS2SupYOff: 350
OS2StrikeYSize: 50
OS2StrikeYPos: 300
OS2Vendor: 'TIPO'
OS2CodePages: 20000093.00000000
OS2UnicodeRanges: a00000af.5000204b.00000000.00000000
Lookup: 4 0 1 "'liga' Standard Ligatures in Latin lookup 0"  {"'liga' Standard Ligatures in Latin lookup 0 subtable"  } ['liga' ('latn' <'MOL ' 'ROM ' 'dflt' > ) ]
Lookup: 1 0 0 "'locl' Localized Forms in Latin lookup 1"  {"'locl' Localized Forms in Latin lookup 1 subtable"  } ['locl' ('latn' <'MOL ' 'ROM ' > ) ]
Lookup: 258 0 0 "'kern' Horizontal Kerning in Latin lookup 0"  {"'kern' Horizontal Kerning in Latin lookup 0 per glyph data 0"  "'kern' Horizontal Kerning in Latin lookup 0 kerning class 1"  } ['kern' ('latn' <'MOL ' 'ROM ' 'dflt' > ) ]
DEI: 91125
KernClass2: 3+ 7 "'kern' Horizontal Kerning in Latin lookup 0 kerning class 1" 
 21 T uni0162 Tcaron Tbar
 77 V W Y Yacute Wcircumflex Ycircumflex Ydieresis Wgrave Wacute Wdieresis Ygrave
 84 A Agrave Aacute Acircumflex Atilde Adieresis Aring Amacron Abreve Aogonek Aringacute

StartChar: exclam
Encoding: 33 33 4
Width: 383
GlyphClass: 2
Flags: W
LayerCount: 2
Fore
SplineSet
100 78 m 128,-1,1
 100 116 100 116 127.5 143.5 c 128,-1,2
 155 171 155 171 193 171 c 128,-1,3
 231 171 231 171 258.5 143.5 c 128,-1,4
 286 116 286 116 286 78 c 128,-1,5
 286 40 286 40 258.5 12.5 c 128,-1,6
 231 -15 231 -15 193 -15 c 128,-1,7
 155 -15 155 -15 127.5 12.5 c 128,-1,0
 100 40 100 40 100 78 c 128,-1,1
296 683 m 1,8,-1
 323 643 l 1,9,-1
 235 235 l 1,10,-1
 146 226 l 1,11,-1
 115 651 l 1,12,-1
 296 683 l 1,8,-1
EndSplineSet
EndChar

StartChar: quotedbl
Encoding: 34 34 5
Width: 452
GlyphClass: 2
Flags: W
LayerCount: 2
Fore
SplineSet
78 459 m 1,0,-1
 40 726 l 1,1,-1
 182 738 l 1,2,-1
 154 462 l 1,3,-1
 78 459 l 1,0,-1
308 459 m 1,4,-1
 270 726 l 1,5,-1
 412 738 l 1,6,-1
 384 462 l 1,7,-1
 308 459 l 1,4,-1
EndSplineSet
EndChar

StartChar: numbersign
Encoding: 35 35 6
Width: 794
GlyphClass: 2
Flags: W
LayerCount: 2
Fore
SplineSet
391 -68 m 1,0,-1
 445 129 l 1,1,-1
 234 129 l 1,2,-1
 161 -91 l 1,3,-1
 91 -68 l 1,4,-1
 145 129 l 1,5,-1
 50 129 l 1,6,-1
 64 212 l 1,7,-1
 170 216 l 1,8,-1
 219 395 l 1,9,-1
 80 389 l 1,10,-1
 94 499 l 1,11,-1
 248 499 l 1,12,-1
 315 739 l 1,13,-1
 427 708 l 1,14,-1
 357 499 l 1,15,-1
 548 499 l 1,16,-1
 615 739 l 1,17,-1
 727 708 l 1,18,-1
 657 499 l 1,19,-1
 744 499 l 1,20,-1
 729 416 l 1,21,-1
 628 412 l 1,22,-1
 568 233 l 1,23,-1
 714 239 l 1,24,-1
 699 129 l 1,25,-1
 534 129 l 1,26,-1
 461 -91 l 1,27,-1
 391 -68 l 1,0,-1
324 399 m 1,28,-1
 264 220 l 1,29,-1
 473 229 l 1,30,-1
 523 407 l 1,31,-1
 324 399 l 1,28,-1
EndSplineSet
EndChar

StartChar: dollar
Encoding: 36 36 7
Width: 574
GlyphClass: 2
Flags: W
LayerCount: 2
Fore
SplineSet
144 384 m 0,0,1
 144 486 144 486 244 581 c 1,2,-1
 230 749 l 1,3,-1
 330 749 l 1,4,-1
 321 645 l 1,5,6
 347 664 347 664 401 700 c 1,7,-1
 522 538 l 1,8,9
 444 511 444 511 396.5 469 c 128,-1,10
 349 427 349 427 349 381 c 0,11,12
 349 349 349 349 372.5 278.5 c 128,-1,13
 396 208 396 208 396 178 c 0,14,15
 396 95 396 95 317 38 c 1,16,-1
 330 -112 l 1,17,-1
 230 -112 l 1,18,-1
 239 -4 l 1,19,20
 187 -26 187 -26 102 -45 c 1,21,-1
 81 20 l 1,22,23
 220 59 220 59 220 159 c 0,24,25
 220 184 220 184 201 220 c 128,-1,26
 182 256 182 256 163 298.5 c 128,-1,27
 144 341 144 341 144 384 c 0,0,1
EndSplineSet
EndChar

StartChar: percent
Encoding: 37 37 8
Width: 795
GlyphClass: 2
Flags: W
LayerCount: 2
Fore
SplineSet
246 -68 m 1,0,-1
 470 739 l 1,1,-1
 562 718 l 1,2,-1
 296 -81 l 1,3,-1
 246 -68 l 1,0,-1
181 266 m 0,4,5
 119 266 119 266 63 306 c 1,6,7
 30 389 30 389 30 466 c 0,8,9
 30 601 30 601 94 670 c 1,10,11
 139 684 139 684 174 684 c 0,12,13
 237 684 237 684 291 644 c 1,14,15
 326 560 326 560 326 484 c 0,16,17
 326 350 326 350 264 283 c 1,18,19
 218 266 218 266 181 266 c 0,4,5
112 372 m 0,20,21
 112 346 112 346 116 326 c 1,22,23
 132 322 132 322 153 322 c 1,24,25
 196 371 196 371 219.5 440.5 c 128,-1,26
 243 510 243 510 243 578 c 0,27,28
 243 605 243 605 239 625 c 1,29,30
 221 628 221 628 204 628 c 1,31,32
 161 578 161 578 136.5 508 c 128,-1,33
 112 438 112 438 112 372 c 0,20,21
619 -14 m 0,34,35
 557 -14 557 -14 501 26 c 1,36,37
 468 109 468 109 468 186 c 0,38,39
 468 321 468 321 532 390 c 1,40,41
 577 404 577 404 612 404 c 0,42,43
 675 404 675 404 729 364 c 1,44,45
 764 280 764 280 764 204 c 0,46,47
 764 70 764 70 702 3 c 1,48,49
 656 -14 656 -14 619 -14 c 0,34,35
550 92 m 0,50,51
 550 66 550 66 554 46 c 1,52,53
 570 42 570 42 591 42 c 1,54,55
 634 91 634 91 657.5 160.5 c 128,-1,56
 681 230 681 230 681 298 c 0,57,58
 681 325 681 325 677 345 c 1,59,60
 659 348 659 348 642 348 c 1,61,62
 599 298 599 298 574.5 228 c 128,-1,63
 550 158 550 158 550 92 c 0,50,51
EndSplineSet
EndChar

StartChar: ampersand
Encoding: 38 38 9
Width: 615
GlyphClass: 2
Flags: W
LayerCount: 2
Fore
SplineSet
364 -13 m 1,0,-1
 330 -14 l 1,1,2
 253 -14 253 -14 187.5 4 c 128,-1,3
 122 22 122 22 87 51 c 1,4,5
 70 131 70 131 70 217 c 0,6,7
 70 364 70 364 121 493.5 c 128,-1,8
 172 623 172 623 278 700 c 1,9,-1
 471 578 l 1,10,11
 323 483 323 483 242 338 c 1,12,-1
 645 354 l 1,13,-1
 642 287 l 1,14,-1
 536 275 l 1,15,16
 512 131 512 131 451 -209 c 1,17,-1
 385 -218 l 1,18,-1
 364 -13 l 1,0,-1
171 80 m 1,19,20
 226 69 226 69 272.5 69 c 128,-1,21
 319 69 319 69 355 75 c 1,22,-1
 336 252 l 1,23,-1
 197 236 l 1,24,25
 171 156 171 156 171 80 c 1,19,20
EndSplineSet
EndChar

StartChar: quotesingle
Encoding: 39 39 10
Width: 222
GlyphClass: 2
Flags: W
LayerCount: 2
Fore
SplineSet
78 459 m 1,0,-1
 40 726 l 1,1,-1
 182 738 l 1,2,-1
 154 462 l 1,3,-1
 78 459 l 1,0,-1
EndSplineSet
EndChar

StartChar: parenleft
Encoding: 40 40 11
Width: 400
GlyphClass: 2
Flags: W
LayerCount: 2
Fore
SplineSet
80 346 m 0,0,1
 80 551 80 551 203 738 c 1,2,-1
 370 707 l 1,3,4
 185 498 185 498 185 275 c 0,5,6
 185 105 185 105 290 -80 c 1,7,-1
 230 -98 l 1,8,9
 80 116 80 116 80 346 c 0,0,1
EndSplineSet
EndChar

StartChar: parenright
Encoding: 41 41 12
Width: 400
GlyphClass: 2
Flags: W
LayerCount: 2
Fore
SplineSet
215 275 m 0,0,1
 215 498 215 498 30 707 c 1,2,-1
 197 738 l 1,3,4
 320 551 320 551 320 346 c 0,5,6
 320 115 320 115 169 -98 c 1,7,-1
 110 -80 l 1,8,9
 215 105 215 105 215 275 c 0,0,1
EndSplineSet
EndChar

StartChar: asterisk
Encoding: 42 42 13
Width: 571
GlyphClass: 2
Flags: W
LayerCount: 2
Fore
SplineSet
341 697 m 1,0,-1
 320 543 l 1,1,-1
 433 639 l 1,2,-1
 501 540 l 1,3,-1
 357 481 l 1,4,-1
 497 432 l 1,5,-1
 445 323 l 1,6,-1
 323 417 l 1,7,-1
 350 273 l 1,8,-1
 230 263 l 1,9,-1
 250 416 l 1,10,-1
 138 321 l 1,11,-1
 70 420 l 1,12,-1
 213 478 l 1,13,-1
 74 528 l 1,14,-1
 126 637 l 1,15,-1
 247 541 l 1,16,-1
 221 687 l 1,17,-1
 341 697 l 1,0,-1
EndSplineSet
EndChar

StartChar: plus
Encoding: 43 43 14
Width: 612
GlyphClass: 2
Flags: W
LayerCount: 2
Fore
SplineSet
361 369 m 1,0,-1
 522 369 l 1,1,-1
 512 286 l 1,2,-1
 361 276 l 1,3,-1
 361 98 l 1,4,-1
 278 108 l 1,5,-1
 267 270 l 1,6,-1
 90 259 l 1,7,-1
 100 369 l 1,8,-1
 261 369 l 1,9,-1
 251 530 l 1,10,-1
 361 520 l 1,11,-1
 361 369 l 1,0,-1
EndSplineSet
EndChar

StartChar: comma
Encoding: 44 44 15
Width: 286
GlyphClass: 2
Flags: W
LayerCount: 2
Fore
SplineSet
140 -4 m 1,0,1
 126 -15 126 -15 103 -15 c 128,-1,2
 80 -15 80 -15 65 10 c 128,-1,3
 50 35 50 35 50 80.5 c 128,-1,4
 50 126 50 126 69 148.5 c 128,-1,5
 88 171 88 171 142.5 171 c 128,-1,6
 197 171 197 171 229 139 c 1,7,8
 236 103 236 103 236 55 c 0,9,10
 236 -103 236 -103 148 -183 c 1,11,-1
 73 -123 l 1,12,13
 131 -75 131 -75 144 -6 c 1,14,-1
 140 -4 l 1,0,1
EndSplineSet
EndChar

StartChar: hyphen
Encoding: 45 45 16
Width: 445
GlyphClass: 2
Flags: W
LayerCount: 2
Fore
SplineSet
375 367 m 1,0,-1
 375 274 l 1,1,-1
 70 227 l 1,2,-1
 75 367 l 1,3,-1
 375 367 l 1,0,-1
EndSplineSet
EndChar

StartChar: period
Encoding: 46 46 17
Width: 286
GlyphClass: 2
Flags: W
LayerCount: 2
Fore
SplineSet
50 78 m 128,-1,1
 50 117 50 117 72.5 141.5 c 128,-1,2
 95 166 95 166 143 166 c 128,-1,3
 191 166 191 166 213.5 141.5 c 128,-1,4
 236 117 236 117 236 78 c 128,-1,5
 236 39 236 39 213.5 14.5 c 128,-1,6
 191 -10 191 -10 143 -10 c 128,-1,7
 95 -10 95 -10 72.5 14.5 c 128,-1,0
 50 39 50 39 50 78 c 128,-1,1
EndSplineSet
EndChar

StartChar: slash
Encoding: 47 47 18
Width: 496
GlyphClass: 2
Flags: W
LayerCount: 2
Fore
SplineSet
80 -68 m 1,0,-1
 304 739 l 1,1,-1
 416 708 l 1,2,-1
 150 -91 l 1,3,-1
 80 -68 l 1,0,-1
EndSplineSet
EndChar

StartChar: zero
Encoding: 48 48 19
Width: 644
GlyphClass: 2
Flags: W
LayerCount: 2
Fore
SplineSet
328 -23 m 0,0,1
 207 -23 207 -23 139 39 c 1,2,3
 81 180 81 180 81 326 c 0,4,5
 81 433 81 433 111.5 515 c 128,-1,6
 142 597 142 597 184 641 c 1,7,8
 260 665 260 665 317 665 c 0,9,10
 438 665 438 665 506 603 c 1,11,12
 564 462 564 462 564 316 c 0,13,14
 564 209 564 209 533.5 127 c 128,-1,15
 503 45 503 45 461 1 c 1,16,17
 385 -23 385 -23 328 -23 c 0,0,1
436 484 m 0,18,19
 436 531 436 531 429 566 c 1,20,21
 400 573 400 573 359 573 c 1,22,23
 288 494 288 494 248.5 380.5 c 128,-1,24
 209 267 209 267 209 158 c 0,25,26
 209 111 209 111 216 76 c 1,27,28
 245 69 245 69 286 69 c 1,29,30
 357 148 357 148 396.5 261.5 c 128,-1,31
 436 375 436 375 436 484 c 0,18,19
EndSplineSet
EndChar

StartChar: one
Encoding: 49 49 20
Width: 473
GlyphClass: 2
Flags: W
LayerCount: 2
Fore
SplineSet
347 667 m 1,0,-1
 383 650 l 1,1,-1
 314 -4 l 1,2,-1
 204 -14 l 1,3,-1
 167 466 l 1,4,-1
 52 384 l 1,5,-1
 0 492 l 1,6,-1
 347 667 l 1,0,-1
EndSplineSet
EndChar

StartChar: two
Encoding: 50 50 21
Width: 579
GlyphClass: 2
Flags: W
LayerCount: 2
Fore
SplineSet
275 665 m 0,0,1
 403 665 403 665 480 617 c 1,2,3
 492 578 492 578 492 537 c 0,4,5
 492 420 492 420 403.5 295 c 128,-1,6
 315 170 315 170 185 91 c 1,7,-1
 185 82 l 1,8,-1
 499 113 l 1,9,-1
 499 0 l 1,10,-1
 40 0 l 1,11,-1
 33 67 l 1,12,13
 141 118 141 118 218 246 c 128,-1,14
 295 374 295 374 295 483 c 0,15,16
 295 568 295 568 242 600 c 1,17,-1
 90 497 l 1,18,-1
 38 605 l 1,19,20
 92 635 92 635 143.5 650 c 128,-1,21
 195 665 195 665 275 665 c 0,0,1
EndSplineSet
EndChar

StartChar: three
Encoding: 51 51 22
Width: 574
GlyphClass: 2
Flags: W
LayerCount: 2
Fore
SplineSet
303 489 m 0,0,1
 303 563 303 563 242 600 c 1,2,-1
 100 497 l 1,3,-1
 48 605 l 1,4,5
 104 637 104 637 150 651 c 128,-1,6
 196 665 196 665 275 665 c 0,7,8
 403 665 403 665 480 617 c 1,9,10
 489 590 489 590 489 565 c 0,11,12
 489 468 489 468 390 375 c 1,13,14
 425 375 425 375 453 367 c 1,15,16
 493 328 493 328 513.5 281.5 c 128,-1,17
 534 235 534 235 534 164 c 0,18,19
 534 69 534 69 476.5 22.5 c 128,-1,20
 419 -24 419 -24 290 -24 c 128,-1,21
 161 -24 161 -24 47 38 c 1,22,-1
 95 128 l 1,23,24
 205 57 205 57 345 52 c 1,25,26
 360 108 360 108 360 193 c 128,-1,27
 360 278 360 278 345 304 c 1,28,29
 283 288 283 288 227 254 c 1,30,-1
 201 287 l 1,31,-1
 215 300 l 2,32,33
 259 342 259 342 281 394 c 128,-1,34
 303 446 303 446 303 489 c 0,0,1
EndSplineSet
EndChar

StartChar: four
Encoding: 52 52 23
Width: 576
GlyphClass: 2
Flags: W
LayerCount: 2
Fore
SplineSet
175 187 m 1,0,1
 221 181 221 181 272.5 181 c 128,-1,2
 324 181 324 181 372 188 c 1,3,-1
 362 340 l 1,4,-1
 536 352 l 1,5,-1
 498 -4 l 1,6,-1
 387 -15 l 1,7,-1
 379 92 l 1,8,9
 364 91 364 91 310.5 91 c 128,-1,10
 257 91 257 91 191 108 c 128,-1,11
 125 125 125 125 91 152 c 1,12,13
 74 224 74 224 74 291 c 0,14,15
 74 422 74 422 136 530.5 c 128,-1,16
 198 639 198 639 280 680 c 1,17,-1
 463 558 l 1,18,19
 343 498 343 498 259 394 c 128,-1,20
 175 290 175 290 175 187 c 1,0,1
EndSplineSet
EndChar

StartChar: five
Encoding: 53 53 24
Width: 574
GlyphClass: 2
Flags: W
LayerCount: 2
Fore
SplineSet
395 375 m 0,0,1
 428 375 428 375 453 367 c 1,2,3
 493 328 493 328 513.5 281.5 c 128,-1,4
 534 235 534 235 534 164 c 0,5,6
 534 69 534 69 476.5 22.5 c 128,-1,7
 419 -24 419 -24 290 -24 c 128,-1,8
 161 -24 161 -24 47 38 c 1,9,-1
 95 128 l 1,10,11
 205 57 205 57 345 52 c 1,12,13
 360 108 360 108 360 193 c 128,-1,14
 360 278 360 278 345 304 c 1,15,16
 260 293 260 293 197 254 c 1,17,-1
 117 264 l 1,18,-1
 55 618 l 1,19,-1
 70 640 l 1,20,-1
 490 656 l 1,21,-1
 472 538 l 1,22,-1
 265 556 l 1,23,-1
 211 318 l 1,24,25
 301 375 301 375 395 375 c 0,0,1
EndSplineSet
EndChar

StartChar: six
Encoding: 54 54 25
Width: 574
GlyphClass: 2
Flags: W
LayerCount: 2
Fore
SplineSet
199 66 m 1,0,1
 242 45 242 45 273.5 45 c 128,-1,2
 305 45 305 45 335 52 c 1,3,4
 350 108 350 108 350 193 c 128,-1,5
 350 278 350 278 335 304 c 1,6,7
 233 269 233 269 199 66 c 1,0,1
383 377 m 0,8,9
 414 377 414 377 443 367 c 1,10,11
 483 328 483 328 503.5 281.5 c 128,-1,12
 524 235 524 235 524 164 c 0,13,14
 524 67 524 67 475.5 21.5 c 128,-1,15
 427 -24 427 -24 303 -24 c 0,16,17
 235 -24 235 -24 174.5 -6 c 128,-1,18
 114 12 114 12 79 41 c 1,19,20
 62 125 62 125 62 207 c 0,21,22
 62 371 62 371 128 497 c 128,-1,23
 194 623 194 623 280 680 c 1,24,-1
 463 558 l 1,25,26
 252 423 252 423 189 235 c 1,27,-1
 201 228 l 1,28,29
 231 301 231 301 278.5 339 c 128,-1,30
 326 377 326 377 383 377 c 0,8,9
EndSplineSet
EndChar

StartChar: seven
Encoding: 55 55 26
Width: 510
GlyphClass: 2
Flags: W
LayerCount: 2
Fore
SplineSet
15 656 m 1,0,-1
 445 640 l 1,1,-1
 460 618 l 1,2,-1
 291 -4 l 1,3,-1
 181 -14 l 1,4,-1
 219 554 l 1,5,-1
 33 538 l 1,6,-1
 15 656 l 1,0,-1
EndSplineSet
EndChar

StartChar: eight
Encoding: 56 56 27
Width: 617
GlyphClass: 2
Flags: W
LayerCount: 2
Fore
SplineSet
55 170 m 0,0,1
 55 273 55 273 148 336 c 1,2,3
 134 340 134 340 128 343 c 1,4,5
 72 416 72 416 72 490 c 0,6,7
 72 665 72 665 303 665 c 0,8,9
 402 665 402 665 489 633 c 1,10,11
 545 560 545 560 545 486 c 0,12,13
 545 396 545 396 464 337 c 1,14,-1
 502 324 l 1,15,16
 562 247 562 247 562 165 c 0,17,18
 562 -24 562 -24 314 -24 c 0,19,20
 206 -24 206 -24 115 11 c 1,21,22
 55 88 55 88 55 170 c 0,0,1
221 148 m 0,23,24
 221 101 221 101 237 66 c 1,25,26
 273 40 273 40 322 40 c 1,27,28
 388 93 388 93 388 175 c 128,-1,29
 388 257 388 257 348 305 c 1,30,31
 323 309 323 309 291 309 c 1,32,33
 221 253 221 253 221 148 c 0,23,24
400 504 m 0,34,35
 400 543 400 543 384 577 c 1,36,37
 346 600 346 600 294 600 c 1,38,39
 224 552 224 552 224 475 c 0,40,41
 224 446 224 446 235.5 415 c 128,-1,42
 247 384 247 384 267 365 c 1,43,44
 294 361 294 361 327 361 c 1,45,46
 400 412 400 412 400 504 c 0,34,35
EndSplineSet
EndChar

StartChar: nine
Encoding: 57 57 28
Width: 574
GlyphClass: 2
Flags: W
LayerCount: 2
Fore
SplineSet
387 575 m 1,0,1
 344 596 344 596 312.5 596 c 128,-1,2
 281 596 281 596 251 589 c 1,3,4
 236 533 236 533 236 448 c 128,-1,5
 236 363 236 363 251 337 c 1,6,7
 390 362 390 362 390 523 c 0,8,9
 390 546 390 546 387 575 c 1,0,1
205 264 m 0,10,11
 180 264 180 264 143 274 c 1,12,13
 103 313 103 313 82.5 359.5 c 128,-1,14
 62 406 62 406 62 477 c 0,15,16
 62 574 62 574 110.5 619.5 c 128,-1,17
 159 665 159 665 283 665 c 0,18,19
 351 665 351 665 411.5 647 c 128,-1,20
 472 629 472 629 507 600 c 1,21,22
 524 516 524 516 524 434 c 0,23,24
 524 270 524 270 451.5 132.5 c 128,-1,25
 379 -5 379 -5 293 -62 c 1,26,-1
 123 53 l 1,27,28
 193 98 193 98 255.5 169.5 c 128,-1,29
 318 241 318 241 360 319 c 1,30,-1
 353 323 l 1,31,32
 286 264 286 264 205 264 c 0,10,11
EndSplineSet
EndChar

StartChar: colon
Encoding: 58 58 29
Width: 286
GlyphClass: 2
Flags: W
LayerCount: 2
Fore
SplineSet
53 412 m 128,-1,1
 53 451 53 451 75.5 475.5 c 128,-1,2
 98 500 98 500 146 500 c 128,-1,3
 194 500 194 500 216.5 475.5 c 128,-1,4
 239 451 239 451 239 412 c 128,-1,5
 239 373 239 373 216.5 348.5 c 128,-1,6
 194 324 194 324 146 324 c 128,-1,7
 98 324 98 324 75.5 348.5 c 128,-1,0
 53 373 53 373 53 412 c 128,-1,1
50 78 m 128,-1,9
 50 117 50 117 72.5 141.5 c 128,-1,10
 95 166 95 166 143 166 c 128,-1,11
 191 166 191 166 213.5 141.5 c 128,-1,12
 236 117 236 117 236 78 c 128,-1,13
 236 39 236 39 213.5 14.5 c 128,-1,14
 191 -10 191 -10 143 -10 c 128,-1,15
 95 -10 95 -10 72.5 14.5 c 128,-1,8
 50 39 50 39 50 78 c 128,-1,9
EndSplineSet
EndChar

StartChar: semicolon
Encoding: 59 59 30
Width: 286
GlyphClass: 2
Flags: W
LayerCount: 2
Fore
SplineSet
140 -4 m 1,0,1
 126 -15 126 -15 103 -15 c 128,-1,2
 80 -15 80 -15 65 10 c 128,-1,3
 50 35 50 35 50 80.5 c 128,-1,4
 50 126 50 126 69 148.5 c 128,-1,5
 88 171 88 171 142.5 171 c 128,-1,6
 197 171 197 171 229 139 c 1,7,8
 236 103 236 103 236 55 c 0,9,10
 236 -103 236 -103 148 -183 c 1,11,-1
 73 -123 l 1,12,13
 131 -75 131 -75 144 -6 c 1,14,-1
 140 -4 l 1,0,1
53 412 m 128,-1,16
 53 451 53 451 75.5 475.5 c 128,-1,17
 98 500 98 500 146 500 c 128,-1,18
 194 500 194 500 216.5 475.5 c 128,-1,19
 239 451 239 451 239 412 c 128,-1,20
 239 373 239 373 216.5 348.5 c 128,-1,21
 194 324 194 324 146 324 c 128,-1,22
 98 324 98 324 75.5 348.5 c 128,-1,15
 53 373 53 373 53 412 c 128,-1,16
EndSplineSet
EndChar

StartChar: less
Encoding: 60 60 31
Width: 612
GlyphClass: 2
Flags: W
LayerCount: 2
Fore
SplineSet
512 495 m 1,0,-1
 229 311 l 1,1,-1
 526 173 l 1,2,-1
 468 78 l 1,3,-1
 105 280 l 1,4,-1
 105 367 l 1,5,-1
 488 556 l 1,6,-1
 512 495 l 1,0,-1
EndSplineSet
EndChar

StartChar: equal
Encoding: 61 61 32
Width: 612
GlyphClass: 2
Flags: W
LayerCount: 2
Fore
SplineSet
512 386 m 1,0,-1
 90 359 l 1,1,-1
 100 469 l 1,2,-1
 522 469 l 1,3,-1
 512 386 l 1,0,-1
100 242 m 1,4,-1
 522 269 l 1,5,-1
 512 159 l 1,6,-1
 90 159 l 1,7,-1
 100 242 l 1,4,-1
EndSplineSet
EndChar

StartChar: greater
Encoding: 62 62 33
Width: 612
GlyphClass: 2
Flags: W
LayerCount: 2
Fore
SplineSet
100 139 m 1,0,-1
 383 323 l 1,1,-1
 86 461 l 1,2,-1
 144 556 l 1,3,-1
 507 354 l 1,4,-1
 507 267 l 1,5,-1
 124 78 l 1,6,-1
 100 139 l 1,0,-1
EndSplineSet
EndChar

StartChar: question
Encoding: 63 63 34
Width: 407
GlyphClass: 2
Flags: W
LayerCount: 2
Fore
SplineSet
100 78 m 128,-1,1
 100 116 100 116 127.5 143.5 c 128,-1,2
 155 171 155 171 193 171 c 128,-1,3
 231 171 231 171 258.5 143.5 c 128,-1,4
 286 116 286 116 286 78 c 128,-1,5
 286 40 286 40 258.5 12.5 c 128,-1,6
 231 -15 231 -15 193 -15 c 128,-1,7
 155 -15 155 -15 127.5 12.5 c 128,-1,0
 100 40 100 40 100 78 c 128,-1,1
258 525 m 1,8,9
 151 525 151 525 77 491 c 1,10,-1
 42 664 l 1,11,12
 104 683 104 683 173 683 c 128,-1,13
 242 683 242 683 294.5 669.5 c 128,-1,14
 347 656 347 656 373 635 c 1,15,16
 387 579 387 579 387 524 c 0,17,18
 387 425 387 425 324.5 346 c 128,-1,19
 262 267 262 267 188 230 c 1,20,-1
 131 300 l 1,21,22
 205 350 205 350 231.5 405.5 c 128,-1,23
 258 461 258 461 258 525 c 1,8,9
EndSplineSet
EndChar

StartChar: at
Encoding: 64 64 35
Width: 999
GlyphClass: 2
Flags: W
LayerCount: 2
Fore
SplineSet
728 119 m 0,0,1
 777 119 777 119 808 166 c 128,-1,2
 839 213 839 213 839 294.5 c 128,-1,3
 839 376 839 376 822 432 c 128,-1,4
 805 488 805 488 769 533.5 c 128,-1,5
 733 579 733 579 668.5 604 c 128,-1,6
 604 629 604 629 521 629 c 128,-1,7
 438 629 438 629 376.5 608 c 128,-1,8
 315 587 315 587 274.5 551.5 c 128,-1,9
 234 516 234 516 208 466 c 0,10,11
 160 372 160 372 160 242 c 0,12,13
 160 101 160 101 229 11 c 0,14,15
 265 -36 265 -36 329 -62.5 c 128,-1,16
 393 -89 393 -89 480 -89 c 0,17,18
 599 -89 599 -89 710 0 c 1,19,-1
 751 -62 l 1,20,21
 621 -156 621 -156 477 -156 c 0,22,23
 371 -156 371 -156 290 -123.5 c 128,-1,24
 209 -91 209 -91 162 -34 c 0,25,26
 69 77 69 77 69 243 c 0,27,28
 69 393 69 393 135 504 c 0,29,30
 170 562 170 562 221 604 c 128,-1,31
 272 646 272 646 349 670.5 c 128,-1,32
 426 695 426 695 526.5 695 c 128,-1,33
 627 695 627 695 708 664 c 128,-1,34
 789 633 789 633 836 578 c 0,35,36
 930 468 930 468 930 304 c 0,37,38
 930 241 930 241 912.5 194 c 128,-1,39
 895 147 895 147 870.5 122.5 c 128,-1,40
 846 98 846 98 813 83 c 0,41,42
 765 61 765 61 705.5 61 c 128,-1,43
 646 61 646 61 606 99.5 c 128,-1,44
 566 138 566 138 558 206 c 1,45,-1
 551 206 l 1,46,47
 499 74 499 74 381 74 c 0,48,49
 337 74 337 74 307.5 144 c 128,-1,50
 278 214 278 214 278 301 c 128,-1,51
 278 388 278 388 315 426.5 c 128,-1,52
 352 465 352 465 436 465 c 128,-1,53
 520 465 520 465 581 426 c 1,54,-1
 652 476 l 1,55,-1
 682 453 l 1,56,-1
 666 224 l 2,57,58
 665 216 665 216 666 189 c 128,-1,59
 667 162 667 162 680.5 140.5 c 128,-1,60
 694 119 694 119 728 119 c 0,0,1
463 422 m 0,61,62
 439 422 439 422 411 410 c 1,63,64
 406 357 406 357 406 317 c 128,-1,65
 406 277 406 277 413 218 c 128,-1,66
 420 159 420 159 429 137 c 1,67,68
 464 145 464 145 500 193 c 0,69,70
 546 253 546 253 546 399 c 1,71,72
 513 422 513 422 463 422 c 0,61,62
EndSplineSet
EndChar

StartChar: A
Encoding: 65 65 36
Width: 639
GlyphClass: 2
Flags: W
LayerCount: 2
Fore
SplineSet
30 0 m 1,0,-1
 217 665 l 1,1,-1
 459 650 l 1,2,-1
 589 0 l 1,3,-1
 499 -15 l 1,4,-1
 430 151 l 1,5,-1
 164 129 l 1,6,-1
 130 -15 l 1,7,-1
 30 0 l 1,0,-1
261 539 m 1,8,-1
 182 206 l 1,9,-1
 408 204 l 1,10,-1
 269 539 l 1,11,-1
 261 539 l 1,8,-1
EndSplineSet
EndChar

StartChar: B
Encoding: 66 66 37
Width: 702
GlyphClass: 2
Flags: W
LayerCount: 2
Fore
SplineSet
98 630 m 1,0,1
 245 675 245 675 374.5 675 c 128,-1,2
 504 675 504 675 581 627 c 1,3,4
 598 576 598 576 598 529 c 0,5,6
 598 424 598 424 508 357 c 1,7,8
 565 313 565 313 597.5 257 c 128,-1,9
 630 201 630 201 630 153 c 0,10,11
 630 74 630 74 557 24 c 128,-1,12
 484 -26 484 -26 329 -26 c 0,13,14
 241 -26 241 -26 155 -14 c 1,15,-1
 98 630 l 1,0,1
262 60 m 1,16,17
 317 45 317 45 367 45 c 128,-1,18
 417 45 417 45 433 51 c 1,19,20
 468 121 468 121 468 192.5 c 128,-1,21
 468 264 468 264 435 315 c 1,22,23
 375 288 375 288 284 267 c 1,24,-1
 262 60 l 1,16,17
436 494 m 0,25,26
 436 526 436 526 422 559.5 c 128,-1,27
 408 593 408 593 383 610 c 1,28,29
 360 610 360 610 319 598 c 1,30,-1
 290 324 l 1,31,32
 357 351 357 351 396.5 398.5 c 128,-1,33
 436 446 436 446 436 494 c 0,25,26
EndSplineSet
EndChar

StartChar: C
Encoding: 67 67 38
Width: 502
GlyphClass: 2
Flags: W
LayerCount: 2
Fore
SplineSet
267 73 m 0,0,1
 372 73 372 73 468 109 c 1,2,-1
 502 1 l 1,3,4
 421 -24 421 -24 337 -24 c 128,-1,5
 253 -24 253 -24 187.5 -6 c 128,-1,6
 122 12 122 12 87 41 c 1,7,8
 70 125 70 125 70 207 c 0,9,10
 70 374 70 374 133 510 c 128,-1,11
 196 646 196 646 278 700 c 1,12,-1
 471 578 l 1,13,14
 333 490 333 490 252 354 c 128,-1,15
 171 218 171 218 171 80 c 1,16,17
 214 73 214 73 267 73 c 0,0,1
EndSplineSet
EndChar

StartChar: D
Encoding: 68 68 39
Width: 654
GlyphClass: 2
Flags: W
LayerCount: 2
Fore
SplineSet
98 630 m 1,0,1
 245 677 245 677 376.5 677 c 128,-1,2
 508 677 508 677 591 637 c 1,3,4
 624 556 624 556 624 468 c 0,5,6
 624 349 624 349 566.5 241 c 128,-1,7
 509 133 509 133 399.5 61.5 c 128,-1,8
 290 -10 290 -10 155 -14 c 1,9,-1
 98 630 l 1,0,1
446 400 m 0,10,11
 446 473 446 473 424.5 530 c 128,-1,12
 403 587 403 587 363 610 c 1,13,14
 345 610 345 610 319 603 c 1,15,-1
 264 70 l 1,16,17
 354 107 354 107 400 199.5 c 128,-1,18
 446 292 446 292 446 400 c 0,10,11
EndSplineSet
EndChar

StartChar: E
Encoding: 69 69 40
Width: 605
GlyphClass: 2
Flags: W
LayerCount: 2
Fore
SplineSet
531 0 m 1,0,-1
 140 -9 l 1,1,-1
 93 650 l 1,2,-1
 534 664 l 1,3,-1
 531 597 l 1,4,-1
 320 572 l 1,5,-1
 294 365 l 1,6,-1
 507 367 l 1,7,-1
 512 277 l 1,8,-1
 286 294 l 1,9,-1
 259 71 l 1,10,-1
 535 103 l 1,11,-1
 531 0 l 1,0,-1
EndSplineSet
EndChar

StartChar: F
Encoding: 70 70 41
Width: 574
GlyphClass: 2
Flags: W
LayerCount: 2
Fore
SplineSet
482 247 m 1,0,-1
 282 263 l 1,1,-1
 250 -4 l 1,2,-1
 140 -9 l 1,3,-1
 93 650 l 1,4,-1
 534 664 l 1,5,-1
 531 597 l 1,6,-1
 320 572 l 1,7,-1
 291 335 l 1,8,-1
 477 337 l 1,9,-1
 482 247 l 1,0,-1
EndSplineSet
EndChar

StartChar: G
Encoding: 71 71 42
Width: 576
GlyphClass: 2
Flags: W
LayerCount: 2
Fore
SplineSet
330 -14 m 0,0,1
 253 -14 253 -14 187.5 4 c 128,-1,2
 122 22 122 22 87 51 c 1,3,4
 70 131 70 131 70 217 c 0,5,6
 70 364 70 364 121 493.5 c 128,-1,7
 172 623 172 623 278 700 c 1,8,-1
 471 578 l 1,9,10
 333 490 333 490 252 354 c 128,-1,11
 171 218 171 218 171 80 c 1,12,13
 226 69 226 69 279.5 69 c 128,-1,14
 333 69 333 69 376 79 c 1,15,-1
 356 298 l 1,16,-1
 546 310 l 1,17,-1
 486 -42 l 1,18,-1
 388 -50 l 1,19,-1
 384 -11 l 1,20,21
 357 -14 357 -14 330 -14 c 0,0,1
EndSplineSet
EndChar

StartChar: H
Encoding: 72 72 43
Width: 769
GlyphClass: 2
Flags: W
LayerCount: 2
Fore
SplineSet
513 -16 m 1,0,-1
 490 246 l 1,1,-1
 279 229 l 1,2,-1
 255 -4 l 1,3,-1
 155 -14 l 1,4,-1
 98 650 l 1,5,-1
 326 665 l 1,6,-1
 288 306 l 1,7,-1
 485 304 l 1,8,-1
 456 648 l 1,9,-1
 684 663 l 1,10,-1
 613 -6 l 1,11,-1
 513 -16 l 1,0,-1
EndSplineSet
EndChar

StartChar: I
Encoding: 73 73 44
Width: 431
GlyphClass: 2
Flags: W
LayerCount: 2
Fore
SplineSet
155 -14 m 1,0,-1
 98 650 l 1,1,-1
 336 665 l 1,2,-1
 265 -4 l 1,3,-1
 155 -14 l 1,0,-1
EndSplineSet
EndChar

StartChar: J
Encoding: 74 74 45
Width: 421
GlyphClass: 2
Flags: W
LayerCount: 2
Fore
SplineSet
119 -24 m 0,0,1
 58 -24 58 -24 -8 10 c 1,2,-1
 10 64 l 1,3,4
 54 50 54 50 79 50 c 0,5,6
 151 50 151 50 151 140 c 0,7,8
 151 154 151 154 108 650 c 1,9,-1
 346 665 l 1,10,-1
 290 141 l 2,11,12
 272 -24 272 -24 119 -24 c 0,0,1
EndSplineSet
EndChar

StartChar: K
Encoding: 75 75 46
Width: 681
GlyphClass: 2
Flags: W
LayerCount: 2
Fore
SplineSet
625 597 m 1,0,-1
 414 376 l 1,1,-1
 661 1 l 1,2,-1
 449 -14 l 1,3,-1
 314 271 l 1,4,-1
 292 248 l 1,5,-1
 265 -4 l 1,6,-1
 155 -14 l 1,7,-1
 98 650 l 1,8,-1
 336 665 l 1,9,-1
 304 363 l 1,10,-1
 536 665 l 1,11,-1
 625 597 l 1,0,-1
EndSplineSet
EndChar

StartChar: L
Encoding: 76 76 47
Width: 505
GlyphClass: 2
Flags: W
LayerCount: 2
Fore
SplineSet
511 0 m 1,0,-1
 140 -9 l 1,1,-1
 93 650 l 1,2,-1
 331 665 l 1,3,-1
 259 72 l 1,4,-1
 515 103 l 1,5,-1
 511 0 l 1,0,-1
EndSplineSet
EndChar

StartChar: M
Encoding: 77 77 48
Width: 939
GlyphClass: 2
Flags: W
LayerCount: 2
Fore
SplineSet
769 -15 m 1,0,-1
 626 517 l 1,1,-1
 618 517 l 1,2,-1
 509 0 l 1,3,-1
 419 -15 l 1,4,-1
 202 478 l 1,5,-1
 196 478 l 1,6,-1
 180 0 l 1,7,-1
 80 -5 l 1,8,-1
 127 650 l 1,9,-1
 369 660 l 1,10,-1
 470 184 l 1,11,-1
 587 665 l 1,12,-1
 829 650 l 1,13,-1
 859 0 l 1,14,-1
 769 -15 l 1,0,-1
EndSplineSet
EndChar

StartChar: N
Encoding: 78 78 49
Width: 692
GlyphClass: 2
Flags: W
LayerCount: 2
Fore
SplineSet
642 660 m 1,0,-1
 599 0 l 1,1,-1
 509 -15 l 1,2,-1
 185 521 l 1,3,-1
 177 521 l 1,4,-1
 180 0 l 1,5,-1
 80 -5 l 1,6,-1
 107 650 l 1,7,-1
 349 665 l 1,8,-1
 524 166 l 1,9,-1
 532 166 l 1,10,-1
 542 655 l 1,11,-1
 642 660 l 1,0,-1
EndSplineSet
EndChar

StartChar: O
Encoding: 79 79 50
Width: 589
GlyphClass: 2
Flags: W
LayerCount: 2
Fore
SplineSet
539 207 m 0,0,1
 539 146 539 146 529 105.5 c 128,-1,2
 519 65 519 65 493 34 c 0,3,4
 443 -24 443 -24 299.5 -24 c 128,-1,5
 156 -24 156 -24 77 41 c 1,6,7
 60 125 60 125 60 207 c 0,8,9
 60 373 60 373 122.5 504 c 128,-1,10
 185 635 185 635 268 690 c 1,11,12
 385 642 385 642 462 510.5 c 128,-1,13
 539 379 539 379 539 207 c 0,0,1
418 252 m 0,14,15
 418 406 418 406 367 516 c 1,16,17
 270 427 270 427 215.5 310 c 128,-1,18
 161 193 161 193 161 80 c 1,19,20
 195 73 195 73 242 73 c 0,21,22
 334 73 334 73 400 96 c 1,23,24
 418 174 418 174 418 252 c 0,14,15
EndSplineSet
EndChar

StartChar: P
Encoding: 80 80 51
Width: 629
GlyphClass: 2
Flags: W
LayerCount: 2
Fore
SplineSet
98 630 m 1,0,1
 238 675 238 675 381 675 c 128,-1,2
 524 675 524 675 601 627 c 1,3,4
 619 573 619 573 619 524 c 0,5,6
 619 409 619 409 524 331.5 c 128,-1,7
 429 254 429 254 279 220 c 1,8,-1
 255 -4 l 1,9,-1
 155 -14 l 1,10,-1
 98 630 l 1,0,1
426 495 m 0,11,12
 426 572 426 572 363 610 c 1,13,14
 345 610 345 610 319 603 c 1,15,-1
 286 288 l 1,16,17
 351 324 351 324 388.5 381 c 128,-1,18
 426 438 426 438 426 495 c 0,11,12
EndSplineSet
EndChar

StartChar: Q
Encoding: 81 81 52
Width: 589
GlyphClass: 2
Flags: W
LayerCount: 2
Fore
SplineSet
539 207 m 0,0,1
 539 115 539 115 513.5 63 c 128,-1,2
 488 11 488 11 420 -9 c 1,3,-1
 532 -152 l 1,4,-1
 352 -165 l 1,5,-1
 295 -24 l 1,6,7
 153 -23 153 -23 77 41 c 1,8,9
 60 125 60 125 60 207 c 0,10,11
 60 373 60 373 122.5 504 c 128,-1,12
 185 635 185 635 268 690 c 1,13,14
 385 642 385 642 462 510.5 c 128,-1,15
 539 379 539 379 539 207 c 0,0,1
418 252 m 0,16,17
 418 406 418 406 367 516 c 1,18,19
 270 427 270 427 215.5 310 c 128,-1,20
 161 193 161 193 161 80 c 1,21,22
 195 73 195 73 242 73 c 0,23,24
 334 73 334 73 400 96 c 1,25,26
 418 174 418 174 418 252 c 0,16,17
EndSplineSet
EndChar

StartChar: R
Encoding: 82 82 53
Width: 702
GlyphClass: 2
Flags: W
LayerCount: 2
Fore
SplineSet
311 254 m 1,0,1
 293 248 293 248 282 248 c 1,2,-1
 255 -4 l 1,3,-1
 155 -14 l 1,4,-1
 98 630 l 1,5,6
 151 647 151 647 238.5 661 c 128,-1,7
 326 675 326 675 406 675 c 0,8,9
 534 675 534 675 611 627 c 1,10,11
 629 573 629 573 629 528 c 0,12,13
 629 402 629 402 484 320 c 1,14,-1
 652 1 l 1,15,-1
 582 -38 l 1,16,-1
 311 254 l 1,0,1
436 501 m 0,17,18
 436 572 436 572 373 610 c 1,19,20
 349 610 349 610 319 600 c 1,21,-1
 289 312 l 1,22,23
 358 343 358 343 397 395.5 c 128,-1,24
 436 448 436 448 436 501 c 0,17,18
EndSplineSet
EndChar

StartChar: S
Encoding: 83 83 54
Width: 431
GlyphClass: 2
Flags: W
LayerCount: 2
Fore
SplineSet
49 440 m 0,0,1
 49 581 49 581 199 700 c 1,2,-1
 382 578 l 1,3,4
 258 500 258 500 258 413 c 0,5,6
 258 376 258 376 283 335 c 128,-1,7
 308 294 308 294 333.5 254 c 128,-1,8
 359 214 359 214 359 179 c 0,9,10
 359 34 359 34 159 -45 c 1,11,-1
 111 20 l 1,12,13
 160 47 160 47 179 72 c 128,-1,14
 198 97 198 97 198 127 c 128,-1,15
 198 157 198 157 174.5 194.5 c 128,-1,16
 151 232 151 232 123.5 263 c 128,-1,17
 96 294 96 294 72.5 342 c 128,-1,18
 49 390 49 390 49 440 c 0,0,1
EndSplineSet
EndChar

StartChar: T
Encoding: 84 84 55
Width: 566
GlyphClass: 2
Flags: W
LayerCount: 2
Fore
SplineSet
40 651 m 1,0,-1
 551 665 l 1,1,-1
 548 598 l 1,2,-1
 408 584 l 1,3,-1
 346 -4 l 1,4,-1
 236 -14 l 1,5,-1
 186 562 l 1,6,-1
 46 548 l 1,7,-1
 40 651 l 1,0,-1
EndSplineSet
EndChar

StartChar: U
Encoding: 85 85 56
Width: 696
GlyphClass: 2
Flags: W
LayerCount: 2
Fore
SplineSet
342 -24 m 0,0,1
 253 -24 253 -24 194.5 31 c 128,-1,2
 136 86 136 86 123 207 c 2,3,-1
 75 650 l 1,4,-1
 313 665 l 1,5,6
 272 183 272 183 272 168 c 0,7,8
 272 54 272 54 381 54 c 0,9,10
 431 54 431 54 466 84.5 c 128,-1,11
 501 115 501 115 502 191 c 2,12,-1
 511 655 l 1,13,-1
 611 660 l 1,14,-1
 581 190 l 2,15,16
 568 -24 568 -24 342 -24 c 0,0,1
EndSplineSet
EndChar

StartChar: V
Encoding: 86 86 57
Width: 599
GlyphClass: 2
Flags: W
LayerCount: 2
Fore
SplineSet
244 665 m 1,0,-1
 325 163 l 1,1,-1
 334 163 l 1,2,-1
 479 665 l 1,3,-1
 569 641 l 1,4,-1
 352 0 l 1,5,-1
 262 -15 l 1,6,-1
 15 638 l 1,7,-1
 244 665 l 1,0,-1
EndSplineSet
EndChar

StartChar: W
Encoding: 87 87 58
Width: 923
GlyphClass: 2
Flags: W
LayerCount: 2
Fore
SplineSet
258 665 m 1,0,-1
 327 161 l 1,1,-1
 335 161 l 1,2,-1
 486 635 l 1,3,-1
 566 611 l 1,4,-1
 670 157 l 1,5,-1
 678 157 l 1,6,-1
 793 665 l 1,7,-1
 883 641 l 1,8,-1
 706 0 l 1,9,-1
 616 -15 l 1,10,-1
 463 322 l 1,11,-1
 349 0 l 1,12,-1
 239 -15 l 1,13,-1
 29 638 l 1,14,-1
 258 665 l 1,0,-1
EndSplineSet
EndChar

StartChar: X
Encoding: 88 88 59
Width: 631
GlyphClass: 2
Flags: W
LayerCount: 2
Fore
SplineSet
30 13 m 1,0,-1
 224 323 l 1,1,-1
 50 637 l 1,2,-1
 281 665 l 1,3,-1
 369 418 l 1,4,-1
 483 665 l 1,5,-1
 598 638 l 1,6,-1
 404 329 l 1,7,-1
 601 15 l 1,8,-1
 370 -14 l 1,9,-1
 262 239 l 1,10,-1
 145 -15 l 1,11,-1
 30 13 l 1,0,-1
EndSplineSet
EndChar

StartChar: Y
Encoding: 89 89 60
Width: 558
GlyphClass: 2
Flags: W
LayerCount: 2
Fore
SplineSet
229 665 m 1,0,-1
 309 303 l 1,1,-1
 318 303 l 1,2,-1
 462 662 l 1,3,-1
 543 640 l 1,4,-1
 371 235 l 1,5,-1
 333 -4 l 1,6,-1
 233 -14 l 1,7,-1
 202 209 l 1,8,-1
 4 638 l 1,9,-1
 229 665 l 1,0,-1
EndSplineSet
EndChar

StartChar: Z
Encoding: 90 90 61
Width: 560
GlyphClass: 2
Flags: W
LayerCount: 2
Fore
SplineSet
55 660 m 1,0,-1
 506 650 l 1,1,-1
 520 546 l 1,2,-1
 130 68 l 1,3,-1
 503 103 l 1,4,-1
 509 0 l 1,5,-1
 20 -9 l 1,6,-1
 23 58 l 1,7,-1
 296 569 l 1,8,-1
 58 593 l 1,9,-1
 55 660 l 1,0,-1
EndSplineSet
EndChar

StartChar: bracketleft
Encoding: 91 91 62
Width: 426
GlyphClass: 2
Flags: W
LayerCount: 2
Fore
SplineSet
396 620 m 1,0,-1
 263 620 l 1,1,-1
 211 16 l 1,2,-1
 376 -4 l 1,3,-1
 386 -54 l 1,4,-1
 152 -105 l 1,5,-1
 100 674 l 1,6,-1
 396 718 l 1,7,-1
 396 620 l 1,0,-1
EndSplineSet
EndChar

StartChar: backslash
Encoding: 92 92 63
Width: 496
GlyphClass: 2
Flags: W
LayerCount: 2
Fore
SplineSet
192 739 m 1,0,-1
 416 -68 l 1,1,-1
 346 -91 l 1,2,-1
 80 708 l 1,3,-1
 192 739 l 1,0,-1
EndSplineSet
EndChar

StartChar: bracketright
Encoding: 93 93 64
Width: 426
GlyphClass: 2
Flags: W
LayerCount: 2
Fore
SplineSet
30 620 m 1,0,-1
 30 718 l 1,1,-1
 326 674 l 1,2,-1
 274 -105 l 1,3,-1
 40 -54 l 1,4,-1
 50 -4 l 1,5,-1
 215 16 l 1,6,-1
 163 620 l 1,7,-1
 30 620 l 1,0,-1
EndSplineSet
EndChar

StartChar: asciicircum
Encoding: 94 94 65
Width: 612
GlyphClass: 2
Flags: W
LayerCount: 2
Fore
SplineSet
442 362 m 1,0,-1
 298 545 l 1,1,-1
 200 348 l 1,2,-1
 105 406 l 1,3,-1
 267 669 l 1,4,-1
 354 669 l 1,5,-1
 503 386 l 1,6,-1
 442 362 l 1,0,-1
EndSplineSet
EndChar

StartChar: underscore
Encoding: 95 95 66
Width: 575
GlyphClass: 2
Flags: W
LayerCount: 2
Fore
SplineSet
521 -98 m 1,0,-1
 40 -125 l 1,1,-1
 54 -15 l 1,2,-1
 535 -15 l 1,3,-1
 521 -98 l 1,0,-1
EndSplineSet
EndChar

StartChar: grave
Encoding: 96 96 67
Width: 438
GlyphClass: 2
Flags: W
LayerCount: 2
Fore
SplineSet
170 753 m 1,0,-1
 348 631 l 1,1,-1
 314 563 l 1,2,-1
 110 628 l 1,3,-1
 170 753 l 1,0,-1
EndSplineSet
EndChar

StartChar: a
Encoding: 97 97 68
Width: 580
GlyphClass: 2
Flags: W
LayerCount: 2
Fore
SplineSet
135 -23 m 0,0,1
 118 -23 118 -23 110 -22 c 1,2,3
 76 1 76 1 55.5 46.5 c 128,-1,4
 35 92 35 92 35 141 c 0,5,6
 35 205 35 205 83.5 234 c 128,-1,7
 132 263 132 263 262 263 c 0,8,9
 310 263 310 263 362 256 c 1,10,-1
 360 278 l 2,11,12
 356 318 356 318 322 341.5 c 128,-1,13
 288 365 288 365 235 365 c 128,-1,14
 182 365 182 365 129 332 c 1,15,-1
 85 477 l 1,16,17
 171 512 171 512 281 512 c 128,-1,18
 391 512 391 512 455 462.5 c 128,-1,19
 519 413 519 413 519 308 c 0,20,21
 519 284 519 284 517 270 c 2,22,-1
 489 -6 l 1,23,-1
 390 -15 l 1,24,-1
 375 130 l 1,25,-1
 367 130 l 1,26,27
 333 58 333 58 273 17.5 c 128,-1,28
 213 -23 213 -23 135 -23 c 0,0,1
366 214 m 1,29,-1
 313 215 l 1,30,31
 247 215 247 215 205 208 c 1,32,33
 191 180 191 180 191 158 c 128,-1,34
 191 136 191 136 197 116 c 128,-1,35
 203 96 203 96 210 89 c 1,36,37
 330 108 330 108 366 214 c 1,29,-1
EndSplineSet
EndChar

StartChar: b
Encoding: 98 98 69
Width: 665
GlyphClass: 2
Flags: W
LayerCount: 2
Fore
SplineSet
465 523 m 0,0,1
 483 523 483 523 501 517 c 1,2,3
 537 474 537 474 559.5 387.5 c 128,-1,4
 582 301 582 301 582 207 c 0,5,6
 582 86 582 86 529.5 31 c 128,-1,7
 477 -24 477 -24 336 -24 c 0,8,9
 221 -24 221 -24 117 28 c 1,10,-1
 70 683 l 1,11,-1
 284 716 l 1,12,-1
 248 315 l 1,13,-1
 257 315 l 1,14,15
 297 411 297 411 351.5 467 c 128,-1,16
 406 523 406 523 465 523 c 0,0,1
224 43 m 1,17,18
 251 40 251 40 301 40 c 128,-1,19
 351 40 351 40 398 52 c 1,20,21
 413 129 413 129 413 197.5 c 128,-1,22
 413 266 413 266 407 324 c 128,-1,23
 401 382 401 382 393 404 c 1,24,25
 265 353 265 353 224 43 c 1,17,18
EndSplineSet
EndChar

StartChar: c
Encoding: 99 99 70
Width: 460
GlyphClass: 2
Flags: W
LayerCount: 2
Fore
SplineSet
227 63 m 0,0,1
 323 63 323 63 408 96 c 1,2,-1
 438 -1 l 1,3,4
 368 -24 368 -24 291 -24 c 128,-1,5
 214 -24 214 -24 155 -7.5 c 128,-1,6
 96 9 96 9 65 35 c 1,7,8
 50 107 50 107 50 169 c 0,9,10
 50 294 50 294 106.5 396 c 128,-1,11
 163 498 163 498 237 539 c 1,12,-1
 410 426 l 1,13,14
 284 358 284 358 212 264.5 c 128,-1,15
 140 171 140 171 140 69 c 1,16,17
 182 63 182 63 227 63 c 0,0,1
EndSplineSet
EndChar

StartChar: d
Encoding: 100 100 71
Width: 701
GlyphClass: 2
Flags: W
LayerCount: 2
Fore
SplineSet
205 -23 m 0,0,1
 181 -23 181 -23 165 -15 c 1,2,3
 128 23 128 23 105.5 98 c 128,-1,4
 83 173 83 173 83 265 c 0,5,6
 83 384 83 384 129.5 440 c 128,-1,7
 176 496 176 496 291 496 c 0,8,9
 362 496 362 496 432 468 c 1,10,-1
 417 683 l 1,11,-1
 631 716 l 1,12,-1
 567 -6 l 1,13,-1
 468 -15 l 1,14,-1
 455 157 l 1,15,-1
 447 157 l 1,16,17
 370 -23 370 -23 205 -23 c 0,0,1
330 436 m 0,18,19
 293 436 293 436 267 422 c 1,20,21
 253 350 253 350 253 273 c 0,22,23
 253 113 253 113 273 58 c 1,24,25
 322 66 322 66 376 127 c 0,26,27
 404 159 404 159 422.5 218 c 128,-1,28
 441 277 441 277 441 353 c 0,29,30
 441 368 441 368 439 400 c 1,31,32
 394 436 394 436 330 436 c 0,18,19
EndSplineSet
EndChar

StartChar: e
Encoding: 101 101 72
Width: 534
GlyphClass: 2
Flags: W
LayerCount: 2
Fore
SplineSet
237 539 m 1,0,1
 479 442 479 442 479 298 c 0,2,3
 479 223 479 223 436.5 189.5 c 128,-1,4
 394 156 394 156 279 156 c 0,5,6
 206 156 206 156 159 167 c 1,7,8
 140 120 140 120 140 69 c 1,9,10
 185 63 185 63 242 63 c 0,11,12
 346 63 346 63 438 96 c 1,13,-1
 468 -1 l 1,14,15
 395 -24 395 -24 304 -24 c 0,16,17
 142 -24 142 -24 66 35 c 1,18,19
 50 106 50 106 50 169 c 0,20,21
 50 295 50 295 105.5 396 c 128,-1,22
 161 497 161 497 237 539 c 1,0,1
179 214 m 1,23,24
 192 213 192 213 244.5 213 c 128,-1,25
 297 213 297 213 365 227 c 1,26,27
 368 246 368 246 368 265 c 0,28,29
 368 325 368 325 335 380 c 1,30,31
 236 314 236 314 179 214 c 1,23,24
EndSplineSet
EndChar

StartChar: f
Encoding: 102 102 73
Width: 431
GlyphClass: 2
Flags: W
LayerCount: 2
Fore
SplineSet
329 750 m 1,0,-1
 366 579 l 1,1,2
 274 547 274 547 236 470 c 1,3,-1
 401 479 l 1,4,-1
 398 412 l 1,5,-1
 299 397 l 1,6,-1
 250 -6 l 1,7,-1
 151 -15 l 1,8,-1
 111 369 l 1,9,-1
 26 356 l 1,10,-1
 20 459 l 1,11,-1
 110 463 l 1,12,13
 118 597 118 597 181 668.5 c 128,-1,14
 244 740 244 740 329 750 c 1,0,-1
EndSplineSet
EndChar

StartChar: g
Encoding: 103 103 74
Width: 720
GlyphClass: 2
Flags: W
LayerCount: 2
Fore
SplineSet
330 437 m 0,0,1
 293 437 293 437 267 423 c 1,2,3
 253 355 253 355 253 282 c 128,-1,4
 253 209 253 209 259 153.5 c 128,-1,5
 265 98 265 98 273 78 c 1,6,7
 321 87 321 87 375 143 c 0,8,9
 404 173 404 173 422.5 229.5 c 128,-1,10
 441 286 441 286 441 358 c 0,11,12
 441 370 441 370 439 402 c 1,13,14
 393 437 393 437 330 437 c 0,0,1
403 -220 m 0,15,16
 303 -220 303 -220 197 -150 c 1,17,-1
 225 -100 l 1,18,19
 314 -139 314 -139 372.5 -139 c 128,-1,20
 431 -139 431 -139 458.5 -108 c 128,-1,21
 486 -77 486 -77 486 -25 c 0,22,23
 486 -9 486 -9 465 196 c 1,24,-1
 457 196 l 1,25,26
 383 -3 383 -3 205 -3 c 0,27,28
 181 -3 181 -3 165 5 c 1,29,30
 128 42 128 42 105.5 113.5 c 128,-1,31
 83 185 83 185 83 274 c 0,32,33
 83 389 83 389 129.5 442.5 c 128,-1,34
 176 496 176 496 291 496 c 0,35,36
 375 496 375 496 436 456 c 1,37,-1
 458 485 l 1,38,-1
 650 514 l 1,39,-1
 581 -45 l 2,40,41
 571 -126 571 -126 525 -173 c 128,-1,42
 479 -220 479 -220 403 -220 c 0,15,16
EndSplineSet
EndChar

StartChar: h
Encoding: 104 104 75
Width: 665
GlyphClass: 2
Flags: W
LayerCount: 2
Fore
SplineSet
469 523 m 0,0,1
 487 523 487 523 505 517 c 1,2,3
 556 455 556 455 575 302.5 c 128,-1,4
 594 150 594 150 594 0 c 1,5,-1
 414 -15 l 1,6,7
 414 215 414 215 397 404 c 1,8,9
 264 355 264 355 220 -6 c 1,10,-1
 121 -15 l 1,11,-1
 70 683 l 1,12,-1
 284 716 l 1,13,-1
 247 304 l 1,14,-1
 256 304 l 1,15,16
 297 405 297 405 352.5 464 c 128,-1,17
 408 523 408 523 469 523 c 0,0,1
EndSplineSet
EndChar

StartChar: i
Encoding: 105 105 76
Width: 354
GlyphClass: 2
Flags: W
LayerCount: 2
Fore
SplineSet
121 -15 m 1,0,-1
 70 480 l 1,1,-1
 284 513 l 1,2,-1
 220 -6 l 1,3,-1
 121 -15 l 1,0,-1
74 657 m 128,-1,5
 74 695 74 695 101.5 722.5 c 128,-1,6
 129 750 129 750 167 750 c 128,-1,7
 205 750 205 750 232.5 722.5 c 128,-1,8
 260 695 260 695 260 657 c 128,-1,9
 260 619 260 619 232.5 591.5 c 128,-1,10
 205 564 205 564 167 564 c 128,-1,11
 129 564 129 564 101.5 591.5 c 128,-1,4
 74 619 74 619 74 657 c 128,-1,5
EndSplineSet
EndChar

StartChar: j
Encoding: 106 106 77
Width: 354
GlyphClass: 2
Flags: W
LayerCount: 2
Fore
SplineSet
74 657 m 128,-1,1
 74 695 74 695 101.5 722.5 c 128,-1,2
 129 750 129 750 167 750 c 128,-1,3
 205 750 205 750 232.5 722.5 c 128,-1,4
 260 695 260 695 260 657 c 128,-1,5
 260 619 260 619 232.5 591.5 c 128,-1,6
 205 564 205 564 167 564 c 128,-1,7
 129 564 129 564 101.5 591.5 c 128,-1,0
 74 619 74 619 74 657 c 128,-1,1
68 -135 m 0,8,9
 4 -135 4 -135 -52 -90 c 1,10,-1
 -22 -39 l 1,11,12
 8 -60 8 -60 45 -60 c 0,13,14
 116 -60 116 -60 116 28 c 0,15,16
 116 38 116 38 70 480 c 1,17,-1
 284 512 l 1,18,-1
 220 -5 l 2,19,20
 204 -135 204 -135 68 -135 c 0,8,9
EndSplineSet
EndChar

StartChar: k
Encoding: 107 107 78
Width: 598
GlyphClass: 2
Flags: W
LayerCount: 2
Fore
SplineSet
526 484 m 1,0,-1
 371 322 l 1,1,-1
 588 -2 l 1,2,-1
 398 -15 l 1,3,-1
 273 219 l 1,4,-1
 237 185 l 1,5,-1
 220 -6 l 1,6,-1
 121 -15 l 1,7,-1
 70 683 l 1,8,-1
 284 716 l 1,9,-1
 246 284 l 1,10,-1
 459 536 l 1,11,-1
 526 484 l 1,0,-1
EndSplineSet
EndChar

StartChar: l
Encoding: 108 108 79
Width: 354
GlyphClass: 2
Flags: W
LayerCount: 2
Fore
SplineSet
121 -15 m 1,0,-1
 70 683 l 1,1,-1
 284 716 l 1,2,-1
 220 -6 l 1,3,-1
 121 -15 l 1,0,-1
EndSplineSet
EndChar

StartChar: m
Encoding: 109 109 80
Width: 930
GlyphClass: 2
Flags: W
LayerCount: 2
Fore
SplineSet
443 523 m 0,0,1
 462 523 462 523 480 517 c 1,2,3
 519 469 519 469 543 343 c 1,4,-1
 551 343 l 1,5,6
 587 427 587 427 634.5 475 c 128,-1,7
 682 523 682 523 733 523 c 0,8,9
 752 523 752 523 770 517 c 1,10,11
 821 455 821 455 840 300 c 128,-1,12
 859 145 859 145 859 -6 c 1,13,-1
 679 -15 l 1,14,15
 679 221 679 221 664 404 c 1,16,17
 544 356 544 356 505 -6 c 1,18,-1
 389 -15 l 1,19,20
 389 221 389 221 374 404 c 1,21,22
 329 386 329 386 286.5 308.5 c 128,-1,23
 244 231 244 231 224 67 c 2,24,-1
 215 -6 l 1,25,-1
 116 -15 l 1,26,-1
 65 481 l 1,27,-1
 279 514 l 1,28,-1
 260 358 l 1,29,-1
 267 358 l 1,30,31
 344 523 344 523 443 523 c 0,0,1
EndSplineSet
EndChar

StartChar: n
Encoding: 110 110 81
Width: 660
GlyphClass: 2
Flags: W
LayerCount: 2
Fore
SplineSet
463 523 m 0,0,1
 482 523 482 523 500 517 c 1,2,3
 551 455 551 455 570 302.5 c 128,-1,4
 589 150 589 150 589 0 c 1,5,-1
 409 -15 l 1,6,7
 409 215 409 215 392 404 c 1,8,9
 259 355 259 355 215 -6 c 1,10,-1
 116 -15 l 1,11,-1
 65 481 l 1,12,-1
 279 514 l 1,13,-1
 257 338 l 1,14,-1
 266 338 l 1,15,16
 306 425 306 425 357 474 c 128,-1,17
 408 523 408 523 463 523 c 0,0,1
EndSplineSet
EndChar

StartChar: o
Encoding: 111 111 82
Width: 538
GlyphClass: 2
Flags: W
LayerCount: 2
Fore
SplineSet
488 184 m 0,0,1
 488 75 488 75 440.5 25.5 c 128,-1,2
 393 -24 393 -24 265 -24 c 128,-1,3
 137 -24 137 -24 65 34 c 1,4,5
 50 106 50 106 50 178 c 128,-1,6
 50 250 50 250 70.5 313.5 c 128,-1,7
 91 377 91 377 122 422 c 0,8,9
 187 514 187 514 238 539 c 1,10,11
 334 490 334 490 407 406 c 0,12,13
 488 314 488 314 488 184 c 0,0,1
372 211 m 0,14,15
 372 306 372 306 332 385 c 1,16,17
 249 341 249 341 195 251 c 128,-1,18
 141 161 141 161 141 69 c 1,19,20
 173 63 173 63 233 63 c 128,-1,21
 293 63 293 63 356 84 c 1,22,23
 372 145 372 145 372 211 c 0,14,15
EndSplineSet
EndChar

StartChar: p
Encoding: 112 112 83
Width: 677
GlyphClass: 2
Flags: W
LayerCount: 2
Fore
SplineSet
476 523 m 0,0,1
 495 523 495 523 513 517 c 1,2,3
 549 474 549 474 571.5 387.5 c 128,-1,4
 594 301 594 301 594 194.5 c 128,-1,5
 594 88 594 88 547.5 32 c 128,-1,6
 501 -24 501 -24 386 -24 c 0,7,8
 304 -24 304 -24 231 10 c 1,9,-1
 204 -208 l 1,10,-1
 111 -217 l 1,11,-1
 80 481 l 1,12,-1
 294 514 l 1,13,-1
 272 338 l 1,14,-1
 279 338 l 1,15,16
 319 424 319 424 370 473.5 c 128,-1,17
 421 523 421 523 476 523 c 0,0,1
347 38 m 0,18,19
 384 38 384 38 410 52 c 1,20,21
 425 129 425 129 425 197.5 c 128,-1,22
 425 266 425 266 419 324 c 128,-1,23
 413 382 413 382 405 404 c 1,24,25
 383 395 383 395 372 389.5 c 128,-1,26
 361 384 361 384 337 361.5 c 128,-1,27
 313 339 313 339 298 308 c 0,28,29
 258 224 258 224 239 74 c 1,30,31
 284 38 284 38 347 38 c 0,18,19
EndSplineSet
EndChar

StartChar: q
Encoding: 113 113 84
Width: 720
GlyphClass: 2
Flags: W
LayerCount: 2
Fore
SplineSet
205 -23 m 0,0,1
 181 -23 181 -23 165 -15 c 1,2,3
 128 23 128 23 105.5 98 c 128,-1,4
 83 173 83 173 83 265 c 0,5,6
 83 384 83 384 129.5 440 c 128,-1,7
 176 496 176 496 291 496 c 0,8,9
 375 496 375 496 436 456 c 1,10,-1
 458 485 l 1,11,-1
 650 514 l 1,12,-1
 560 -208 l 1,13,-1
 467 -217 l 1,14,-1
 450 148 l 1,15,-1
 443 148 l 1,16,17
 366 -23 366 -23 205 -23 c 0,0,1
330 436 m 0,18,19
 293 436 293 436 267 422 c 1,20,21
 253 350 253 350 253 273 c 0,22,23
 253 113 253 113 273 58 c 1,24,25
 322 66 322 66 376 127 c 0,26,27
 404 159 404 159 422.5 218 c 128,-1,28
 441 277 441 277 441 353 c 0,29,30
 441 368 441 368 439 400 c 1,31,32
 394 436 394 436 330 436 c 0,18,19
EndSplineSet
EndChar

StartChar: r
Encoding: 114 114 85
Width: 470
GlyphClass: 2
Flags: W
LayerCount: 2
Fore
SplineSet
383 329 m 0,0,1
 315 329 315 329 280 281.5 c 128,-1,2
 245 234 245 234 229 107 c 2,3,-1
 215 -6 l 1,4,-1
 116 -15 l 1,5,-1
 65 481 l 1,6,-1
 279 514 l 1,7,-1
 259 354 l 1,8,-1
 266 354 l 1,9,10
 346 526 346 526 470 537 c 1,11,-1
 442 324 l 1,12,13
 405 329 405 329 383 329 c 0,0,1
EndSplineSet
EndChar

StartChar: s
Encoding: 115 115 86
Width: 419
GlyphClass: 2
Flags: W
LayerCount: 2
Fore
SplineSet
60 329 m 0,0,1
 60 457 60 457 195 563 c 1,2,-1
 359 453 l 1,3,4
 248 382 248 382 248 304 c 0,5,6
 248 263 248 263 293.5 197 c 128,-1,7
 339 131 339 131 339 94 c 0,8,9
 339 -37 339 -37 159 -108 c 1,10,-1
 115 -49 l 1,11,12
 194 -6 194 -6 194 46 c 0,13,14
 194 95 194 95 127 170 c 0,15,16
 102 198 102 198 81 241 c 128,-1,17
 60 284 60 284 60 329 c 0,0,1
EndSplineSet
EndChar

StartChar: t
Encoding: 116 116 87
Width: 431
GlyphClass: 2
Flags: W
LayerCount: 2
Fore
SplineSet
151 -15 m 1,0,-1
 108 389 l 1,1,-1
 16 376 l 1,2,-1
 10 479 l 1,3,-1
 98 483 l 1,4,-1
 83 623 l 1,5,-1
 332 656 l 1,6,-1
 312 494 l 1,7,-1
 411 499 l 1,8,-1
 408 432 l 1,9,-1
 302 417 l 1,10,-1
 250 -6 l 1,11,-1
 151 -15 l 1,0,-1
EndSplineSet
EndChar

StartChar: u
Encoding: 117 117 88
Width: 690
GlyphClass: 2
Flags: W
LayerCount: 2
Fore
SplineSet
404 221 m 128,-1,1
 418 277 418 277 418 318.5 c 128,-1,2
 418 360 418 360 406 480 c 1,3,-1
 620 513 l 1,4,-1
 556 -6 l 1,5,-1
 457 -15 l 1,6,-1
 437 175 l 1,7,-1
 430 175 l 1,8,9
 356 -23 356 -23 194 -23 c 0,10,11
 170 -23 170 -23 154 -15 c 1,12,13
 103 47 103 47 84 195.5 c 128,-1,14
 65 344 65 344 65 492 c 1,15,-1
 265 507 l 1,16,17
 247 332 247 332 247 245 c 128,-1,18
 247 158 247 158 262 58 c 1,19,20
 317 70 317 70 353.5 117.5 c 128,-1,0
 390 165 390 165 404 221 c 128,-1,1
EndSplineSet
EndChar

StartChar: v
Encoding: 118 118 89
Width: 558
GlyphClass: 2
Flags: W
LayerCount: 2
Fore
SplineSet
244 513 m 1,0,-1
 310 130 l 1,1,-1
 318 130 l 1,2,-1
 447 510 l 1,3,-1
 528 488 l 1,4,-1
 333 -2 l 1,5,-1
 252 -15 l 1,6,-1
 30 480 l 1,7,-1
 244 513 l 1,0,-1
EndSplineSet
EndChar

StartChar: w
Encoding: 119 119 90
Width: 828
GlyphClass: 2
Flags: W
LayerCount: 2
Fore
SplineSet
236 511 m 1,0,-1
 298 122 l 1,1,-1
 306 122 l 1,2,-1
 441 477 l 1,3,-1
 513 455 l 1,4,-1
 605 119 l 1,5,-1
 613 119 l 1,6,-1
 717 504 l 1,7,-1
 798 482 l 1,8,-1
 639 -2 l 1,9,-1
 558 -15 l 1,10,-1
 412 219 l 1,11,-1
 318 -2 l 1,12,-1
 219 -15 l 1,13,-1
 30 480 l 1,14,-1
 236 511 l 1,0,-1
EndSplineSet
EndChar

StartChar: x
Encoding: 120 120 91
Width: 540
GlyphClass: 2
Flags: W
LayerCount: 2
Fore
SplineSet
30 0 m 1,0,-1
 183 232 l 1,1,-1
 40 480 l 1,2,-1
 254 510 l 1,3,-1
 320 329 l 1,4,-1
 410 510 l 1,5,-1
 501 488 l 1,6,-1
 348 256 l 1,7,-1
 510 0 l 1,8,-1
 296 -22 l 1,9,-1
 213 164 l 1,10,-1
 121 -22 l 1,11,-1
 30 0 l 1,0,-1
EndSplineSet
EndChar

StartChar: y
Encoding: 121 121 92
Width: 566
GlyphClass: 2
Flags: W
LayerCount: 2
Fore
SplineSet
246.5 -178.5 m 128,-1,1
 209 -212 209 -212 147.5 -212 c 128,-1,2
 86 -212 86 -212 30 -167 c 1,3,-1
 60 -116 l 1,4,5
 93 -128 93 -128 132.5 -128 c 128,-1,6
 172 -128 172 -128 204 -102 c 128,-1,7
 236 -76 236 -76 245 -23 c 1,8,-1
 38 480 l 1,9,-1
 252 513 l 1,10,-1
 318 129 l 1,11,-1
 326 129 l 1,12,-1
 455 510 l 1,13,-1
 536 488 l 1,14,-1
 319 -58 l 2,15,0
 284 -145 284 -145 246.5 -178.5 c 128,-1,1
EndSplineSet
EndChar

StartChar: z
Encoding: 122 122 93
Width: 560
GlyphClass: 2
Flags: W
LayerCount: 2
Fore
SplineSet
76 509 m 1,0,-1
 482 500 l 1,1,-1
 495 396 l 1,2,-1
 160 65 l 1,3,-1
 470 102 l 1,4,-1
 476 0 l 1,5,-1
 45 -9 l 1,6,-1
 48 52 l 1,7,-1
 273 418 l 1,8,-1
 79 438 l 1,9,-1
 76 509 l 1,0,-1
EndSplineSet
EndChar

StartChar: braceleft
Encoding: 123 123 94
Width: 426
GlyphClass: 2
Flags: W
LayerCount: 2
Fore
SplineSet
230 247 m 1,0,-1
 216 49 l 1,1,2
 216 20 216 20 231.5 5 c 128,-1,3
 247 -10 247 -10 280.5 -10 c 128,-1,4
 314 -10 314 -10 377 1 c 1,5,-1
 386 -54 l 1,6,7
 285 -90 285 -90 233.5 -90 c 128,-1,8
 182 -90 182 -90 165 -61.5 c 128,-1,9
 148 -33 148 -33 143 34 c 2,10,-1
 127 263 l 1,11,-1
 58 275 l 1,12,-1
 53 323 l 1,13,-1
 122 351 l 1,14,15
 109 528 109 528 109 561 c 128,-1,16
 109 594 109 594 122.5 625.5 c 128,-1,17
 136 657 136 657 157.5 675 c 128,-1,18
 179 693 179 693 218.5 703 c 128,-1,19
 258 713 258 713 296.5 715.5 c 128,-1,20
 335 718 335 718 396 718 c 1,21,-1
 396 657 l 1,22,23
 336 657 336 657 299.5 635.5 c 128,-1,24
 263 614 263 614 260 580 c 2,25,-1
 243 393 l 2,26,27
 238 336 238 336 172 316 c 1,28,-1
 170 308 l 1,29,30
 230 289 230 289 230 247 c 1,0,-1
EndSplineSet
EndChar

StartChar: bar
Encoding: 124 124 95
Width: 356
GlyphClass: 2
Flags: W
LayerCount: 2
Fore
SplineSet
138 -102 m 1,0,-1
 108 739 l 1,1,-1
 248 739 l 1,2,-1
 217 -102 l 1,3,-1
 138 -102 l 1,0,-1
EndSplineSet
EndChar

StartChar: braceright
Encoding: 125 125 96
Width: 426
GlyphClass: 2
Flags: W
LayerCount: 2
Fore
SplineSet
210 49 m 1,0,-1
 196 247 l 1,1,2
 196 289 196 289 256 308 c 1,3,-1
 254 316 l 1,4,5
 188 336 188 336 183 393 c 2,6,-1
 166 580 l 2,7,8
 163 614 163 614 126.5 635.5 c 128,-1,9
 90 657 90 657 30 657 c 1,10,-1
 30 718 l 1,11,12
 91 718 91 718 129.5 715.5 c 128,-1,13
 168 713 168 713 207.5 703 c 128,-1,14
 247 693 247 693 268 675 c 0,15,16
 317 634 317 634 317 548 c 0,17,18
 317 528 317 528 304 351 c 1,19,-1
 373 323 l 1,20,-1
 368 275 l 1,21,-1
 299 263 l 1,22,-1
 283 34 l 2,23,24
 278 -33 278 -33 261 -61.5 c 128,-1,25
 244 -90 244 -90 192.5 -90 c 128,-1,26
 141 -90 141 -90 40 -54 c 1,27,-1
 49 1 l 1,28,29
 112 -10 112 -10 146 -10 c 0,30,31
 210 -10 210 -10 210 49 c 1,0,-1
EndSplineSet
EndChar

StartChar: asciitilde
Encoding: 126 126 97
Width: 612
GlyphClass: 2
Flags: W
LayerCount: 2
Fore
SplineSet
512 292 m 1,0,1
 474 315 474 315 427 315 c 128,-1,2
 380 315 380 315 304.5 271 c 128,-1,3
 229 227 229 227 177 227 c 128,-1,4
 125 227 125 227 90 259 c 1,5,-1
 97 372 l 1,6,7
 134 341 134 341 182 341 c 128,-1,8
 230 341 230 341 300.5 369.5 c 128,-1,9
 371 398 371 398 422.5 398 c 128,-1,10
 474 398 474 398 522 364 c 1,11,-1
 512 292 l 1,0,1
EndSplineSet
EndChar

StartChar: exclamdown
Encoding: 161 161 99
Width: 383
GlyphClass: 2
Flags: W
LayerCount: 2
Fore
SplineSet
323 419 m 128,-1,1
 323 381 323 381 295.5 353.5 c 128,-1,2
 268 326 268 326 230 326 c 128,-1,3
 192 326 192 326 164.5 353.5 c 128,-1,4
 137 381 137 381 137 419 c 128,-1,5
 137 457 137 457 164.5 484.5 c 128,-1,6
 192 512 192 512 230 512 c 128,-1,7
 268 512 268 512 295.5 484.5 c 128,-1,0
 323 457 323 457 323 419 c 128,-1,1
127 -186 m 1,8,-1
 100 -146 l 1,9,-1
 188 262 l 1,10,-1
 277 271 l 1,11,-1
 308 -154 l 1,12,-1
 127 -186 l 1,8,-1
EndSplineSet
EndChar

StartChar: cent
Encoding: 162 162 100
Width: 460
GlyphClass: 2
Flags: W
LayerCount: 2
Fore
SplineSet
50 249 m 0,0,1
 50 359 50 359 94 452 c 128,-1,2
 138 545 138 545 202 596 c 1,3,-1
 190 749 l 1,4,-1
 290 749 l 1,5,-1
 276 593 l 1,6,-1
 410 506 l 1,7,8
 284 438 284 438 212 344.5 c 128,-1,9
 140 251 140 251 140 149 c 1,10,11
 182 143 182 143 227 143 c 0,12,13
 323 143 323 143 408 176 c 1,14,-1
 438 79 l 1,15,16
 368 56 368 56 275 56 c 1,17,-1
 290 -112 l 1,18,-1
 190 -112 l 1,19,-1
 204 62 l 1,20,21
 111 76 111 76 65 115 c 1,22,23
 50 187 50 187 50 249 c 0,0,1
EndSplineSet
EndChar

StartChar: sterling
Encoding: 163 163 101
Width: 632
GlyphClass: 2
Flags: W
LayerCount: 2
Fore
SplineSet
182 203 m 0,0,1
 182 233 182 233 172 275 c 1,2,-1
 80 269 l 1,3,-1
 90 349 l 1,4,-1
 151 349 l 1,5,6
 117 461 117 461 117 537 c 0,7,8
 117 579 117 579 130 617 c 1,9,10
 207 665 207 665 335 665 c 0,11,12
 415 665 415 665 466.5 650 c 128,-1,13
 518 635 518 635 572 605 c 1,14,-1
 520 497 l 1,15,-1
 368 600 l 1,16,17
 338 581 338 581 326.5 552.5 c 128,-1,18
 315 524 315 524 315 473.5 c 128,-1,19
 315 423 315 423 313 349 c 1,20,-1
 462 349 l 1,21,-1
 452 296 l 1,22,-1
 308 285 l 1,23,24
 293 139 293 139 218 69 c 1,25,-1
 221 62 l 1,26,-1
 553 113 l 1,27,-1
 559 0 l 1,28,-1
 110 0 l 1,29,-1
 113 46 l 1,30,31
 182 104 182 104 182 203 c 0,0,1
EndSplineSet
EndChar

StartChar: currency
Encoding: 164 164 102
Width: 678
GlyphClass: 2
Flags: W
LayerCount: 2
Fore
SplineSet
512 471 m 1,0,1
 548 422 548 422 548 346.5 c 128,-1,2
 548 271 548 271 512 222 c 1,3,-1
 628 129 l 1,4,-1
 557 58 l 1,5,-1
 461 177 l 1,6,7
 412 150 412 150 339 150 c 128,-1,8
 266 150 266 150 217 177 c 1,9,-1
 121 58 l 1,10,-1
 50 129 l 1,11,-1
 166 222 l 1,12,13
 130 271 130 271 130 346.5 c 128,-1,14
 130 422 130 422 166 472 c 1,15,-1
 50 565 l 1,16,-1
 121 636 l 1,17,-1
 217 516 l 1,18,19
 265 544 265 544 339 544 c 128,-1,20
 413 544 413 544 461 516 c 1,21,-1
 557 636 l 1,22,-1
 628 565 l 1,23,-1
 512 471 l 1,0,1
358 474 m 0,24,25
 294 474 294 474 273 444.5 c 128,-1,26
 252 415 252 415 252 319 c 0,27,28
 252 270 252 270 265 234 c 1,29,30
 287 219 287 219 319 219 c 0,31,32
 383 219 383 219 403.5 248 c 128,-1,33
 424 277 424 277 424 373 c 0,34,35
 424 422 424 422 412 460 c 1,36,37
 390 474 390 474 358 474 c 0,24,25
EndSplineSet
EndChar

StartChar: yen
Encoding: 165 165 103
Width: 558
GlyphClass: 2
Flags: W
LayerCount: 2
Fore
SplineSet
229 665 m 1,0,-1
 309 303 l 1,1,-1
 318 303 l 1,2,-1
 462 662 l 1,3,-1
 543 640 l 1,4,-1
 427 369 l 1,5,-1
 520 369 l 1,6,-1
 508 316 l 1,7,-1
 402 310 l 1,8,-1
 370 234 l 1,9,-1
 363 189 l 1,10,-1
 500 189 l 1,11,-1
 488 136 l 1,12,-1
 354 128 l 1,13,-1
 333 -4 l 1,14,-1
 233 -14 l 1,15,-1
 214 119 l 1,16,-1
 42 109 l 1,17,-1
 54 189 l 1,18,-1
 205 189 l 1,19,-1
 202 209 l 1,20,-1
 162 295 l 1,21,-1
 62 289 l 1,22,-1
 74 369 l 1,23,-1
 128 369 l 1,24,-1
 4 638 l 1,25,-1
 229 665 l 1,0,-1
EndSplineSet
EndChar

StartChar: brokenbar
Encoding: 166 166 104
Width: 356
GlyphClass: 2
Flags: W
LayerCount: 2
Fore
SplineSet
248 739 m 1,0,-1
 239 500 l 1,1,-1
 116 500 l 1,2,-1
 108 739 l 1,3,-1
 248 739 l 1,0,-1
138 -102 m 1,4,-1
 127 192 l 1,5,-1
 228 192 l 1,6,-1
 217 -102 l 1,7,-1
 138 -102 l 1,4,-1
EndSplineSet
EndChar

StartChar: section
Encoding: 167 167 105
Width: 620
GlyphClass: 2
Flags: W
LayerCount: 2
Fore
SplineSet
563 221 m 0,0,1
 563 108 563 108 414 47 c 1,2,3
 436 0 436 0 436 -53 c 0,4,5
 436 -154 436 -154 329 -254 c 1,6,-1
 108 -129 l 1,7,8
 194 -69 194 -69 194 2 c 0,9,10
 194 36 194 36 172.5 71 c 128,-1,11
 151 106 151 106 125.5 131.5 c 128,-1,12
 100 157 100 157 78.5 195.5 c 128,-1,13
 57 234 57 234 57 276 c 0,14,15
 57 384 57 384 205 448 c 1,16,17
 183 494 183 494 183 549 c 0,18,19
 183 647 183 647 292 749 c 1,20,-1
 513 625 l 1,21,22
 425 564 425 564 425 493 c 0,23,24
 425 459 425 459 446.5 424.5 c 128,-1,25
 468 390 468 390 494 364.5 c 128,-1,26
 520 339 520 339 541.5 300.5 c 128,-1,27
 563 262 563 262 563 221 c 0,0,1
359 119 m 1,28,29
 408 153 408 153 408 185.5 c 128,-1,30
 408 218 408 218 388.5 245.5 c 128,-1,31
 369 273 369 273 325 314 c 128,-1,32
 281 355 281 355 262 377 c 1,33,34
 212 342 212 342 212 309.5 c 128,-1,35
 212 277 212 277 231.5 249.5 c 128,-1,36
 251 222 251 222 297 179.5 c 128,-1,37
 343 137 343 137 359 119 c 1,28,29
EndSplineSet
EndChar

StartChar: dieresis
Encoding: 168 168 106
Width: 438
GlyphClass: 2
Flags: W
LayerCount: 2
Fore
SplineSet
38 657 m 128,-1,1
 38 691 38 691 60.5 716 c 128,-1,2
 83 741 83 741 114 741 c 128,-1,3
 145 741 145 741 167.5 716 c 128,-1,4
 190 691 190 691 190 657 c 128,-1,5
 190 623 190 623 167.5 598 c 128,-1,6
 145 573 145 573 114 573 c 128,-1,7
 83 573 83 573 60.5 598 c 128,-1,0
 38 623 38 623 38 657 c 128,-1,1
248 657 m 128,-1,9
 248 691 248 691 270.5 716 c 128,-1,10
 293 741 293 741 324 741 c 128,-1,11
 355 741 355 741 377.5 716 c 128,-1,12
 400 691 400 691 400 657 c 128,-1,13
 400 623 400 623 377.5 598 c 128,-1,14
 355 573 355 573 324 573 c 128,-1,15
 293 573 293 573 270.5 598 c 128,-1,8
 248 623 248 623 248 657 c 128,-1,9
EndSplineSet
EndChar

StartChar: copyright
Encoding: 169 169 107
Width: 850
GlyphClass: 2
Flags: W
LayerCount: 2
Fore
SplineSet
460 785 m 0,0,1
 632 785 632 785 704 700 c 0,2,3
 770 622 770 622 770 502 c 0,4,5
 770 339 770 339 672 223.5 c 128,-1,6
 574 108 574 108 435 108 c 0,7,8
 100 108 100 108 100 700 c 1,9,-1
 114 719 l 1,10,11
 313 785 313 785 460 785 c 0,0,1
666.5 678 m 128,-1,13
 603 745 603 745 465 745 c 128,-1,14
 327 745 327 745 140 685 c 1,15,16
 144 148 144 148 435 148 c 0,17,18
 557 148 557 148 643.5 251.5 c 128,-1,19
 730 355 730 355 730 502 c 0,20,12
 730 611 730 611 666.5 678 c 128,-1,13
366 323 m 1,21,22
 383 320 383 320 434 320 c 128,-1,23
 485 320 485 320 541 341 c 1,24,-1
 563 272 l 1,25,26
 514 256 514 256 457 256 c 0,27,28
 357 256 357 256 309 297 c 1,29,30
 299 346 299 346 299 396 c 0,31,32
 299 496 299 496 338 577.5 c 128,-1,33
 377 659 377 659 427 693 c 1,34,-1
 548 617 l 1,35,36
 465 564 465 564 416 484 c 128,-1,37
 367 404 367 404 366 323 c 1,21,22
EndSplineSet
EndChar

StartChar: ordfeminine
Encoding: 170 170 108
Width: 408
GlyphClass: 2
Flags: W
LayerCount: 2
Fore
SplineSet
111 386 m 0,0,1
 101 386 101 386 96 387 c 1,2,3
 75 401 75 401 62 429 c 128,-1,4
 49 457 49 457 49 491.5 c 128,-1,5
 49 526 49 526 78.5 544 c 128,-1,6
 108 562 108 562 186 562 c 0,7,8
 222 562 222 562 242 559 c 1,9,10
 242 585 242 585 222 600.5 c 128,-1,11
 202 616 202 616 172 616 c 128,-1,12
 142 616 142 616 105 595 c 1,13,-1
 77 688 l 1,14,15
 134 709 134 709 199 709 c 128,-1,16
 264 709 264 709 302.5 678 c 128,-1,17
 341 647 341 647 341 583 c 0,18,19
 341 570 341 570 323 396 c 1,20,-1
 259 391 l 1,21,-1
 251 466 l 1,22,-1
 245 466 l 1,23,24
 224 429 224 429 189 407.5 c 128,-1,25
 154 386 154 386 111 386 c 0,0,1
322 296 m 1,26,-1
 50 269 l 1,27,-1
 60 349 l 1,28,-1
 332 349 l 1,29,-1
 322 296 l 1,26,-1
244 526 m 1,30,31
 230 528 230 528 204.5 528 c 128,-1,32
 179 528 179 528 155 524 c 1,33,34
 148 512 148 512 148 491 c 128,-1,35
 148 470 148 470 156 458 c 1,36,37
 225 471 225 471 244 526 c 1,30,31
EndSplineSet
EndChar

StartChar: guillemotleft
Encoding: 171 171 109
Width: 718
GlyphClass: 2
Flags: W
LayerCount: 2
Fore
SplineSet
70 271 m 1,0,-1
 232 466 l 1,1,-1
 323 421 l 1,2,-1
 218 243 l 1,3,-1
 348 66 l 1,4,-1
 263 21 l 1,5,-1
 77 196 l 1,6,-1
 70 271 l 1,0,-1
517 244 m 1,7,-1
 648 66 l 1,8,-1
 563 21 l 1,9,-1
 377 196 l 1,10,-1
 370 271 l 1,11,-1
 532 466 l 1,12,-1
 623 421 l 1,13,-1
 517 244 l 1,7,-1
EndSplineSet
EndChar

StartChar: logicalnot
Encoding: 172 172 110
Width: 612
GlyphClass: 2
Flags: W
LayerCount: 2
Fore
SplineSet
512 369 m 1,0,-1
 512 90 l 1,1,-1
 413 81 l 1,2,-1
 430 281 l 1,3,-1
 80 259 l 1,4,-1
 90 369 l 1,5,-1
 512 369 l 1,0,-1
EndSplineSet
EndChar

StartChar: registered
Encoding: 174 174 111
Width: 850
GlyphClass: 2
Flags: W
LayerCount: 2
Fore
SplineSet
460 785 m 0,0,1
 632 785 632 785 704 700 c 0,2,3
 770 622 770 622 770 502 c 0,4,5
 770 339 770 339 672 223.5 c 128,-1,6
 574 108 574 108 435 108 c 0,7,8
 100 108 100 108 100 700 c 1,9,-1
 114 719 l 1,10,11
 313 785 313 785 460 785 c 0,0,1
666.5 678 m 128,-1,13
 603 745 603 745 465 745 c 128,-1,14
 327 745 327 745 140 685 c 1,15,16
 144 148 144 148 435 148 c 0,17,18
 557 148 557 148 643.5 251.5 c 128,-1,19
 730 355 730 355 730 502 c 0,20,12
 730 611 730 611 666.5 678 c 128,-1,13
509 461 m 1,21,22
 567 355 567 355 609 273 c 1,23,-1
 564 246 l 1,24,-1
 402 421 l 1,25,-1
 388 418 l 1,26,-1
 373 268 l 1,27,-1
 307 262 l 1,28,-1
 274 649 l 1,29,30
 360 677 360 677 448 677 c 128,-1,31
 536 677 536 677 584 649 c 1,32,33
 595 617 595 617 595 587 c 0,34,35
 595 510 595 510 509 461 c 1,21,22
453 512 m 128,-1,37
 475 542 475 542 475 575.5 c 128,-1,38
 475 609 475 609 438 633 c 1,39,40
 427 633 427 633 410 628 c 1,41,-1
 393 463 l 1,42,36
 431 482 431 482 453 512 c 128,-1,37
EndSplineSet
EndChar

StartChar: macron
Encoding: 175 175 112
Width: 382
GlyphClass: 2
Flags: W
LayerCount: 2
Fore
SplineSet
338 611 m 1,0,-1
 77 584 l 1,1,-1
 84 703 l 1,2,-1
 345 703 l 1,3,-1
 338 611 l 1,0,-1
EndSplineSet
EndChar

StartChar: degree
Encoding: 176 176 113
Width: 390
GlyphClass: 2
Flags: W
LayerCount: 2
Fore
SplineSet
238 634 m 1,0,1
 226 637 226 637 199.5 637 c 128,-1,2
 173 637 173 637 148 619 c 128,-1,3
 123 601 123 601 123 562.5 c 128,-1,4
 123 524 123 524 151 490 c 1,5,6
 167 486 167 486 192 486 c 128,-1,7
 217 486 217 486 241 504 c 128,-1,8
 265 522 265 522 265 560.5 c 128,-1,9
 265 599 265 599 238 634 c 1,0,1
50 562 m 128,-1,11
 50 623 50 623 85 661 c 128,-1,12
 120 699 120 699 195 699 c 128,-1,13
 270 699 270 699 305 661 c 128,-1,14
 340 623 340 623 340 562 c 128,-1,15
 340 501 340 501 305 463 c 128,-1,16
 270 425 270 425 195 425 c 128,-1,17
 120 425 120 425 85 463 c 128,-1,10
 50 501 50 501 50 562 c 128,-1,11
EndSplineSet
EndChar

StartChar: plusminus
Encoding: 177 177 114
Width: 612
GlyphClass: 2
Flags: W
LayerCount: 2
Fore
SplineSet
361 449 m 1,0,-1
 522 449 l 1,1,-1
 512 366 l 1,2,-1
 361 356 l 1,3,-1
 361 178 l 1,4,-1
 278 188 l 1,5,-1
 267 350 l 1,6,-1
 90 339 l 1,7,-1
 100 449 l 1,8,-1
 261 449 l 1,9,-1
 251 610 l 1,10,-1
 361 600 l 1,11,-1
 361 449 l 1,0,-1
512 16 m 1,12,-1
 90 -11 l 1,13,-1
 100 99 l 1,14,-1
 522 99 l 1,15,-1
 512 16 l 1,12,-1
EndSplineSet
EndChar

StartChar: twosuperior
Encoding: 178 178 115
Width: 407
GlyphClass: 2
Flags: W
LayerCount: 2
Fore
SplineSet
58 664 m 1,0,1
 128 704 128 704 204 704 c 128,-1,2
 280 704 280 704 331 672 c 1,3,4
 339 652 339 652 339 626 c 0,5,6
 339 559 339 559 293.5 489 c 128,-1,7
 248 419 248 419 177 370 c 1,8,-1
 177 363 l 1,9,10
 323 379 323 379 342 380 c 1,11,-1
 342 300 l 1,12,-1
 59 300 l 1,13,-1
 55 348 l 1,14,15
 119 378 119 378 164 455 c 128,-1,16
 209 532 209 532 209 597 c 0,17,18
 209 638 209 638 186 652 c 1,19,20
 175 645 175 645 142.5 622.5 c 128,-1,21
 110 600 110 600 94 590 c 1,22,-1
 58 664 l 1,0,1
EndSplineSet
EndChar

StartChar: threesuperior
Encoding: 179 179 116
Width: 404
GlyphClass: 2
Flags: W
LayerCount: 2
Fore
SplineSet
154 487 m 2,0,1
 204 541 204 541 204 588 c 128,-1,2
 204 635 204 635 175 652 c 1,3,4
 159 640 159 640 89 590 c 1,5,-1
 52 664 l 1,6,7
 77 678 77 678 92 685 c 0,8,9
 133 704 133 704 200.5 704 c 128,-1,10
 268 704 268 704 319 672 c 1,11,12
 325 656 325 656 325 639 c 0,13,14
 325 586 325 586 275 533 c 1,15,16
 286 533 286 533 301 528 c 1,17,18
 352 479 352 479 352 402 c 0,19,20
 352 286 352 286 204 286 c 0,21,22
 123 286 123 286 51 327 c 1,23,-1
 86 389 l 1,24,25
 150 347 150 347 231 342 c 1,26,27
 240 376 240 376 240 416 c 128,-1,28
 240 456 240 456 232 478 c 1,29,30
 197 469 197 469 163 447 c 1,31,-1
 143 475 l 1,32,-1
 154 487 l 2,0,1
EndSplineSet
EndChar

StartChar: acute
Encoding: 180 180 117
Width: 438
GlyphClass: 2
Flags: W
LayerCount: 2
Fore
SplineSet
130 631 m 1,0,-1
 308 753 l 1,1,-1
 368 628 l 1,2,-1
 164 563 l 1,3,-1
 130 631 l 1,0,-1
EndSplineSet
EndChar

StartChar: mu
Encoding: 181 181 118
Width: 690
GlyphClass: 2
Flags: W
LayerCount: 2
Fore
SplineSet
416 357 m 0,0,1
 416 419 416 419 406 480 c 1,2,-1
 620 513 l 1,3,-1
 556 -6 l 1,4,-1
 457 -15 l 1,5,-1
 437 175 l 1,6,-1
 430 175 l 1,7,8
 370 14 370 14 252 -16 c 1,9,-1
 252 -209 l 1,10,-1
 164 -229 l 1,11,12
 65 162 65 162 65 492 c 1,13,-1
 252 507 l 1,14,-1
 252 53 l 1,15,16
 331 71 331 71 373.5 151 c 128,-1,17
 416 231 416 231 416 357 c 0,0,1
EndSplineSet
EndChar

StartChar: paragraph
Encoding: 182 182 119
Width: 632
GlyphClass: 2
Flags: W
LayerCount: 2
Fore
SplineSet
231 262 m 0,0,1
 198 262 198 262 174 271 c 1,2,3
 132 299 132 299 106 351.5 c 128,-1,4
 80 404 80 404 80 470 c 0,5,6
 80 592 80 592 128.5 648.5 c 128,-1,7
 177 705 177 705 301 705 c 0,8,9
 369 705 369 705 429.5 682.5 c 128,-1,10
 490 660 490 660 525 624 c 1,11,12
 542 519 542 519 542 417 c 0,13,14
 542 210 542 210 475 40 c 128,-1,15
 408 -130 408 -130 324 -200 c 1,16,-1
 141 -47 l 1,17,18
 239 31 239 31 310 143.5 c 128,-1,19
 381 256 381 256 415 382 c 1,20,-1
 403 390 l 1,21,22
 374 328 374 328 329.5 295 c 128,-1,23
 285 262 285 262 231 262 c 0,0,1
EndSplineSet
EndChar

StartChar: periodcentered
Encoding: 183 183 120
Width: 286
GlyphClass: 2
Flags: W
LayerCount: 2
Fore
SplineSet
50 288 m 128,-1,1
 50 327 50 327 72.5 351.5 c 128,-1,2
 95 376 95 376 143 376 c 128,-1,3
 191 376 191 376 213.5 351.5 c 128,-1,4
 236 327 236 327 236 288 c 128,-1,5
 236 249 236 249 213.5 224.5 c 128,-1,6
 191 200 191 200 143 200 c 128,-1,7
 95 200 95 200 72.5 224.5 c 128,-1,0
 50 249 50 249 50 288 c 128,-1,1
EndSplineSet
EndChar

StartChar: cedilla
Encoding: 184 184 121
Width: 460
GlyphClass: 2
Flags: W
LayerCount: 2
Fore
SplineSet
158 -91 m 1,0,1
 218 -117 218 -117 254.5 -117 c 128,-1,2
 291 -117 291 -117 323 -104 c 1,3,4
 296 -48 296 -48 214 -6 c 1,5,-1
 242 44 l 1,6,7
 347 -14 347 -14 372 -60 c 0,8,9
 384 -83 384 -83 384 -108 c 0,10,11
 384 -160 384 -160 336.5 -184 c 128,-1,12
 289 -208 289 -208 234.5 -208 c 128,-1,13
 180 -208 180 -208 124 -187 c 1,14,-1
 158 -91 l 1,0,1
EndSplineSet
EndChar

StartChar: onesuperior
Encoding: 185 185 122
Width: 344
GlyphClass: 2
Flags: W
LayerCount: 2
Fore
SplineSet
234 705 m 1,0,-1
 264 693 l 1,1,-1
 222 298 l 1,2,-1
 145 291 l 1,3,-1
 128 572 l 1,4,5
 121 567 121 567 95.5 549 c 128,-1,6
 70 531 70 531 60 523 c 1,7,-1
 23 598 l 1,8,-1
 234 705 l 1,0,-1
EndSplineSet
EndChar

StartChar: ordmasculine
Encoding: 186 186 123
Width: 413
GlyphClass: 2
Flags: W
LayerCount: 2
Fore
SplineSet
353 525 m 0,0,1
 353 451 353 451 323.5 418.5 c 128,-1,2
 294 386 294 386 207 386 c 128,-1,3
 120 386 120 386 74 427 c 1,4,5
 64 476 64 476 64 525 c 0,6,7
 64 625 64 625 101 703.5 c 128,-1,8
 138 782 138 782 188 814 c 1,9,-1
 191 815 l 1,10,11
 261 786 261 786 307 707.5 c 128,-1,12
 353 629 353 629 353 525 c 0,0,1
276 552 m 0,13,14
 276 641 276 641 247 704 c 1,15,16
 193 651 193 651 162 584 c 128,-1,17
 131 517 131 517 130 452 c 1,18,19
 144 449 144 449 186.5 449 c 128,-1,20
 229 449 229 449 265 462 c 1,21,22
 276 510 276 510 276 552 c 0,13,14
332 296 m 1,23,-1
 60 269 l 1,24,-1
 70 349 l 1,25,-1
 342 349 l 1,26,-1
 332 296 l 1,23,-1
EndSplineSet
EndChar

StartChar: guillemotright
Encoding: 187 187 124
Width: 718
GlyphClass: 2
Flags: W
LayerCount: 2
Fore
SplineSet
648 216 m 1,0,-1
 486 21 l 1,1,-1
 395 66 l 1,2,-1
 500 244 l 1,3,-1
 370 421 l 1,4,-1
 455 466 l 1,5,-1
 641 291 l 1,6,-1
 648 216 l 1,0,-1
201 243 m 1,7,-1
 70 421 l 1,8,-1
 155 466 l 1,9,-1
 341 291 l 1,10,-1
 348 216 l 1,11,-1
 186 21 l 1,12,-1
 95 66 l 1,13,-1
 201 243 l 1,7,-1
EndSplineSet
EndChar

StartChar: onequarter
Encoding: 188 188 125
Width: 795
GlyphClass: 2
Flags: W
LayerCount: 2
Fore
SplineSet
233 -68 m 1,0,-1
 457 739 l 1,1,-1
 549 718 l 1,2,-1
 283 -81 l 1,3,-1
 233 -68 l 1,0,-1
254 685 m 1,4,-1
 284 673 l 1,5,-1
 242 278 l 1,6,-1
 165 271 l 1,7,-1
 148 552 l 1,8,9
 141 547 141 547 115.5 529 c 128,-1,10
 90 511 90 511 80 503 c 1,11,-1
 43 578 l 1,12,-1
 254 685 l 1,4,-1
540 121 m 1,13,14
 556 119 556 119 587 119 c 128,-1,15
 618 119 618 119 643 122 c 1,16,-1
 638 212 l 1,17,-1
 754 219 l 1,18,-1
 730 -2 l 1,19,-1
 653 -10 l 1,20,-1
 648 54 l 1,21,22
 526 54 526 54 480 91 c 1,23,24
 468 139 468 139 468 178 c 0,25,26
 468 257 468 257 506.5 322.5 c 128,-1,27
 545 388 545 388 596 413 c 1,28,-1
 715 334 l 1,29,30
 643 299 643 299 592 239 c 128,-1,31
 541 179 541 179 540 121 c 1,13,14
EndSplineSet
EndChar

StartChar: onehalf
Encoding: 189 189 126
Width: 795
GlyphClass: 2
Flags: W
LayerCount: 2
Fore
SplineSet
206 -68 m 1,0,-1
 430 739 l 1,1,-1
 522 718 l 1,2,-1
 256 -81 l 1,3,-1
 206 -68 l 1,0,-1
254 685 m 1,4,-1
 284 673 l 1,5,-1
 242 278 l 1,6,-1
 165 271 l 1,7,-1
 148 552 l 1,8,9
 141 547 141 547 115.5 529 c 128,-1,10
 90 511 90 511 80 503 c 1,11,-1
 43 578 l 1,12,-1
 254 685 l 1,4,-1
457 364 m 1,13,14
 527 404 527 404 603 404 c 128,-1,15
 679 404 679 404 730 372 c 1,16,17
 738 352 738 352 738 326 c 0,18,19
 738 259 738 259 692.5 189 c 128,-1,20
 647 119 647 119 576 70 c 1,21,-1
 576 63 l 1,22,23
 722 79 722 79 741 80 c 1,24,-1
 741 0 l 1,25,-1
 458 0 l 1,26,-1
 454 48 l 1,27,28
 518 78 518 78 563 155 c 128,-1,29
 608 232 608 232 608 297 c 0,30,31
 608 338 608 338 585 352 c 1,32,33
 574 345 574 345 541.5 322.5 c 128,-1,34
 509 300 509 300 493 290 c 1,35,-1
 457 364 l 1,13,14
EndSplineSet
EndChar

StartChar: threequarters
Encoding: 190 190 127
Width: 795
GlyphClass: 2
Flags: W
LayerCount: 2
Fore
SplineSet
261 -68 m 1,0,-1
 485 739 l 1,1,-1
 577 718 l 1,2,-1
 311 -81 l 1,3,-1
 261 -68 l 1,0,-1
134 467 m 2,4,5
 184 521 184 521 184 568 c 128,-1,6
 184 615 184 615 155 632 c 1,7,8
 139 620 139 620 69 570 c 1,9,-1
 32 644 l 1,10,11
 57 658 57 658 72 665 c 0,12,13
 113 684 113 684 180.5 684 c 128,-1,14
 248 684 248 684 299 652 c 1,15,16
 305 636 305 636 305 619 c 0,17,18
 305 566 305 566 255 513 c 1,19,20
 266 513 266 513 281 508 c 1,21,22
 332 459 332 459 332 382 c 0,23,24
 332 266 332 266 184 266 c 0,25,26
 103 266 103 266 31 307 c 1,27,-1
 66 369 l 1,28,29
 130 327 130 327 211 322 c 1,30,31
 220 356 220 356 220 396 c 128,-1,32
 220 436 220 436 212 458 c 1,33,34
 177 449 177 449 143 427 c 1,35,-1
 123 455 l 1,36,-1
 134 467 l 2,4,5
540 121 m 1,37,38
 556 119 556 119 587 119 c 128,-1,39
 618 119 618 119 643 122 c 1,40,-1
 638 212 l 1,41,-1
 754 219 l 1,42,-1
 730 -2 l 1,43,-1
 653 -10 l 1,44,-1
 648 54 l 1,45,46
 526 54 526 54 480 91 c 1,47,48
 468 139 468 139 468 178 c 0,49,50
 468 257 468 257 506.5 322.5 c 128,-1,51
 545 388 545 388 596 413 c 1,52,-1
 715 334 l 1,53,54
 643 299 643 299 592 239 c 128,-1,55
 541 179 541 179 540 121 c 1,37,38
EndSplineSet
EndChar

StartChar: questiondown
Encoding: 191 191 128
Width: 407
GlyphClass: 2
Flags: W
LayerCount: 2
Fore
SplineSet
307 419 m 128,-1,1
 307 381 307 381 279.5 353.5 c 128,-1,2
 252 326 252 326 214 326 c 128,-1,3
 176 326 176 326 148.5 353.5 c 128,-1,4
 121 381 121 381 121 419 c 128,-1,5
 121 457 121 457 148.5 484.5 c 128,-1,6
 176 512 176 512 214 512 c 128,-1,7
 252 512 252 512 279.5 484.5 c 128,-1,0
 307 457 307 457 307 419 c 128,-1,1
149 -28 m 1,8,9
 256 -28 256 -28 330 6 c 1,10,-1
 365 -167 l 1,11,12
 303 -186 303 -186 234 -186 c 128,-1,13
 165 -186 165 -186 112.5 -172.5 c 128,-1,14
 60 -159 60 -159 34 -138 c 1,15,16
 20 -82 20 -82 20 -27 c 0,17,18
 20 72 20 72 82.5 151 c 128,-1,19
 145 230 145 230 219 267 c 1,20,-1
 276 197 l 1,21,22
 202 147 202 147 175.5 91.5 c 128,-1,23
 149 36 149 36 149 -28 c 1,8,9
EndSplineSet
EndChar

StartChar: Agrave
Encoding: 192 192 129
Width: 639
GlyphClass: 2
Flags: W
LayerCount: 2
Fore
SplineSet
30 0 m 1,0,-1
 217 665 l 1,1,-1
 459 650 l 1,2,-1
 589 0 l 1,3,-1
 499 -15 l 1,4,-1
 430 151 l 1,5,-1
 164 129 l 1,6,-1
 130 -15 l 1,7,-1
 30 0 l 1,0,-1
261 539 m 1,8,-1
 182 206 l 1,9,-1
 408 204 l 1,10,-1
 269 539 l 1,11,-1
 261 539 l 1,8,-1
260 903 m 1,12,-1
 438 781 l 1,13,-1
 404 713 l 1,14,-1
 200 778 l 1,15,-1
 260 903 l 1,12,-1
EndSplineSet
EndChar

StartChar: Aacute
Encoding: 193 193 130
Width: 639
GlyphClass: 2
Flags: W
LayerCount: 2
Fore
SplineSet
30 0 m 1,0,-1
 217 665 l 1,1,-1
 459 650 l 1,2,-1
 589 0 l 1,3,-1
 499 -15 l 1,4,-1
 430 151 l 1,5,-1
 164 129 l 1,6,-1
 130 -15 l 1,7,-1
 30 0 l 1,0,-1
261 539 m 1,8,-1
 182 206 l 1,9,-1
 408 204 l 1,10,-1
 269 539 l 1,11,-1
 261 539 l 1,8,-1
210 781 m 1,12,-1
 388 903 l 1,13,-1
 448 778 l 1,14,-1
 244 713 l 1,15,-1
 210 781 l 1,12,-1
EndSplineSet
EndChar

StartChar: Acircumflex
Encoding: 194 194 131
Width: 639
GlyphClass: 2
Flags: W
LayerCount: 2
Fore
SplineSet
30 0 m 1,0,-1
 217 665 l 1,1,-1
 459 650 l 1,2,-1
 589 0 l 1,3,-1
 499 -15 l 1,4,-1
 430 151 l 1,5,-1
 164 129 l 1,6,-1
 130 -15 l 1,7,-1
 30 0 l 1,0,-1
261 539 m 1,8,-1
 182 206 l 1,9,-1
 408 204 l 1,10,-1
 269 539 l 1,11,-1
 261 539 l 1,8,-1
168 764 m 1,12,-1
 284 901 l 1,13,-1
 471 809 l 1,14,-1
 396 719 l 1,15,-1
 320 781 l 1,16,-1
 202 716 l 1,17,-1
 168 764 l 1,12,-1
EndSplineSet
EndChar

StartChar: Atilde
Encoding: 195 195 132
Width: 639
GlyphClass: 2
Flags: W
LayerCount: 2
Fore
SplineSet
30 0 m 1,0,-1
 217 665 l 1,1,-1
 459 650 l 1,2,-1
 589 0 l 1,3,-1
 499 -15 l 1,4,-1
 430 151 l 1,5,-1
 164 129 l 1,6,-1
 130 -15 l 1,7,-1
 30 0 l 1,0,-1
261 539 m 1,8,-1
 182 206 l 1,9,-1
 408 204 l 1,10,-1
 269 539 l 1,11,-1
 261 539 l 1,8,-1
383 847 m 0,12,13
 406 847 406 847 426 892 c 1,14,-1
 486 876 l 1,15,16
 468 735 468 735 401 735 c 0,17,18
 385 735 385 735 349.5 748 c 128,-1,19
 314 761 314 761 296 761 c 0,20,21
 273 761 273 761 253 716 c 1,22,-1
 193 732 l 1,23,24
 211 873 211 873 278 873 c 0,25,26
 294 873 294 873 329.5 860 c 128,-1,27
 365 847 365 847 383 847 c 0,12,13
EndSplineSet
EndChar

StartChar: Adieresis
Encoding: 196 196 133
Width: 639
GlyphClass: 2
Flags: W
LayerCount: 2
Fore
SplineSet
30 0 m 1,0,-1
 217 665 l 1,1,-1
 459 650 l 1,2,-1
 589 0 l 1,3,-1
 499 -15 l 1,4,-1
 430 151 l 1,5,-1
 164 129 l 1,6,-1
 130 -15 l 1,7,-1
 30 0 l 1,0,-1
261 539 m 1,8,-1
 182 206 l 1,9,-1
 408 204 l 1,10,-1
 269 539 l 1,11,-1
 261 539 l 1,8,-1
138 807 m 128,-1,13
 138 841 138 841 160.5 866 c 128,-1,14
 183 891 183 891 214 891 c 128,-1,15
 245 891 245 891 267.5 866 c 128,-1,16
 290 841 290 841 290 807 c 128,-1,17
 290 773 290 773 267.5 748 c 128,-1,18
 245 723 245 723 214 723 c 128,-1,19
 183 723 183 723 160.5 748 c 128,-1,12
 138 773 138 773 138 807 c 128,-1,13
348 807 m 128,-1,21
 348 841 348 841 370.5 866 c 128,-1,22
 393 891 393 891 424 891 c 128,-1,23
 455 891 455 891 477.5 866 c 128,-1,24
 500 841 500 841 500 807 c 128,-1,25
 500 773 500 773 477.5 748 c 128,-1,26
 455 723 455 723 424 723 c 128,-1,27
 393 723 393 723 370.5 748 c 128,-1,20
 348 773 348 773 348 807 c 128,-1,21
EndSplineSet
EndChar

StartChar: Aring
Encoding: 197 197 134
Width: 639
GlyphClass: 2
Flags: W
LayerCount: 2
Fore
SplineSet
30 0 m 1,0,-1
 217 665 l 1,1,-1
 459 650 l 1,2,-1
 589 0 l 1,3,-1
 499 -15 l 1,4,-1
 430 151 l 1,5,-1
 164 129 l 1,6,-1
 130 -15 l 1,7,-1
 30 0 l 1,0,-1
261 539 m 1,8,-1
 182 206 l 1,9,-1
 408 204 l 1,10,-1
 269 539 l 1,11,-1
 261 539 l 1,8,-1
411 897 m 1,12,13
 437 860 437 860 437 806 c 128,-1,14
 437 752 437 752 405.5 719.5 c 128,-1,15
 374 687 374 687 322 687 c 128,-1,16
 270 687 270 687 224 705 c 1,17,18
 198 742 198 742 198 796 c 128,-1,19
 198 850 198 850 229.5 882.5 c 128,-1,20
 261 915 261 915 312.5 915 c 128,-1,21
 364 915 364 915 411 897 c 1,12,13
361 814 m 0,22,23
 361 840 361 840 354 859 c 1,24,25
 344 867 344 867 317 867 c 1,26,27
 273 846 273 846 273 787 c 0,28,29
 273 763 273 763 280 742 c 1,30,31
 290 735 290 735 317 735 c 1,32,33
 361 756 361 756 361 814 c 0,22,23
EndSplineSet
EndChar

StartChar: AE
Encoding: 198 198 135
Width: 880
GlyphClass: 2
Flags: W
LayerCount: 2
Fore
SplineSet
787 277 m 1,0,-1
 529 296 l 1,1,-1
 575 69 l 1,2,-1
 810 103 l 1,3,-1
 806 0 l 1,4,-1
 496 -9 l 1,5,-1
 430 151 l 1,6,-1
 164 129 l 1,7,-1
 130 -15 l 1,8,-1
 30 0 l 1,9,-1
 217 665 l 1,10,-1
 428 652 l 1,11,-1
 809 664 l 1,12,-1
 806 597 l 1,13,-1
 477 558 l 1,14,-1
 516 364 l 1,15,-1
 782 367 l 1,16,-1
 787 277 l 1,0,-1
264 552 m 1,17,-1
 182 206 l 1,18,-1
 408 204 l 1,19,-1
 264 552 l 1,17,-1
EndSplineSet
EndChar

StartChar: Ccedilla
Encoding: 199 199 136
Width: 502
GlyphClass: 2
Flags: W
LayerCount: 2
Fore
SplineSet
267 73 m 0,0,1
 214 73 214 73 171 80 c 1,2,3
 171 218 171 218 252 354 c 128,-1,4
 333 490 333 490 471 578 c 1,5,-1
 278 700 l 1,6,7
 196 646 196 646 133 510 c 128,-1,8
 70 374 70 374 70 207 c 0,9,10
 70 125 70 125 87 41 c 1,11,12
 122 12 122 12 187.5 -6 c 128,-1,13
 253 -24 253 -24 337 -24 c 128,-1,14
 421 -24 421 -24 502 1 c 1,15,-1
 468 109 l 1,16,17
 372 73 372 73 267 73 c 0,0,1
155 -91 m 1,18,19
 215 -117 215 -117 251.5 -117 c 128,-1,20
 288 -117 288 -117 320 -104 c 1,21,22
 293 -48 293 -48 211 -6 c 1,23,-1
 239 44 l 1,24,25
 344 -14 344 -14 369 -60 c 0,26,27
 381 -83 381 -83 381 -108 c 0,28,29
 381 -160 381 -160 333.5 -184 c 128,-1,30
 286 -208 286 -208 231 -208 c 128,-1,31
 176 -208 176 -208 121 -187 c 1,32,-1
 155 -91 l 1,18,19
EndSplineSet
EndChar

StartChar: Egrave
Encoding: 200 200 137
Width: 605
GlyphClass: 2
Flags: W
LayerCount: 2
Fore
SplineSet
531 0 m 1,0,-1
 140 -9 l 1,1,-1
 93 650 l 1,2,-1
 534 664 l 1,3,-1
 531 597 l 1,4,-1
 320 572 l 1,5,-1
 294 365 l 1,6,-1
 507 367 l 1,7,-1
 512 277 l 1,8,-1
 286 294 l 1,9,-1
 259 71 l 1,10,-1
 535 103 l 1,11,-1
 531 0 l 1,0,-1
243 903 m 1,12,-1
 421 781 l 1,13,-1
 387 713 l 1,14,-1
 183 778 l 1,15,-1
 243 903 l 1,12,-1
EndSplineSet
EndChar

StartChar: Eacute
Encoding: 201 201 138
Width: 605
GlyphClass: 2
Flags: W
LayerCount: 2
Fore
SplineSet
531 0 m 1,0,-1
 140 -9 l 1,1,-1
 93 650 l 1,2,-1
 534 664 l 1,3,-1
 531 597 l 1,4,-1
 320 572 l 1,5,-1
 294 365 l 1,6,-1
 507 367 l 1,7,-1
 512 277 l 1,8,-1
 286 294 l 1,9,-1
 259 71 l 1,10,-1
 535 103 l 1,11,-1
 531 0 l 1,0,-1
193 781 m 1,12,-1
 371 903 l 1,13,-1
 431 778 l 1,14,-1
 227 713 l 1,15,-1
 193 781 l 1,12,-1
EndSplineSet
EndChar

StartChar: Ecircumflex
Encoding: 202 202 139
Width: 605
GlyphClass: 2
Flags: W
LayerCount: 2
Fore
SplineSet
531 0 m 1,0,-1
 140 -9 l 1,1,-1
 93 650 l 1,2,-1
 534 664 l 1,3,-1
 531 597 l 1,4,-1
 320 572 l 1,5,-1
 294 365 l 1,6,-1
 507 367 l 1,7,-1
 512 277 l 1,8,-1
 286 294 l 1,9,-1
 259 71 l 1,10,-1
 535 103 l 1,11,-1
 531 0 l 1,0,-1
151 764 m 1,12,-1
 267 901 l 1,13,-1
 454 809 l 1,14,-1
 379 719 l 1,15,-1
 303 781 l 1,16,-1
 185 716 l 1,17,-1
 151 764 l 1,12,-1
EndSplineSet
EndChar

StartChar: Edieresis
Encoding: 203 203 140
Width: 605
GlyphClass: 2
Flags: W
LayerCount: 2
Fore
SplineSet
531 0 m 1,0,-1
 140 -9 l 1,1,-1
 93 650 l 1,2,-1
 534 664 l 1,3,-1
 531 597 l 1,4,-1
 320 572 l 1,5,-1
 294 365 l 1,6,-1
 507 367 l 1,7,-1
 512 277 l 1,8,-1
 286 294 l 1,9,-1
 259 71 l 1,10,-1
 535 103 l 1,11,-1
 531 0 l 1,0,-1
121 807 m 128,-1,13
 121 841 121 841 143.5 866 c 128,-1,14
 166 891 166 891 197 891 c 128,-1,15
 228 891 228 891 250.5 866 c 128,-1,16
 273 841 273 841 273 807 c 128,-1,17
 273 773 273 773 250.5 748 c 128,-1,18
 228 723 228 723 197 723 c 128,-1,19
 166 723 166 723 143.5 748 c 128,-1,12
 121 773 121 773 121 807 c 128,-1,13
331 807 m 128,-1,21
 331 841 331 841 353.5 866 c 128,-1,22
 376 891 376 891 407 891 c 128,-1,23
 438 891 438 891 460.5 866 c 128,-1,24
 483 841 483 841 483 807 c 128,-1,25
 483 773 483 773 460.5 748 c 128,-1,26
 438 723 438 723 407 723 c 128,-1,27
 376 723 376 723 353.5 748 c 128,-1,20
 331 773 331 773 331 807 c 128,-1,21
EndSplineSet
EndChar

StartChar: Igrave
Encoding: 204 204 141
Width: 431
GlyphClass: 2
Flags: W
LayerCount: 2
Fore
SplineSet
155 -14 m 1,0,-1
 98 650 l 1,1,-1
 336 665 l 1,2,-1
 265 -4 l 1,3,-1
 155 -14 l 1,0,-1
157 903 m 1,4,-1
 335 781 l 1,5,-1
 301 713 l 1,6,-1
 97 778 l 1,7,-1
 157 903 l 1,4,-1
EndSplineSet
EndChar

StartChar: Iacute
Encoding: 205 205 142
Width: 431
GlyphClass: 2
Flags: W
LayerCount: 2
Fore
SplineSet
155 -14 m 1,0,-1
 98 650 l 1,1,-1
 336 665 l 1,2,-1
 265 -4 l 1,3,-1
 155 -14 l 1,0,-1
107 781 m 1,4,-1
 285 903 l 1,5,-1
 345 778 l 1,6,-1
 141 713 l 1,7,-1
 107 781 l 1,4,-1
EndSplineSet
EndChar

StartChar: Icircumflex
Encoding: 206 206 143
Width: 431
GlyphClass: 2
Flags: W
LayerCount: 2
Fore
SplineSet
155 -14 m 1,0,-1
 98 650 l 1,1,-1
 336 665 l 1,2,-1
 265 -4 l 1,3,-1
 155 -14 l 1,0,-1
64 764 m 1,4,-1
 180 901 l 1,5,-1
 367 809 l 1,6,-1
 292 719 l 1,7,-1
 216 781 l 1,8,-1
 98 716 l 1,9,-1
 64 764 l 1,4,-1
EndSplineSet
EndChar

StartChar: Idieresis
Encoding: 207 207 144
Width: 431
GlyphClass: 2
Flags: W
LayerCount: 2
Fore
SplineSet
155 -14 m 1,0,-1
 98 650 l 1,1,-1
 336 665 l 1,2,-1
 265 -4 l 1,3,-1
 155 -14 l 1,0,-1
35 807 m 128,-1,5
 35 841 35 841 57.5 866 c 128,-1,6
 80 891 80 891 111 891 c 128,-1,7
 142 891 142 891 164.5 866 c 128,-1,8
 187 841 187 841 187 807 c 128,-1,9
 187 773 187 773 164.5 748 c 128,-1,10
 142 723 142 723 111 723 c 128,-1,11
 80 723 80 723 57.5 748 c 128,-1,4
 35 773 35 773 35 807 c 128,-1,5
245 807 m 128,-1,13
 245 841 245 841 267.5 866 c 128,-1,14
 290 891 290 891 321 891 c 128,-1,15
 352 891 352 891 374.5 866 c 128,-1,16
 397 841 397 841 397 807 c 128,-1,17
 397 773 397 773 374.5 748 c 128,-1,18
 352 723 352 723 321 723 c 128,-1,19
 290 723 290 723 267.5 748 c 128,-1,12
 245 773 245 773 245 807 c 128,-1,13
EndSplineSet
EndChar

StartChar: Eth
Encoding: 208 208 145
Width: 654
GlyphClass: 2
Flags: W
LayerCount: 2
Fore
SplineSet
98 630 m 1,0,1
 245 677 245 677 376.5 677 c 128,-1,2
 508 677 508 677 591 637 c 1,3,4
 624 556 624 556 624 468 c 0,5,6
 624 349 624 349 566.5 241 c 128,-1,7
 509 133 509 133 399.5 61.5 c 128,-1,8
 290 -10 290 -10 155 -14 c 1,9,-1
 98 630 l 1,0,1
446 400 m 0,10,11
 446 473 446 473 424.5 530 c 128,-1,12
 403 587 403 587 363 610 c 1,13,14
 345 610 345 610 319 603 c 1,15,-1
 264 70 l 1,16,17
 354 107 354 107 400 199.5 c 128,-1,18
 446 292 446 292 446 400 c 0,10,11
392 316 m 1,19,-1
 20 289 l 1,20,-1
 30 369 l 1,21,-1
 402 369 l 1,22,-1
 392 316 l 1,19,-1
EndSplineSet
EndChar

StartChar: Ntilde
Encoding: 209 209 146
Width: 692
GlyphClass: 2
Flags: W
LayerCount: 2
Fore
SplineSet
642 660 m 1,0,-1
 599 0 l 1,1,-1
 509 -15 l 1,2,-1
 185 521 l 1,3,-1
 177 521 l 1,4,-1
 180 0 l 1,5,-1
 80 -5 l 1,6,-1
 107 650 l 1,7,-1
 349 665 l 1,8,-1
 524 166 l 1,9,-1
 532 166 l 1,10,-1
 542 655 l 1,11,-1
 642 660 l 1,0,-1
429 847 m 0,12,13
 452 847 452 847 472 892 c 1,14,-1
 532 876 l 1,15,16
 514 735 514 735 447 735 c 0,17,18
 431 735 431 735 395.5 748 c 128,-1,19
 360 761 360 761 342 761 c 0,20,21
 319 761 319 761 299 716 c 1,22,-1
 239 732 l 1,23,24
 257 873 257 873 324 873 c 0,25,26
 340 873 340 873 375.5 860 c 128,-1,27
 411 847 411 847 429 847 c 0,12,13
EndSplineSet
EndChar

StartChar: Ograve
Encoding: 210 210 147
Width: 589
GlyphClass: 2
Flags: W
LayerCount: 2
Fore
SplineSet
539 207 m 0,0,1
 539 146 539 146 529 105.5 c 128,-1,2
 519 65 519 65 493 34 c 0,3,4
 443 -24 443 -24 299.5 -24 c 128,-1,5
 156 -24 156 -24 77 41 c 1,6,7
 60 125 60 125 60 207 c 0,8,9
 60 373 60 373 122.5 504 c 128,-1,10
 185 635 185 635 268 690 c 1,11,12
 385 642 385 642 462 510.5 c 128,-1,13
 539 379 539 379 539 207 c 0,0,1
418 252 m 0,14,15
 418 406 418 406 367 516 c 1,16,17
 270 427 270 427 215.5 310 c 128,-1,18
 161 193 161 193 161 80 c 1,19,20
 195 73 195 73 242 73 c 0,21,22
 334 73 334 73 400 96 c 1,23,24
 418 174 418 174 418 252 c 0,14,15
235 903 m 1,25,-1
 413 781 l 1,26,-1
 379 713 l 1,27,-1
 175 778 l 1,28,-1
 235 903 l 1,25,-1
EndSplineSet
EndChar

StartChar: Oacute
Encoding: 211 211 148
Width: 589
GlyphClass: 2
Flags: W
LayerCount: 2
Fore
SplineSet
539 207 m 0,0,1
 539 146 539 146 529 105.5 c 128,-1,2
 519 65 519 65 493 34 c 0,3,4
 443 -24 443 -24 299.5 -24 c 128,-1,5
 156 -24 156 -24 77 41 c 1,6,7
 60 125 60 125 60 207 c 0,8,9
 60 373 60 373 122.5 504 c 128,-1,10
 185 635 185 635 268 690 c 1,11,12
 385 642 385 642 462 510.5 c 128,-1,13
 539 379 539 379 539 207 c 0,0,1
418 252 m 0,14,15
 418 406 418 406 367 516 c 1,16,17
 270 427 270 427 215.5 310 c 128,-1,18
 161 193 161 193 161 80 c 1,19,20
 195 73 195 73 242 73 c 0,21,22
 334 73 334 73 400 96 c 1,23,24
 418 174 418 174 418 252 c 0,14,15
185 781 m 1,25,-1
 363 903 l 1,26,-1
 423 778 l 1,27,-1
 219 713 l 1,28,-1
 185 781 l 1,25,-1
EndSplineSet
EndChar

StartChar: Ocircumflex
Encoding: 212 212 149
Width: 589
GlyphClass: 2
Flags: W
LayerCount: 2
Fore
SplineSet
539 207 m 0,0,1
 539 146 539 146 529 105.5 c 128,-1,2
 519 65 519 65 493 34 c 0,3,4
 443 -24 443 -24 299.5 -24 c 128,-1,5
 156 -24 156 -24 77 41 c 1,6,7
 60 125 60 125 60 207 c 0,8,9
 60 373 60 373 122.5 504 c 128,-1,10
 185 635 185 635 268 690 c 1,11,12
 385 642 385 642 462 510.5 c 128,-1,13
 539 379 539 379 539 207 c 0,0,1
418 252 m 0,14,15
 418 406 418 406 367 516 c 1,16,17
 270 427 270 427 215.5 310 c 128,-1,18
 161 193 161 193 161 80 c 1,19,20
 195 73 195 73 242 73 c 0,21,22
 334 73 334 73 400 96 c 1,23,24
 418 174 418 174 418 252 c 0,14,15
143 764 m 1,25,-1
 259 901 l 1,26,-1
 446 809 l 1,27,-1
 371 719 l 1,28,-1
 295 781 l 1,29,-1
 177 716 l 1,30,-1
 143 764 l 1,25,-1
EndSplineSet
EndChar

StartChar: Otilde
Encoding: 213 213 150
Width: 589
GlyphClass: 2
Flags: W
LayerCount: 2
Fore
SplineSet
539 207 m 0,0,1
 539 146 539 146 529 105.5 c 128,-1,2
 519 65 519 65 493 34 c 0,3,4
 443 -24 443 -24 299.5 -24 c 128,-1,5
 156 -24 156 -24 77 41 c 1,6,7
 60 125 60 125 60 207 c 0,8,9
 60 373 60 373 122.5 504 c 128,-1,10
 185 635 185 635 268 690 c 1,11,12
 385 642 385 642 462 510.5 c 128,-1,13
 539 379 539 379 539 207 c 0,0,1
418 252 m 0,14,15
 418 406 418 406 367 516 c 1,16,17
 270 427 270 427 215.5 310 c 128,-1,18
 161 193 161 193 161 80 c 1,19,20
 195 73 195 73 242 73 c 0,21,22
 334 73 334 73 400 96 c 1,23,24
 418 174 418 174 418 252 c 0,14,15
348 847 m 0,25,26
 371 847 371 847 391 892 c 1,27,-1
 451 876 l 1,28,29
 433 735 433 735 366 735 c 0,30,31
 350 735 350 735 314.5 748 c 128,-1,32
 279 761 279 761 261 761 c 0,33,34
 238 761 238 761 218 716 c 1,35,-1
 158 732 l 1,36,37
 176 873 176 873 243 873 c 0,38,39
 259 873 259 873 294.5 860 c 128,-1,40
 330 847 330 847 348 847 c 0,25,26
EndSplineSet
EndChar

StartChar: Odieresis
Encoding: 214 214 151
Width: 589
GlyphClass: 2
Flags: W
LayerCount: 2
Fore
SplineSet
539 207 m 0,0,1
 539 146 539 146 529 105.5 c 128,-1,2
 519 65 519 65 493 34 c 0,3,4
 443 -24 443 -24 299.5 -24 c 128,-1,5
 156 -24 156 -24 77 41 c 1,6,7
 60 125 60 125 60 207 c 0,8,9
 60 373 60 373 122.5 504 c 128,-1,10
 185 635 185 635 268 690 c 1,11,12
 385 642 385 642 462 510.5 c 128,-1,13
 539 379 539 379 539 207 c 0,0,1
418 252 m 0,14,15
 418 406 418 406 367 516 c 1,16,17
 270 427 270 427 215.5 310 c 128,-1,18
 161 193 161 193 161 80 c 1,19,20
 195 73 195 73 242 73 c 0,21,22
 334 73 334 73 400 96 c 1,23,24
 418 174 418 174 418 252 c 0,14,15
113 807 m 128,-1,26
 113 841 113 841 135.5 866 c 128,-1,27
 158 891 158 891 189 891 c 128,-1,28
 220 891 220 891 242.5 866 c 128,-1,29
 265 841 265 841 265 807 c 128,-1,30
 265 773 265 773 242.5 748 c 128,-1,31
 220 723 220 723 189 723 c 128,-1,32
 158 723 158 723 135.5 748 c 128,-1,25
 113 773 113 773 113 807 c 128,-1,26
323 807 m 128,-1,34
 323 841 323 841 345.5 866 c 128,-1,35
 368 891 368 891 399 891 c 128,-1,36
 430 891 430 891 452.5 866 c 128,-1,37
 475 841 475 841 475 807 c 128,-1,38
 475 773 475 773 452.5 748 c 128,-1,39
 430 723 430 723 399 723 c 128,-1,40
 368 723 368 723 345.5 748 c 128,-1,33
 323 773 323 773 323 807 c 128,-1,34
EndSplineSet
EndChar

StartChar: multiply
Encoding: 215 215 152
Width: 612
GlyphClass: 2
Flags: W
LayerCount: 2
Fore
SplineSet
460 120 m 1,0,-1
 309 255 l 1,1,-1
 164 94 l 1,2,-1
 93 179 l 1,3,-1
 235 321 l 1,4,-1
 86 456 l 1,5,-1
 171 527 l 1,6,-1
 306 392 l 1,7,-1
 448 534 l 1,8,-1
 500 468 l 1,9,-1
 372 326 l 1,10,-1
 526 172 l 1,11,-1
 460 120 l 1,0,-1
EndSplineSet
EndChar

StartChar: Oslash
Encoding: 216 216 153
Width: 589
GlyphClass: 2
Flags: W
LayerCount: 2
Fore
SplineSet
471 719 m 1,0,-1
 242 -126 l 1,1,-1
 176 -111 l 1,2,-1
 405 734 l 1,3,-1
 471 719 l 1,0,-1
539 207 m 0,4,5
 539 379 539 379 462 510.5 c 128,-1,6
 385 642 385 642 268 690 c 1,7,8
 185 635 185 635 122.5 504 c 128,-1,9
 60 373 60 373 60 207 c 0,10,11
 60 125 60 125 77 41 c 1,12,13
 156 -24 156 -24 299.5 -24 c 128,-1,14
 443 -24 443 -24 493 34 c 0,15,16
 519 65 519 65 529 105.5 c 128,-1,17
 539 146 539 146 539 207 c 0,4,5
418 252 m 0,18,19
 418 174 418 174 400 96 c 1,20,21
 334 73 334 73 242 73 c 0,22,23
 195 73 195 73 161 80 c 1,24,25
 161 193 161 193 215.5 310 c 128,-1,26
 270 427 270 427 367 516 c 1,27,28
 418 406 418 406 418 252 c 0,18,19
EndSplineSet
EndChar

StartChar: Ugrave
Encoding: 217 217 154
Width: 696
GlyphClass: 2
Flags: W
LayerCount: 2
Fore
SplineSet
342 -24 m 0,0,1
 253 -24 253 -24 194.5 31 c 128,-1,2
 136 86 136 86 123 207 c 2,3,-1
 75 650 l 1,4,-1
 313 665 l 1,5,6
 272 183 272 183 272 168 c 0,7,8
 272 54 272 54 381 54 c 0,9,10
 431 54 431 54 466 84.5 c 128,-1,11
 501 115 501 115 502 191 c 2,12,-1
 511 655 l 1,13,-1
 611 660 l 1,14,-1
 581 190 l 2,15,16
 568 -24 568 -24 342 -24 c 0,0,1
320 903 m 1,17,-1
 498 781 l 1,18,-1
 464 713 l 1,19,-1
 260 778 l 1,20,-1
 320 903 l 1,17,-1
EndSplineSet
EndChar

StartChar: Uacute
Encoding: 218 218 155
Width: 696
GlyphClass: 2
Flags: W
LayerCount: 2
Fore
SplineSet
342 -24 m 0,0,1
 253 -24 253 -24 194.5 31 c 128,-1,2
 136 86 136 86 123 207 c 2,3,-1
 75 650 l 1,4,-1
 313 665 l 1,5,6
 272 183 272 183 272 168 c 0,7,8
 272 54 272 54 381 54 c 0,9,10
 431 54 431 54 466 84.5 c 128,-1,11
 501 115 501 115 502 191 c 2,12,-1
 511 655 l 1,13,-1
 611 660 l 1,14,-1
 581 190 l 2,15,16
 568 -24 568 -24 342 -24 c 0,0,1
276 781 m 1,17,-1
 454 903 l 1,18,-1
 514 778 l 1,19,-1
 310 713 l 1,20,-1
 276 781 l 1,17,-1
EndSplineSet
EndChar

StartChar: Ucircumflex
Encoding: 219 219 156
Width: 696
GlyphClass: 2
Flags: W
LayerCount: 2
Fore
SplineSet
342 -24 m 0,0,1
 253 -24 253 -24 194.5 31 c 128,-1,2
 136 86 136 86 123 207 c 2,3,-1
 75 650 l 1,4,-1
 313 665 l 1,5,6
 272 183 272 183 272 168 c 0,7,8
 272 54 272 54 381 54 c 0,9,10
 431 54 431 54 466 84.5 c 128,-1,11
 501 115 501 115 502 191 c 2,12,-1
 511 655 l 1,13,-1
 611 660 l 1,14,-1
 581 190 l 2,15,16
 568 -24 568 -24 342 -24 c 0,0,1
226 764 m 1,17,-1
 342 901 l 1,18,-1
 529 809 l 1,19,-1
 454 719 l 1,20,-1
 378 781 l 1,21,-1
 260 716 l 1,22,-1
 226 764 l 1,17,-1
EndSplineSet
EndChar

StartChar: Udieresis
Encoding: 220 220 157
Width: 696
GlyphClass: 2
Flags: W
LayerCount: 2
Fore
SplineSet
342 -24 m 0,0,1
 253 -24 253 -24 194.5 31 c 128,-1,2
 136 86 136 86 123 207 c 2,3,-1
 75 650 l 1,4,-1
 313 665 l 1,5,6
 272 183 272 183 272 168 c 0,7,8
 272 54 272 54 381 54 c 0,9,10
 431 54 431 54 466 84.5 c 128,-1,11
 501 115 501 115 502 191 c 2,12,-1
 511 655 l 1,13,-1
 611 660 l 1,14,-1
 581 190 l 2,15,16
 568 -24 568 -24 342 -24 c 0,0,1
202 807 m 128,-1,18
 202 841 202 841 224.5 866 c 128,-1,19
 247 891 247 891 278 891 c 128,-1,20
 309 891 309 891 331.5 866 c 128,-1,21
 354 841 354 841 354 807 c 128,-1,22
 354 773 354 773 331.5 748 c 128,-1,23
 309 723 309 723 278 723 c 128,-1,24
 247 723 247 723 224.5 748 c 128,-1,17
 202 773 202 773 202 807 c 128,-1,18
412 807 m 128,-1,26
 412 841 412 841 434.5 866 c 128,-1,27
 457 891 457 891 488 891 c 128,-1,28
 519 891 519 891 541.5 866 c 128,-1,29
 564 841 564 841 564 807 c 128,-1,30
 564 773 564 773 541.5 748 c 128,-1,31
 519 723 519 723 488 723 c 128,-1,32
 457 723 457 723 434.5 748 c 128,-1,25
 412 773 412 773 412 807 c 128,-1,26
EndSplineSet
EndChar

StartChar: Yacute
Encoding: 221 221 158
Width: 558
GlyphClass: 2
Flags: W
LayerCount: 2
Fore
SplineSet
229 665 m 1,0,-1
 309 303 l 1,1,-1
 318 303 l 1,2,-1
 462 662 l 1,3,-1
 543 640 l 1,4,-1
 371 235 l 1,5,-1
 333 -4 l 1,6,-1
 233 -14 l 1,7,-1
 202 209 l 1,8,-1
 4 638 l 1,9,-1
 229 665 l 1,0,-1
190 781 m 1,10,-1
 368 903 l 1,11,-1
 428 778 l 1,12,-1
 224 713 l 1,13,-1
 190 781 l 1,10,-1
EndSplineSet
EndChar

StartChar: Thorn
Encoding: 222 222 159
Width: 629
GlyphClass: 2
Flags: W
LayerCount: 2
Fore
SplineSet
413 562 m 0,0,1
 505 562 505 562 601 507 c 1,2,3
 619 453 619 453 619 404 c 0,4,5
 619 286 619 286 520 208 c 128,-1,6
 421 130 421 130 265 97 c 1,7,-1
 255 -4 l 1,8,-1
 155 -14 l 1,9,-1
 98 630 l 1,10,-1
 326 665 l 1,11,-1
 314 551 l 1,12,13
 371 562 371 562 413 562 c 0,0,1
426 375 m 0,14,15
 426 452 426 452 363 490 c 1,16,17
 337 490 337 490 306 479 c 1,18,-1
 272 162 l 1,19,20
 344 196 344 196 385 255.5 c 128,-1,21
 426 315 426 315 426 375 c 0,14,15
EndSplineSet
EndChar

StartChar: germandbls
Encoding: 223 223 160
Width: 741
GlyphClass: 2
Flags: W
LayerCount: 2
Fore
SplineSet
524 365 m 1,0,1
 548 370 548 370 565 370 c 128,-1,2
 582 370 582 370 621 364 c 1,3,4
 661 325 661 325 681 280 c 128,-1,5
 701 235 701 235 701 164 c 0,6,7
 701 69 701 69 643.5 22.5 c 128,-1,8
 586 -24 586 -24 471.5 -24 c 128,-1,9
 357 -24 357 -24 255 38 c 1,10,-1
 250 -6 l 1,11,-1
 151 -15 l 1,12,-1
 112 369 l 1,13,-1
 20 356 l 1,14,-1
 20 459 l 1,15,-1
 104 463 l 1,16,17
 104 533 104 533 129.5 585 c 128,-1,18
 155 637 155 637 200 666 c 0,19,20
 288 725 288 725 410 725 c 0,21,22
 560 725 560 725 637 677 c 1,23,24
 646 650 646 650 646 625 c 0,25,26
 646 565 646 565 615 492.5 c 128,-1,27
 584 420 584 420 522 371 c 1,28,-1
 524 365 l 1,0,1
485 530 m 0,29,30
 485 634 485 634 409 660 c 1,31,32
 355 651 355 651 330.5 607 c 128,-1,33
 306 563 306 563 299 492 c 2,34,-1
 265 125 l 1,35,36
 373 57 373 57 512 52 c 1,37,38
 532 98 532 98 532 182 c 128,-1,39
 532 266 532 266 509 315 c 1,40,41
 454 301 454 301 389 261 c 1,42,-1
 368 287 l 1,43,44
 429 329 429 329 457 395.5 c 128,-1,45
 485 462 485 462 485 530 c 0,29,30
EndSplineSet
EndChar

StartChar: agrave
Encoding: 224 224 161
Width: 580
GlyphClass: 2
Flags: W
LayerCount: 2
Fore
SplineSet
135 -23 m 0,0,1
 118 -23 118 -23 110 -22 c 1,2,3
 76 1 76 1 55.5 46.5 c 128,-1,4
 35 92 35 92 35 141 c 0,5,6
 35 205 35 205 83.5 234 c 128,-1,7
 132 263 132 263 262 263 c 0,8,9
 310 263 310 263 362 256 c 1,10,-1
 360 278 l 2,11,12
 356 318 356 318 322 341.5 c 128,-1,13
 288 365 288 365 235 365 c 128,-1,14
 182 365 182 365 129 332 c 1,15,-1
 85 477 l 1,16,17
 171 512 171 512 281 512 c 128,-1,18
 391 512 391 512 455 462.5 c 128,-1,19
 519 413 519 413 519 308 c 0,20,21
 519 284 519 284 517 270 c 2,22,-1
 489 -6 l 1,23,-1
 390 -15 l 1,24,-1
 375 130 l 1,25,-1
 367 130 l 1,26,27
 333 58 333 58 273 17.5 c 128,-1,28
 213 -23 213 -23 135 -23 c 0,0,1
366 214 m 1,29,-1
 313 215 l 1,30,31
 247 215 247 215 205 208 c 1,32,33
 191 180 191 180 191 158 c 128,-1,34
 191 136 191 136 197 116 c 128,-1,35
 203 96 203 96 210 89 c 1,36,37
 330 108 330 108 366 214 c 1,29,-1
231 753 m 1,38,-1
 409 631 l 1,39,-1
 375 563 l 1,40,-1
 171 628 l 1,41,-1
 231 753 l 1,38,-1
EndSplineSet
EndChar

StartChar: aacute
Encoding: 225 225 162
Width: 580
GlyphClass: 2
Flags: W
LayerCount: 2
Fore
SplineSet
135 -23 m 0,0,1
 118 -23 118 -23 110 -22 c 1,2,3
 76 1 76 1 55.5 46.5 c 128,-1,4
 35 92 35 92 35 141 c 0,5,6
 35 205 35 205 83.5 234 c 128,-1,7
 132 263 132 263 262 263 c 0,8,9
 310 263 310 263 362 256 c 1,10,-1
 360 278 l 2,11,12
 356 318 356 318 322 341.5 c 128,-1,13
 288 365 288 365 235 365 c 128,-1,14
 182 365 182 365 129 332 c 1,15,-1
 85 477 l 1,16,17
 171 512 171 512 281 512 c 128,-1,18
 391 512 391 512 455 462.5 c 128,-1,19
 519 413 519 413 519 308 c 0,20,21
 519 284 519 284 517 270 c 2,22,-1
 489 -6 l 1,23,-1
 390 -15 l 1,24,-1
 375 130 l 1,25,-1
 367 130 l 1,26,27
 333 58 333 58 273 17.5 c 128,-1,28
 213 -23 213 -23 135 -23 c 0,0,1
366 214 m 1,29,-1
 313 215 l 1,30,31
 247 215 247 215 205 208 c 1,32,33
 191 180 191 180 191 158 c 128,-1,34
 191 136 191 136 197 116 c 128,-1,35
 203 96 203 96 210 89 c 1,36,37
 330 108 330 108 366 214 c 1,29,-1
171 631 m 1,38,-1
 349 753 l 1,39,-1
 409 628 l 1,40,-1
 205 563 l 1,41,-1
 171 631 l 1,38,-1
EndSplineSet
EndChar

StartChar: acircumflex
Encoding: 226 226 163
Width: 580
GlyphClass: 2
Flags: W
LayerCount: 2
Fore
SplineSet
135 -23 m 0,0,1
 118 -23 118 -23 110 -22 c 1,2,3
 76 1 76 1 55.5 46.5 c 128,-1,4
 35 92 35 92 35 141 c 0,5,6
 35 205 35 205 83.5 234 c 128,-1,7
 132 263 132 263 262 263 c 0,8,9
 310 263 310 263 362 256 c 1,10,-1
 360 278 l 2,11,12
 356 318 356 318 322 341.5 c 128,-1,13
 288 365 288 365 235 365 c 128,-1,14
 182 365 182 365 129 332 c 1,15,-1
 85 477 l 1,16,17
 171 512 171 512 281 512 c 128,-1,18
 391 512 391 512 455 462.5 c 128,-1,19
 519 413 519 413 519 308 c 0,20,21
 519 284 519 284 517 270 c 2,22,-1
 489 -6 l 1,23,-1
 390 -15 l 1,24,-1
 375 130 l 1,25,-1
 367 130 l 1,26,27
 333 58 333 58 273 17.5 c 128,-1,28
 213 -23 213 -23 135 -23 c 0,0,1
366 214 m 1,29,-1
 313 215 l 1,30,31
 247 215 247 215 205 208 c 1,32,33
 191 180 191 180 191 158 c 128,-1,34
 191 136 191 136 197 116 c 128,-1,35
 203 96 203 96 210 89 c 1,36,37
 330 108 330 108 366 214 c 1,29,-1
145 614 m 1,38,-1
 261 751 l 1,39,-1
 448 659 l 1,40,-1
 373 569 l 1,41,-1
 297 631 l 1,42,-1
 179 566 l 1,43,-1
 145 614 l 1,38,-1
EndSplineSet
EndChar

StartChar: atilde
Encoding: 227 227 164
Width: 580
GlyphClass: 2
Flags: W
LayerCount: 2
Fore
SplineSet
135 -23 m 0,0,1
 118 -23 118 -23 110 -22 c 1,2,3
 76 1 76 1 55.5 46.5 c 128,-1,4
 35 92 35 92 35 141 c 0,5,6
 35 205 35 205 83.5 234 c 128,-1,7
 132 263 132 263 262 263 c 0,8,9
 310 263 310 263 362 256 c 1,10,-1
 360 278 l 2,11,12
 356 318 356 318 322 341.5 c 128,-1,13
 288 365 288 365 235 365 c 128,-1,14
 182 365 182 365 129 332 c 1,15,-1
 85 477 l 1,16,17
 171 512 171 512 281 512 c 128,-1,18
 391 512 391 512 455 462.5 c 128,-1,19
 519 413 519 413 519 308 c 0,20,21
 519 284 519 284 517 270 c 2,22,-1
 489 -6 l 1,23,-1
 390 -15 l 1,24,-1
 375 130 l 1,25,-1
 367 130 l 1,26,27
 333 58 333 58 273 17.5 c 128,-1,28
 213 -23 213 -23 135 -23 c 0,0,1
366 214 m 1,29,-1
 313 215 l 1,30,31
 247 215 247 215 205 208 c 1,32,33
 191 180 191 180 191 158 c 128,-1,34
 191 136 191 136 197 116 c 128,-1,35
 203 96 203 96 210 89 c 1,36,37
 330 108 330 108 366 214 c 1,29,-1
337 697 m 0,38,39
 360 697 360 697 380 742 c 1,40,-1
 440 726 l 1,41,42
 422 585 422 585 355 585 c 0,43,44
 339 585 339 585 303.5 598 c 128,-1,45
 268 611 268 611 250 611 c 0,46,47
 227 611 227 611 207 566 c 1,48,-1
 147 582 l 1,49,50
 165 723 165 723 232 723 c 0,51,52
 248 723 248 723 283.5 710 c 128,-1,53
 319 697 319 697 337 697 c 0,38,39
EndSplineSet
EndChar

StartChar: adieresis
Encoding: 228 228 165
Width: 580
GlyphClass: 2
Flags: W
LayerCount: 2
Fore
SplineSet
135 -23 m 0,0,1
 118 -23 118 -23 110 -22 c 1,2,3
 76 1 76 1 55.5 46.5 c 128,-1,4
 35 92 35 92 35 141 c 0,5,6
 35 205 35 205 83.5 234 c 128,-1,7
 132 263 132 263 262 263 c 0,8,9
 310 263 310 263 362 256 c 1,10,-1
 360 278 l 2,11,12
 356 318 356 318 322 341.5 c 128,-1,13
 288 365 288 365 235 365 c 128,-1,14
 182 365 182 365 129 332 c 1,15,-1
 85 477 l 1,16,17
 171 512 171 512 281 512 c 128,-1,18
 391 512 391 512 455 462.5 c 128,-1,19
 519 413 519 413 519 308 c 0,20,21
 519 284 519 284 517 270 c 2,22,-1
 489 -6 l 1,23,-1
 390 -15 l 1,24,-1
 375 130 l 1,25,-1
 367 130 l 1,26,27
 333 58 333 58 273 17.5 c 128,-1,28
 213 -23 213 -23 135 -23 c 0,0,1
366 214 m 1,29,-1
 313 215 l 1,30,31
 247 215 247 215 205 208 c 1,32,33
 191 180 191 180 191 158 c 128,-1,34
 191 136 191 136 197 116 c 128,-1,35
 203 96 203 96 210 89 c 1,36,37
 330 108 330 108 366 214 c 1,29,-1
109 657 m 128,-1,39
 109 691 109 691 131.5 716 c 128,-1,40
 154 741 154 741 185 741 c 128,-1,41
 216 741 216 741 238.5 716 c 128,-1,42
 261 691 261 691 261 657 c 128,-1,43
 261 623 261 623 238.5 598 c 128,-1,44
 216 573 216 573 185 573 c 128,-1,45
 154 573 154 573 131.5 598 c 128,-1,38
 109 623 109 623 109 657 c 128,-1,39
319 657 m 128,-1,47
 319 691 319 691 341.5 716 c 128,-1,48
 364 741 364 741 395 741 c 128,-1,49
 426 741 426 741 448.5 716 c 128,-1,50
 471 691 471 691 471 657 c 128,-1,51
 471 623 471 623 448.5 598 c 128,-1,52
 426 573 426 573 395 573 c 128,-1,53
 364 573 364 573 341.5 598 c 128,-1,46
 319 623 319 623 319 657 c 128,-1,47
EndSplineSet
EndChar

StartChar: aring
Encoding: 229 229 166
Width: 580
GlyphClass: 2
Flags: W
LayerCount: 2
Fore
SplineSet
135 -23 m 0,0,1
 118 -23 118 -23 110 -22 c 1,2,3
 76 1 76 1 55.5 46.5 c 128,-1,4
 35 92 35 92 35 141 c 0,5,6
 35 205 35 205 83.5 234 c 128,-1,7
 132 263 132 263 262 263 c 0,8,9
 310 263 310 263 362 256 c 1,10,-1
 360 278 l 2,11,12
 356 318 356 318 322 341.5 c 128,-1,13
 288 365 288 365 235 365 c 128,-1,14
 182 365 182 365 129 332 c 1,15,-1
 85 477 l 1,16,17
 171 512 171 512 281 512 c 128,-1,18
 391 512 391 512 455 462.5 c 128,-1,19
 519 413 519 413 519 308 c 0,20,21
 519 284 519 284 517 270 c 2,22,-1
 489 -6 l 1,23,-1
 390 -15 l 1,24,-1
 375 130 l 1,25,-1
 367 130 l 1,26,27
 333 58 333 58 273 17.5 c 128,-1,28
 213 -23 213 -23 135 -23 c 0,0,1
366 214 m 1,29,-1
 313 215 l 1,30,31
 247 215 247 215 205 208 c 1,32,33
 191 180 191 180 191 158 c 128,-1,34
 191 136 191 136 197 116 c 128,-1,35
 203 96 203 96 210 89 c 1,36,37
 330 108 330 108 366 214 c 1,29,-1
401 747 m 1,38,39
 427 710 427 710 427 656 c 128,-1,40
 427 602 427 602 395.5 569.5 c 128,-1,41
 364 537 364 537 312 537 c 128,-1,42
 260 537 260 537 214 555 c 1,43,44
 188 592 188 592 188 646 c 128,-1,45
 188 700 188 700 219.5 732.5 c 128,-1,46
 251 765 251 765 302.5 765 c 128,-1,47
 354 765 354 765 401 747 c 1,38,39
351 664 m 0,48,49
 351 690 351 690 344 709 c 1,50,51
 334 717 334 717 307 717 c 1,52,53
 263 696 263 696 263 637 c 0,54,55
 263 613 263 613 270 592 c 1,56,57
 280 585 280 585 307 585 c 1,58,59
 351 606 351 606 351 664 c 0,48,49
EndSplineSet
EndChar

StartChar: ae
Encoding: 230 230 167
Width: 859
GlyphClass: 2
Flags: W
LayerCount: 2
Fore
SplineSet
366 214 m 1,0,1
 366 214 366 214 313 215 c 1,2,3
 247 215 247 215 205 208 c 1,4,5
 191 180 191 180 191 158 c 128,-1,6
 191 136 191 136 197 116 c 128,-1,7
 203 96 203 96 210 89 c 1,8,9
 330 108 330 108 366 214 c 1,0,1
562 539 m 1,10,11
 804 442 804 442 804 298 c 0,12,13
 804 223 804 223 761.5 189.5 c 128,-1,14
 719 156 719 156 604 156 c 0,15,16
 531 156 531 156 484 167 c 1,17,18
 465 120 465 120 465 69 c 1,19,20
 510 63 510 63 567 63 c 0,21,22
 671 63 671 63 763 96 c 1,23,-1
 793 -1 l 1,24,25
 720 -24 720 -24 629 -24 c 0,26,27
 468 -24 468 -24 390 35 c 1,28,29
 378 90 378 90 375 147 c 1,30,31
 343 68 343 68 280 22.5 c 128,-1,32
 217 -23 217 -23 135 -23 c 0,33,34
 118 -23 118 -23 110 -22 c 1,35,36
 76 1 76 1 55.5 46.5 c 128,-1,37
 35 92 35 92 35 141 c 0,38,39
 35 205 35 205 83.5 234 c 128,-1,40
 132 263 132 263 262 263 c 0,41,42
 310 263 310 263 362 256 c 1,43,-1
 360 278 l 2,44,45
 356 318 356 318 322 341.5 c 128,-1,46
 288 365 288 365 235 365 c 128,-1,47
 182 365 182 365 129 332 c 1,48,-1
 85 477 l 1,49,50
 171 512 171 512 276 512 c 0,51,52
 405 512 405 512 466 451 c 1,53,54
 511 511 511 511 562 539 c 1,10,11
504 214 m 1,55,56
 517 213 517 213 569.5 213 c 128,-1,57
 622 213 622 213 690 227 c 1,58,59
 693 246 693 246 693 265 c 0,60,61
 693 325 693 325 660 380 c 1,62,63
 561 314 561 314 504 214 c 1,55,56
EndSplineSet
EndChar

StartChar: ccedilla
Encoding: 231 231 168
Width: 460
GlyphClass: 2
Flags: W
LayerCount: 2
Fore
SplineSet
227 63 m 0,0,1
 182 63 182 63 140 69 c 1,2,3
 140 171 140 171 212 264.5 c 128,-1,4
 284 358 284 358 410 426 c 1,5,-1
 237 539 l 1,6,7
 163 498 163 498 106.5 396 c 128,-1,8
 50 294 50 294 50 169 c 0,9,10
 50 107 50 107 65 35 c 1,11,12
 96 9 96 9 155 -7.5 c 128,-1,13
 214 -24 214 -24 291 -24 c 128,-1,14
 368 -24 368 -24 438 -1 c 1,15,-1
 408 96 l 1,16,17
 323 63 323 63 227 63 c 0,0,1
134 -91 m 1,18,19
 194 -117 194 -117 230.5 -117 c 128,-1,20
 267 -117 267 -117 299 -104 c 1,21,22
 272 -48 272 -48 190 -6 c 1,23,-1
 218 44 l 1,24,25
 323 -14 323 -14 348 -60 c 0,26,27
 360 -83 360 -83 360 -108 c 0,28,29
 360 -160 360 -160 312.5 -184 c 128,-1,30
 265 -208 265 -208 210.5 -208 c 128,-1,31
 156 -208 156 -208 100 -187 c 1,32,-1
 134 -91 l 1,18,19
EndSplineSet
EndChar

StartChar: egrave
Encoding: 232 232 169
Width: 534
GlyphClass: 2
Flags: W
LayerCount: 2
Fore
SplineSet
237 539 m 1,0,1
 479 442 479 442 479 298 c 0,2,3
 479 223 479 223 436.5 189.5 c 128,-1,4
 394 156 394 156 279 156 c 0,5,6
 206 156 206 156 159 167 c 1,7,8
 140 120 140 120 140 69 c 1,9,10
 185 63 185 63 242 63 c 0,11,12
 346 63 346 63 438 96 c 1,13,-1
 468 -1 l 1,14,15
 395 -24 395 -24 304 -24 c 0,16,17
 142 -24 142 -24 66 35 c 1,18,19
 50 106 50 106 50 169 c 0,20,21
 50 295 50 295 105.5 396 c 128,-1,22
 161 497 161 497 237 539 c 1,0,1
179 214 m 1,23,24
 192 213 192 213 244.5 213 c 128,-1,25
 297 213 297 213 365 227 c 1,26,27
 368 246 368 246 368 265 c 0,28,29
 368 325 368 325 335 380 c 1,30,31
 236 314 236 314 179 214 c 1,23,24
243 753 m 1,32,-1
 421 631 l 1,33,-1
 387 563 l 1,34,-1
 183 628 l 1,35,-1
 243 753 l 1,32,-1
EndSplineSet
EndChar

StartChar: eacute
Encoding: 233 233 170
Width: 534
GlyphClass: 2
Flags: W
LayerCount: 2
Fore
SplineSet
237 539 m 1,0,1
 479 442 479 442 479 298 c 0,2,3
 479 223 479 223 436.5 189.5 c 128,-1,4
 394 156 394 156 279 156 c 0,5,6
 206 156 206 156 159 167 c 1,7,8
 140 120 140 120 140 69 c 1,9,10
 185 63 185 63 242 63 c 0,11,12
 346 63 346 63 438 96 c 1,13,-1
 468 -1 l 1,14,15
 395 -24 395 -24 304 -24 c 0,16,17
 142 -24 142 -24 66 35 c 1,18,19
 50 106 50 106 50 169 c 0,20,21
 50 295 50 295 105.5 396 c 128,-1,22
 161 497 161 497 237 539 c 1,0,1
179 214 m 1,23,24
 192 213 192 213 244.5 213 c 128,-1,25
 297 213 297 213 365 227 c 1,26,27
 368 246 368 246 368 265 c 0,28,29
 368 325 368 325 335 380 c 1,30,31
 236 314 236 314 179 214 c 1,23,24
183 631 m 1,32,-1
 361 753 l 1,33,-1
 421 628 l 1,34,-1
 217 563 l 1,35,-1
 183 631 l 1,32,-1
EndSplineSet
EndChar

StartChar: ecircumflex
Encoding: 234 234 171
Width: 534
GlyphClass: 2
Flags: W
LayerCount: 2
Fore
SplineSet
237 539 m 1,0,1
 479 442 479 442 479 298 c 0,2,3
 479 223 479 223 436.5 189.5 c 128,-1,4
 394 156 394 156 279 156 c 0,5,6
 206 156 206 156 159 167 c 1,7,8
 140 120 140 120 140 69 c 1,9,10
 185 63 185 63 242 63 c 0,11,12
 346 63 346 63 438 96 c 1,13,-1
 468 -1 l 1,14,15
 395 -24 395 -24 304 -24 c 0,16,17
 142 -24 142 -24 66 35 c 1,18,19
 50 106 50 106 50 169 c 0,20,21
 50 295 50 295 105.5 396 c 128,-1,22
 161 497 161 497 237 539 c 1,0,1
179 214 m 1,23,24
 192 213 192 213 244.5 213 c 128,-1,25
 297 213 297 213 365 227 c 1,26,27
 368 246 368 246 368 265 c 0,28,29
 368 325 368 325 335 380 c 1,30,31
 236 314 236 314 179 214 c 1,23,24
150 614 m 1,32,-1
 266 751 l 1,33,-1
 453 659 l 1,34,-1
 378 569 l 1,35,-1
 302 631 l 1,36,-1
 184 566 l 1,37,-1
 150 614 l 1,32,-1
EndSplineSet
EndChar

StartChar: edieresis
Encoding: 235 235 172
Width: 534
GlyphClass: 2
Flags: W
LayerCount: 2
Fore
SplineSet
237 539 m 1,0,1
 479 442 479 442 479 298 c 0,2,3
 479 223 479 223 436.5 189.5 c 128,-1,4
 394 156 394 156 279 156 c 0,5,6
 206 156 206 156 159 167 c 1,7,8
 140 120 140 120 140 69 c 1,9,10
 185 63 185 63 242 63 c 0,11,12
 346 63 346 63 438 96 c 1,13,-1
 468 -1 l 1,14,15
 395 -24 395 -24 304 -24 c 0,16,17
 142 -24 142 -24 66 35 c 1,18,19
 50 106 50 106 50 169 c 0,20,21
 50 295 50 295 105.5 396 c 128,-1,22
 161 497 161 497 237 539 c 1,0,1
179 214 m 1,23,24
 192 213 192 213 244.5 213 c 128,-1,25
 297 213 297 213 365 227 c 1,26,27
 368 246 368 246 368 265 c 0,28,29
 368 325 368 325 335 380 c 1,30,31
 236 314 236 314 179 214 c 1,23,24
121 657 m 128,-1,33
 121 691 121 691 143.5 716 c 128,-1,34
 166 741 166 741 197 741 c 128,-1,35
 228 741 228 741 250.5 716 c 128,-1,36
 273 691 273 691 273 657 c 128,-1,37
 273 623 273 623 250.5 598 c 128,-1,38
 228 573 228 573 197 573 c 128,-1,39
 166 573 166 573 143.5 598 c 128,-1,32
 121 623 121 623 121 657 c 128,-1,33
331 657 m 128,-1,41
 331 691 331 691 353.5 716 c 128,-1,42
 376 741 376 741 407 741 c 128,-1,43
 438 741 438 741 460.5 716 c 128,-1,44
 483 691 483 691 483 657 c 128,-1,45
 483 623 483 623 460.5 598 c 128,-1,46
 438 573 438 573 407 573 c 128,-1,47
 376 573 376 573 353.5 598 c 128,-1,40
 331 623 331 623 331 657 c 128,-1,41
EndSplineSet
EndChar

StartChar: igrave
Encoding: 236 236 173
Width: 354
GlyphClass: 2
Flags: W
LayerCount: 2
Fore
SplineSet
121 -15 m 1,0,-1
 70 480 l 1,1,-1
 284 513 l 1,2,-1
 220 -6 l 1,3,-1
 121 -15 l 1,0,-1
118 753 m 1,4,-1
 296 631 l 1,5,-1
 262 563 l 1,6,-1
 58 628 l 1,7,-1
 118 753 l 1,4,-1
EndSplineSet
EndChar

StartChar: iacute
Encoding: 237 237 174
Width: 354
GlyphClass: 2
Flags: W
LayerCount: 2
Fore
SplineSet
121 -15 m 1,0,-1
 70 480 l 1,1,-1
 284 513 l 1,2,-1
 220 -6 l 1,3,-1
 121 -15 l 1,0,-1
58 631 m 1,4,-1
 236 753 l 1,5,-1
 296 628 l 1,6,-1
 92 563 l 1,7,-1
 58 631 l 1,4,-1
EndSplineSet
EndChar

StartChar: icircumflex
Encoding: 238 238 175
Width: 354
GlyphClass: 2
Flags: W
LayerCount: 2
Fore
SplineSet
121 -15 m 1,0,-1
 70 480 l 1,1,-1
 284 513 l 1,2,-1
 220 -6 l 1,3,-1
 121 -15 l 1,0,-1
32 614 m 1,4,-1
 148 751 l 1,5,-1
 335 659 l 1,6,-1
 260 569 l 1,7,-1
 184 631 l 1,8,-1
 66 566 l 1,9,-1
 32 614 l 1,4,-1
EndSplineSet
EndChar

StartChar: idieresis
Encoding: 239 239 176
Width: 354
GlyphClass: 2
Flags: W
LayerCount: 2
Fore
SplineSet
121 -15 m 1,0,-1
 70 480 l 1,1,-1
 284 513 l 1,2,-1
 220 -6 l 1,3,-1
 121 -15 l 1,0,-1
-4 657 m 128,-1,5
 -4 691 -4 691 18.5 716 c 128,-1,6
 41 741 41 741 72 741 c 128,-1,7
 103 741 103 741 125.5 716 c 128,-1,8
 148 691 148 691 148 657 c 128,-1,9
 148 623 148 623 125.5 598 c 128,-1,10
 103 573 103 573 72 573 c 128,-1,11
 41 573 41 573 18.5 598 c 128,-1,4
 -4 623 -4 623 -4 657 c 128,-1,5
206 657 m 128,-1,13
 206 691 206 691 228.5 716 c 128,-1,14
 251 741 251 741 282 741 c 128,-1,15
 313 741 313 741 335.5 716 c 128,-1,16
 358 691 358 691 358 657 c 128,-1,17
 358 623 358 623 335.5 598 c 128,-1,18
 313 573 313 573 282 573 c 128,-1,19
 251 573 251 573 228.5 598 c 128,-1,12
 206 623 206 623 206 657 c 128,-1,13
EndSplineSet
EndChar

StartChar: eth
Encoding: 240 240 177
Width: 585
GlyphClass: 2
Flags: W
LayerCount: 2
Fore
SplineSet
239 304 m 1,0,1
 224 278 224 278 224 193 c 128,-1,2
 224 108 224 108 239 52 c 1,3,4
 269 45 269 45 300.5 45 c 128,-1,5
 332 45 332 45 375 66 c 1,6,7
 341 269 341 269 239 304 c 1,0,1
512 207 m 0,8,9
 512 125 512 125 495 41 c 1,10,11
 460 12 460 12 399.5 -6 c 128,-1,12
 339 -24 339 -24 271 -24 c 0,13,14
 147 -24 147 -24 98.5 21.5 c 128,-1,15
 50 67 50 67 50 164 c 0,16,17
 50 235 50 235 70.5 281.5 c 128,-1,18
 91 328 91 328 131 367 c 1,19,20
 160 377 160 377 191 377 c 0,21,22
 248 377 248 377 295.5 339 c 128,-1,23
 343 301 343 301 373 228 c 1,24,-1
 385 235 l 1,25,26
 360 326 360 326 282 444 c 128,-1,27
 204 562 204 562 142 619 c 1,28,-1
 294 720 l 1,29,30
 376 666 376 666 444 520 c 128,-1,31
 512 374 512 374 512 207 c 0,8,9
515 615 m 1,32,-1
 176 422 l 1,33,-1
 139 497 l 1,34,-1
 490 666 l 1,35,-1
 515 615 l 1,32,-1
EndSplineSet
EndChar

StartChar: ntilde
Encoding: 241 241 178
Width: 660
GlyphClass: 2
Flags: W
LayerCount: 2
Fore
SplineSet
463 523 m 0,0,1
 482 523 482 523 500 517 c 1,2,3
 551 455 551 455 570 302.5 c 128,-1,4
 589 150 589 150 589 0 c 1,5,-1
 409 -15 l 1,6,7
 409 215 409 215 392 404 c 1,8,9
 259 355 259 355 215 -6 c 1,10,-1
 116 -15 l 1,11,-1
 65 481 l 1,12,-1
 279 514 l 1,13,-1
 257 338 l 1,14,-1
 266 338 l 1,15,16
 306 425 306 425 357 474 c 128,-1,17
 408 523 408 523 463 523 c 0,0,1
377 697 m 0,18,19
 400 697 400 697 420 742 c 1,20,-1
 480 726 l 1,21,22
 462 585 462 585 395 585 c 0,23,24
 379 585 379 585 343.5 598 c 128,-1,25
 308 611 308 611 290 611 c 0,26,27
 267 611 267 611 247 566 c 1,28,-1
 187 582 l 1,29,30
 205 723 205 723 272 723 c 0,31,32
 288 723 288 723 323.5 710 c 128,-1,33
 359 697 359 697 377 697 c 0,18,19
EndSplineSet
EndChar

StartChar: ograve
Encoding: 242 242 179
Width: 538
GlyphClass: 2
Flags: W
LayerCount: 2
Fore
SplineSet
488 184 m 0,0,1
 488 75 488 75 440.5 25.5 c 128,-1,2
 393 -24 393 -24 265 -24 c 128,-1,3
 137 -24 137 -24 65 34 c 1,4,5
 50 106 50 106 50 178 c 128,-1,6
 50 250 50 250 70.5 313.5 c 128,-1,7
 91 377 91 377 122 422 c 0,8,9
 187 514 187 514 238 539 c 1,10,11
 334 490 334 490 407 406 c 0,12,13
 488 314 488 314 488 184 c 0,0,1
372 211 m 0,14,15
 372 306 372 306 332 385 c 1,16,17
 249 341 249 341 195 251 c 128,-1,18
 141 161 141 161 141 69 c 1,19,20
 173 63 173 63 233 63 c 128,-1,21
 293 63 293 63 356 84 c 1,22,23
 372 145 372 145 372 211 c 0,14,15
210 753 m 1,24,-1
 388 631 l 1,25,-1
 354 563 l 1,26,-1
 150 628 l 1,27,-1
 210 753 l 1,24,-1
EndSplineSet
EndChar

StartChar: oacute
Encoding: 243 243 180
Width: 538
GlyphClass: 2
Flags: W
LayerCount: 2
Fore
SplineSet
488 184 m 0,0,1
 488 75 488 75 440.5 25.5 c 128,-1,2
 393 -24 393 -24 265 -24 c 128,-1,3
 137 -24 137 -24 65 34 c 1,4,5
 50 106 50 106 50 178 c 128,-1,6
 50 250 50 250 70.5 313.5 c 128,-1,7
 91 377 91 377 122 422 c 0,8,9
 187 514 187 514 238 539 c 1,10,11
 334 490 334 490 407 406 c 0,12,13
 488 314 488 314 488 184 c 0,0,1
372 211 m 0,14,15
 372 306 372 306 332 385 c 1,16,17
 249 341 249 341 195 251 c 128,-1,18
 141 161 141 161 141 69 c 1,19,20
 173 63 173 63 233 63 c 128,-1,21
 293 63 293 63 356 84 c 1,22,23
 372 145 372 145 372 211 c 0,14,15
150 631 m 1,24,-1
 328 753 l 1,25,-1
 388 628 l 1,26,-1
 184 563 l 1,27,-1
 150 631 l 1,24,-1
EndSplineSet
EndChar

StartChar: ocircumflex
Encoding: 244 244 181
Width: 538
GlyphClass: 2
Flags: W
LayerCount: 2
Fore
SplineSet
488 184 m 0,0,1
 488 75 488 75 440.5 25.5 c 128,-1,2
 393 -24 393 -24 265 -24 c 128,-1,3
 137 -24 137 -24 65 34 c 1,4,5
 50 106 50 106 50 178 c 128,-1,6
 50 250 50 250 70.5 313.5 c 128,-1,7
 91 377 91 377 122 422 c 0,8,9
 187 514 187 514 238 539 c 1,10,11
 334 490 334 490 407 406 c 0,12,13
 488 314 488 314 488 184 c 0,0,1
372 211 m 0,14,15
 372 306 372 306 332 385 c 1,16,17
 249 341 249 341 195 251 c 128,-1,18
 141 161 141 161 141 69 c 1,19,20
 173 63 173 63 233 63 c 128,-1,21
 293 63 293 63 356 84 c 1,22,23
 372 145 372 145 372 211 c 0,14,15
124 614 m 1,24,-1
 240 751 l 1,25,-1
 427 659 l 1,26,-1
 352 569 l 1,27,-1
 276 631 l 1,28,-1
 158 566 l 1,29,-1
 124 614 l 1,24,-1
EndSplineSet
EndChar

StartChar: otilde
Encoding: 245 245 182
Width: 538
GlyphClass: 2
Flags: W
LayerCount: 2
Fore
SplineSet
488 184 m 0,0,1
 488 75 488 75 440.5 25.5 c 128,-1,2
 393 -24 393 -24 265 -24 c 128,-1,3
 137 -24 137 -24 65 34 c 1,4,5
 50 106 50 106 50 178 c 128,-1,6
 50 250 50 250 70.5 313.5 c 128,-1,7
 91 377 91 377 122 422 c 0,8,9
 187 514 187 514 238 539 c 1,10,11
 334 490 334 490 407 406 c 0,12,13
 488 314 488 314 488 184 c 0,0,1
372 211 m 0,14,15
 372 306 372 306 332 385 c 1,16,17
 249 341 249 341 195 251 c 128,-1,18
 141 161 141 161 141 69 c 1,19,20
 173 63 173 63 233 63 c 128,-1,21
 293 63 293 63 356 84 c 1,22,23
 372 145 372 145 372 211 c 0,14,15
316 697 m 0,24,25
 339 697 339 697 359 742 c 1,26,-1
 419 726 l 1,27,28
 401 585 401 585 334 585 c 0,29,30
 318 585 318 585 282.5 598 c 128,-1,31
 247 611 247 611 229 611 c 0,32,33
 206 611 206 611 186 566 c 1,34,-1
 126 582 l 1,35,36
 144 723 144 723 211 723 c 0,37,38
 227 723 227 723 262.5 710 c 128,-1,39
 298 697 298 697 316 697 c 0,24,25
EndSplineSet
EndChar

StartChar: odieresis
Encoding: 246 246 183
Width: 538
GlyphClass: 2
Flags: W
LayerCount: 2
Fore
SplineSet
488 184 m 0,0,1
 488 75 488 75 440.5 25.5 c 128,-1,2
 393 -24 393 -24 265 -24 c 128,-1,3
 137 -24 137 -24 65 34 c 1,4,5
 50 106 50 106 50 178 c 128,-1,6
 50 250 50 250 70.5 313.5 c 128,-1,7
 91 377 91 377 122 422 c 0,8,9
 187 514 187 514 238 539 c 1,10,11
 334 490 334 490 407 406 c 0,12,13
 488 314 488 314 488 184 c 0,0,1
372 211 m 0,14,15
 372 306 372 306 332 385 c 1,16,17
 249 341 249 341 195 251 c 128,-1,18
 141 161 141 161 141 69 c 1,19,20
 173 63 173 63 233 63 c 128,-1,21
 293 63 293 63 356 84 c 1,22,23
 372 145 372 145 372 211 c 0,14,15
88 657 m 128,-1,25
 88 691 88 691 110.5 716 c 128,-1,26
 133 741 133 741 164 741 c 128,-1,27
 195 741 195 741 217.5 716 c 128,-1,28
 240 691 240 691 240 657 c 128,-1,29
 240 623 240 623 217.5 598 c 128,-1,30
 195 573 195 573 164 573 c 128,-1,31
 133 573 133 573 110.5 598 c 128,-1,24
 88 623 88 623 88 657 c 128,-1,25
298 657 m 128,-1,33
 298 691 298 691 320.5 716 c 128,-1,34
 343 741 343 741 374 741 c 128,-1,35
 405 741 405 741 427.5 716 c 128,-1,36
 450 691 450 691 450 657 c 128,-1,37
 450 623 450 623 427.5 598 c 128,-1,38
 405 573 405 573 374 573 c 128,-1,39
 343 573 343 573 320.5 598 c 128,-1,32
 298 623 298 623 298 657 c 128,-1,33
EndSplineSet
EndChar

StartChar: divide
Encoding: 247 247 184
Width: 612
GlyphClass: 2
Flags: W
LayerCount: 2
Fore
SplineSet
512 286 m 1,0,-1
 90 259 l 1,1,-1
 100 369 l 1,2,-1
 522 369 l 1,3,-1
 512 286 l 1,0,-1
395 570 m 1,4,5
 395 499 395 499 384 454 c 1,6,7
 341 439 341 439 297.5 439 c 128,-1,8
 254 439 254 439 235 444 c 1,9,10
 235 510 235 510 260 559 c 1,11,12
 305 570 305 570 395 570 c 1,4,5
375 205 m 1,13,14
 375 134 375 134 364 89 c 1,15,16
 321 74 321 74 277.5 74 c 128,-1,17
 234 74 234 74 215 79 c 1,18,19
 215 145 215 145 240 194 c 1,20,21
 285 205 285 205 375 205 c 1,13,14
EndSplineSet
EndChar

StartChar: oslash
Encoding: 248 248 185
Width: 538
GlyphClass: 2
Flags: W
LayerCount: 2
Fore
SplineSet
426 649 m 1,0,-1
 197 -196 l 1,1,-1
 131 -181 l 1,2,-1
 360 664 l 1,3,-1
 426 649 l 1,0,-1
488 184 m 0,4,5
 488 314 488 314 407 406 c 0,6,7
 334 490 334 490 238 539 c 1,8,9
 187 514 187 514 122 422 c 0,10,11
 91 377 91 377 70.5 313.5 c 128,-1,12
 50 250 50 250 50 178 c 128,-1,13
 50 106 50 106 65 34 c 1,14,15
 137 -24 137 -24 265 -24 c 128,-1,16
 393 -24 393 -24 440.5 25.5 c 128,-1,17
 488 75 488 75 488 184 c 0,4,5
372 211 m 0,18,19
 372 145 372 145 356 84 c 1,20,21
 293 63 293 63 233 63 c 128,-1,22
 173 63 173 63 141 69 c 1,23,24
 141 161 141 161 195 251 c 128,-1,25
 249 341 249 341 332 385 c 1,26,27
 372 306 372 306 372 211 c 0,18,19
EndSplineSet
EndChar

StartChar: ugrave
Encoding: 249 249 186
Width: 690
GlyphClass: 2
Flags: W
LayerCount: 2
Fore
SplineSet
404 221 m 128,-1,1
 418 277 418 277 418 318.5 c 128,-1,2
 418 360 418 360 406 480 c 1,3,-1
 620 513 l 1,4,-1
 556 -6 l 1,5,-1
 457 -15 l 1,6,-1
 437 175 l 1,7,-1
 430 175 l 1,8,9
 356 -23 356 -23 194 -23 c 0,10,11
 170 -23 170 -23 154 -15 c 1,12,13
 103 47 103 47 84 195.5 c 128,-1,14
 65 344 65 344 65 492 c 1,15,-1
 265 507 l 1,16,17
 247 332 247 332 247 245 c 128,-1,18
 247 158 247 158 262 58 c 1,19,20
 317 70 317 70 353.5 117.5 c 128,-1,0
 390 165 390 165 404 221 c 128,-1,1
286 753 m 1,21,-1
 464 631 l 1,22,-1
 430 563 l 1,23,-1
 226 628 l 1,24,-1
 286 753 l 1,21,-1
EndSplineSet
EndChar

StartChar: uacute
Encoding: 250 250 187
Width: 690
GlyphClass: 2
Flags: W
LayerCount: 2
Fore
SplineSet
404 221 m 128,-1,1
 418 277 418 277 418 318.5 c 128,-1,2
 418 360 418 360 406 480 c 1,3,-1
 620 513 l 1,4,-1
 556 -6 l 1,5,-1
 457 -15 l 1,6,-1
 437 175 l 1,7,-1
 430 175 l 1,8,9
 356 -23 356 -23 194 -23 c 0,10,11
 170 -23 170 -23 154 -15 c 1,12,13
 103 47 103 47 84 195.5 c 128,-1,14
 65 344 65 344 65 492 c 1,15,-1
 265 507 l 1,16,17
 247 332 247 332 247 245 c 128,-1,18
 247 158 247 158 262 58 c 1,19,20
 317 70 317 70 353.5 117.5 c 128,-1,0
 390 165 390 165 404 221 c 128,-1,1
226 631 m 1,21,-1
 404 753 l 1,22,-1
 464 628 l 1,23,-1
 260 563 l 1,24,-1
 226 631 l 1,21,-1
EndSplineSet
EndChar

StartChar: ucircumflex
Encoding: 251 251 188
Width: 690
GlyphClass: 2
Flags: W
LayerCount: 2
Fore
SplineSet
404 221 m 128,-1,1
 418 277 418 277 418 318.5 c 128,-1,2
 418 360 418 360 406 480 c 1,3,-1
 620 513 l 1,4,-1
 556 -6 l 1,5,-1
 457 -15 l 1,6,-1
 437 175 l 1,7,-1
 430 175 l 1,8,9
 356 -23 356 -23 194 -23 c 0,10,11
 170 -23 170 -23 154 -15 c 1,12,13
 103 47 103 47 84 195.5 c 128,-1,14
 65 344 65 344 65 492 c 1,15,-1
 265 507 l 1,16,17
 247 332 247 332 247 245 c 128,-1,18
 247 158 247 158 262 58 c 1,19,20
 317 70 317 70 353.5 117.5 c 128,-1,0
 390 165 390 165 404 221 c 128,-1,1
200 614 m 1,21,-1
 316 751 l 1,22,-1
 503 659 l 1,23,-1
 428 569 l 1,24,-1
 352 631 l 1,25,-1
 234 566 l 1,26,-1
 200 614 l 1,21,-1
EndSplineSet
EndChar

StartChar: udieresis
Encoding: 252 252 189
Width: 690
GlyphClass: 2
Flags: W
LayerCount: 2
Fore
SplineSet
404 221 m 128,-1,1
 418 277 418 277 418 318.5 c 128,-1,2
 418 360 418 360 406 480 c 1,3,-1
 620 513 l 1,4,-1
 556 -6 l 1,5,-1
 457 -15 l 1,6,-1
 437 175 l 1,7,-1
 430 175 l 1,8,9
 356 -23 356 -23 194 -23 c 0,10,11
 170 -23 170 -23 154 -15 c 1,12,13
 103 47 103 47 84 195.5 c 128,-1,14
 65 344 65 344 65 492 c 1,15,-1
 265 507 l 1,16,17
 247 332 247 332 247 245 c 128,-1,18
 247 158 247 158 262 58 c 1,19,20
 317 70 317 70 353.5 117.5 c 128,-1,0
 390 165 390 165 404 221 c 128,-1,1
164 657 m 128,-1,22
 164 691 164 691 186.5 716 c 128,-1,23
 209 741 209 741 240 741 c 128,-1,24
 271 741 271 741 293.5 716 c 128,-1,25
 316 691 316 691 316 657 c 128,-1,26
 316 623 316 623 293.5 598 c 128,-1,27
 271 573 271 573 240 573 c 128,-1,28
 209 573 209 573 186.5 598 c 128,-1,21
 164 623 164 623 164 657 c 128,-1,22
374 657 m 128,-1,30
 374 691 374 691 396.5 716 c 128,-1,31
 419 741 419 741 450 741 c 128,-1,32
 481 741 481 741 503.5 716 c 128,-1,33
 526 691 526 691 526 657 c 128,-1,34
 526 623 526 623 503.5 598 c 128,-1,35
 481 573 481 573 450 573 c 128,-1,36
 419 573 419 573 396.5 598 c 128,-1,29
 374 623 374 623 374 657 c 128,-1,30
EndSplineSet
EndChar

StartChar: yacute
Encoding: 253 253 190
Width: 566
GlyphClass: 2
Flags: W
LayerCount: 2
Fore
SplineSet
246.5 -178.5 m 128,-1,1
 209 -212 209 -212 147.5 -212 c 128,-1,2
 86 -212 86 -212 30 -167 c 1,3,-1
 60 -116 l 1,4,5
 93 -128 93 -128 132.5 -128 c 128,-1,6
 172 -128 172 -128 204 -102 c 128,-1,7
 236 -76 236 -76 245 -23 c 1,8,-1
 38 480 l 1,9,-1
 252 513 l 1,10,-1
 318 129 l 1,11,-1
 326 129 l 1,12,-1
 455 510 l 1,13,-1
 536 488 l 1,14,-1
 319 -58 l 2,15,0
 284 -145 284 -145 246.5 -178.5 c 128,-1,1
164 631 m 1,16,-1
 342 753 l 1,17,-1
 402 628 l 1,18,-1
 198 563 l 1,19,-1
 164 631 l 1,16,-1
EndSplineSet
EndChar

StartChar: thorn
Encoding: 254 254 191
Width: 677
GlyphClass: 2
Flags: W
LayerCount: 2
Fore
SplineSet
476 523 m 0,0,1
 495 523 495 523 513 517 c 1,2,3
 549 474 549 474 571.5 387.5 c 128,-1,4
 594 301 594 301 594 194.5 c 128,-1,5
 594 88 594 88 547.5 32 c 128,-1,6
 501 -24 501 -24 386 -24 c 0,7,8
 303 -24 303 -24 226 12 c 1,9,-1
 204 -208 l 1,10,-1
 82 -217 l 1,11,-1
 82 683 l 1,12,-1
 296 716 l 1,13,-1
 254 301 l 1,14,-1
 262 301 l 1,15,16
 303 403 303 403 359 463 c 128,-1,17
 415 523 415 523 476 523 c 0,0,1
347 38 m 0,18,19
 384 38 384 38 410 52 c 1,20,21
 425 129 425 129 425 197.5 c 128,-1,22
 425 266 425 266 419 324 c 128,-1,23
 413 382 413 382 405 404 c 1,24,25
 383 395 383 395 372 389.5 c 128,-1,26
 361 384 361 384 337 361.5 c 128,-1,27
 313 339 313 339 298 308 c 0,28,29
 258 224 258 224 239 74 c 1,30,31
 284 38 284 38 347 38 c 0,18,19
EndSplineSet
EndChar

StartChar: ydieresis
Encoding: 255 255 192
Width: 566
GlyphClass: 2
Flags: W
LayerCount: 2
Fore
SplineSet
246.5 -178.5 m 128,-1,1
 209 -212 209 -212 147.5 -212 c 128,-1,2
 86 -212 86 -212 30 -167 c 1,3,-1
 60 -116 l 1,4,5
 93 -128 93 -128 132.5 -128 c 128,-1,6
 172 -128 172 -128 204 -102 c 128,-1,7
 236 -76 236 -76 245 -23 c 1,8,-1
 38 480 l 1,9,-1
 252 513 l 1,10,-1
 318 129 l 1,11,-1
 326 129 l 1,12,-1
 455 510 l 1,13,-1
 536 488 l 1,14,-1
 319 -58 l 2,15,0
 284 -145 284 -145 246.5 -178.5 c 128,-1,1
141 657 m 128,-1,17
 141 691 141 691 163.5 716 c 128,-1,18
 186 741 186 741 217 741 c 128,-1,19
 248 741 248 741 270.5 716 c 128,-1,20
 293 691 293 691 293 657 c 128,-1,21
 293 623 293 623 270.5 598 c 128,-1,22
 248 573 248 573 217 573 c 128,-1,23
 186 573 186 573 163.5 598 c 128,-1,16
 141 623 141 623 141 657 c 128,-1,17
351 657 m 128,-1,25
 351 691 351 691 373.5 716 c 128,-1,26
 396 741 396 741 427 741 c 128,-1,27
 458 741 458 741 480.5 716 c 128,-1,28
 503 691 503 691 503 657 c 128,-1,29
 503 623 503 623 480.5 598 c 128,-1,30
 458 573 458 573 427 573 c 128,-1,31
 396 573 396 573 373.5 598 c 128,-1,24
 351 623 351 623 351 657 c 128,-1,25
EndSplineSet
EndChar

StartChar: Amacron
Encoding: 256 256 193
Width: 639
GlyphClass: 2
Flags: W
LayerCount: 2
Fore
SplineSet
30 0 m 1,0,-1
 217 665 l 1,1,-1
 459 650 l 1,2,-1
 589 0 l 1,3,-1
 499 -15 l 1,4,-1
 430 151 l 1,5,-1
 164 129 l 1,6,-1
 130 -15 l 1,7,-1
 30 0 l 1,0,-1
261 539 m 1,8,-1
 182 206 l 1,9,-1
 408 204 l 1,10,-1
 269 539 l 1,11,-1
 261 539 l 1,8,-1
466 761 m 1,12,-1
 205 734 l 1,13,-1
 212 853 l 1,14,-1
 473 853 l 1,15,-1
 466 761 l 1,12,-1
EndSplineSet
EndChar

StartChar: amacron
Encoding: 257 257 194
Width: 580
GlyphClass: 2
Flags: W
LayerCount: 2
Fore
SplineSet
135 -23 m 0,0,1
 118 -23 118 -23 110 -22 c 1,2,3
 76 1 76 1 55.5 46.5 c 128,-1,4
 35 92 35 92 35 141 c 0,5,6
 35 205 35 205 83.5 234 c 128,-1,7
 132 263 132 263 262 263 c 0,8,9
 310 263 310 263 362 256 c 1,10,-1
 360 278 l 2,11,12
 356 318 356 318 322 341.5 c 128,-1,13
 288 365 288 365 235 365 c 128,-1,14
 182 365 182 365 129 332 c 1,15,-1
 85 477 l 1,16,17
 171 512 171 512 281 512 c 128,-1,18
 391 512 391 512 455 462.5 c 128,-1,19
 519 413 519 413 519 308 c 0,20,21
 519 284 519 284 517 270 c 2,22,-1
 489 -6 l 1,23,-1
 390 -15 l 1,24,-1
 375 130 l 1,25,-1
 367 130 l 1,26,27
 333 58 333 58 273 17.5 c 128,-1,28
 213 -23 213 -23 135 -23 c 0,0,1
366 214 m 1,29,-1
 313 215 l 1,30,31
 247 215 247 215 205 208 c 1,32,33
 191 180 191 180 191 158 c 128,-1,34
 191 136 191 136 197 116 c 128,-1,35
 203 96 203 96 210 89 c 1,36,37
 330 108 330 108 366 214 c 1,29,-1
437 611 m 1,38,-1
 176 584 l 1,39,-1
 183 703 l 1,40,-1
 444 703 l 1,41,-1
 437 611 l 1,38,-1
EndSplineSet
EndChar

StartChar: Abreve
Encoding: 258 258 195
Width: 639
GlyphClass: 2
Flags: W
LayerCount: 2
Fore
SplineSet
30 0 m 1,0,-1
 217 665 l 1,1,-1
 459 650 l 1,2,-1
 589 0 l 1,3,-1
 499 -15 l 1,4,-1
 430 151 l 1,5,-1
 164 129 l 1,6,-1
 130 -15 l 1,7,-1
 30 0 l 1,0,-1
261 539 m 1,8,-1
 182 206 l 1,9,-1
 408 204 l 1,10,-1
 269 539 l 1,11,-1
 261 539 l 1,8,-1
324 706 m 0,12,13
 273 706 273 706 239 754 c 0,14,15
 213 791 213 791 190 849 c 1,16,-1
 243 882 l 1,17,18
 259 854 259 854 267.5 841.5 c 128,-1,19
 276 829 276 829 291.5 818 c 128,-1,20
 307 807 307 807 331 807 c 128,-1,21
 355 807 355 807 372 828 c 128,-1,22
 389 849 389 849 405 888 c 1,23,-1
 489 833 l 1,24,25
 414 706 414 706 324 706 c 0,12,13
EndSplineSet
EndChar

StartChar: abreve
Encoding: 259 259 196
Width: 580
GlyphClass: 2
Flags: W
LayerCount: 2
Fore
SplineSet
135 -23 m 0,0,1
 118 -23 118 -23 110 -22 c 1,2,3
 76 1 76 1 55.5 46.5 c 128,-1,4
 35 92 35 92 35 141 c 0,5,6
 35 205 35 205 83.5 234 c 128,-1,7
 132 263 132 263 262 263 c 0,8,9
 310 263 310 263 362 256 c 1,10,-1
 360 278 l 2,11,12
 356 318 356 318 322 341.5 c 128,-1,13
 288 365 288 365 235 365 c 128,-1,14
 182 365 182 365 129 332 c 1,15,-1
 85 477 l 1,16,17
 171 512 171 512 281 512 c 128,-1,18
 391 512 391 512 455 462.5 c 128,-1,19
 519 413 519 413 519 308 c 0,20,21
 519 284 519 284 517 270 c 2,22,-1
 489 -6 l 1,23,-1
 390 -15 l 1,24,-1
 375 130 l 1,25,-1
 367 130 l 1,26,27
 333 58 333 58 273 17.5 c 128,-1,28
 213 -23 213 -23 135 -23 c 0,0,1
366 214 m 1,29,-1
 313 215 l 1,30,31
 247 215 247 215 205 208 c 1,32,33
 191 180 191 180 191 158 c 128,-1,34
 191 136 191 136 197 116 c 128,-1,35
 203 96 203 96 210 89 c 1,36,37
 330 108 330 108 366 214 c 1,29,-1
294 556 m 0,38,39
 243 556 243 556 209 604 c 0,40,41
 183 641 183 641 160 699 c 1,42,-1
 213 732 l 1,43,44
 229 704 229 704 237.5 691.5 c 128,-1,45
 246 679 246 679 261.5 668 c 128,-1,46
 277 657 277 657 301 657 c 128,-1,47
 325 657 325 657 342 678 c 128,-1,48
 359 699 359 699 375 738 c 1,49,-1
 459 683 l 1,50,51
 384 556 384 556 294 556 c 0,38,39
EndSplineSet
EndChar

StartChar: Aogonek
Encoding: 260 260 197
Width: 639
GlyphClass: 2
Flags: W
LayerCount: 2
Fore
SplineSet
30 0 m 1,0,-1
 217 665 l 1,1,-1
 459 650 l 1,2,-1
 589 0 l 1,3,-1
 499 -15 l 1,4,-1
 430 151 l 1,5,-1
 164 129 l 1,6,-1
 130 -15 l 1,7,-1
 30 0 l 1,0,-1
261 539 m 1,8,-1
 182 206 l 1,9,-1
 408 204 l 1,10,-1
 269 539 l 1,11,-1
 261 539 l 1,8,-1
679 -181 m 1,12,13
 623 -202 623 -202 568.5 -202 c 128,-1,14
 514 -202 514 -202 466.5 -178 c 128,-1,15
 419 -154 419 -154 419 -102 c 0,16,17
 419 -52 419 -52 468 -12 c 0,18,19
 508 21 508 21 561 50 c 1,20,-1
 589 0 l 1,21,22
 507 -42 507 -42 480 -98 c 1,23,24
 512 -111 512 -111 548.5 -111 c 128,-1,25
 585 -111 585 -111 645 -85 c 1,26,-1
 679 -181 l 1,12,13
EndSplineSet
EndChar

StartChar: aogonek
Encoding: 261 261 198
Width: 580
GlyphClass: 2
Flags: W
LayerCount: 2
Fore
SplineSet
135 -23 m 0,0,1
 118 -23 118 -23 110 -22 c 1,2,3
 76 1 76 1 55.5 46.5 c 128,-1,4
 35 92 35 92 35 141 c 0,5,6
 35 205 35 205 83.5 234 c 128,-1,7
 132 263 132 263 262 263 c 0,8,9
 310 263 310 263 362 256 c 1,10,-1
 360 278 l 2,11,12
 356 318 356 318 322 341.5 c 128,-1,13
 288 365 288 365 235 365 c 128,-1,14
 182 365 182 365 129 332 c 1,15,-1
 85 477 l 1,16,17
 171 512 171 512 281 512 c 128,-1,18
 391 512 391 512 455 462.5 c 128,-1,19
 519 413 519 413 519 308 c 0,20,21
 519 284 519 284 517 270 c 2,22,-1
 489 -6 l 1,23,-1
 390 -15 l 1,24,-1
 375 130 l 1,25,-1
 367 130 l 1,26,27
 333 58 333 58 273 17.5 c 128,-1,28
 213 -23 213 -23 135 -23 c 0,0,1
366 214 m 1,29,-1
 313 215 l 1,30,31
 247 215 247 215 205 208 c 1,32,33
 191 180 191 180 191 158 c 128,-1,34
 191 136 191 136 197 116 c 128,-1,35
 203 96 203 96 210 89 c 1,36,37
 330 108 330 108 366 214 c 1,29,-1
580 -187 m 1,38,39
 524 -208 524 -208 469.5 -208 c 128,-1,40
 415 -208 415 -208 367.5 -184 c 128,-1,41
 320 -160 320 -160 320 -108 c 0,42,43
 320 -58 320 -58 368 -18 c 0,44,45
 409 15 409 15 462 44 c 1,46,-1
 490 -6 l 1,47,48
 408 -48 408 -48 381 -104 c 1,49,50
 413 -117 413 -117 449.5 -117 c 128,-1,51
 486 -117 486 -117 546 -91 c 1,52,-1
 580 -187 l 1,38,39
EndSplineSet
EndChar

StartChar: Cacute
Encoding: 262 262 199
Width: 502
GlyphClass: 2
Flags: W
LayerCount: 2
Fore
SplineSet
267 73 m 0,0,1
 372 73 372 73 468 109 c 1,2,-1
 502 1 l 1,3,4
 421 -24 421 -24 337 -24 c 128,-1,5
 253 -24 253 -24 187.5 -6 c 128,-1,6
 122 12 122 12 87 41 c 1,7,8
 70 125 70 125 70 207 c 0,9,10
 70 374 70 374 133 510 c 128,-1,11
 196 646 196 646 278 700 c 1,12,-1
 471 578 l 1,13,14
 333 490 333 490 252 354 c 128,-1,15
 171 218 171 218 171 80 c 1,16,17
 214 73 214 73 267 73 c 0,0,1
188 781 m 1,18,-1
 366 903 l 1,19,-1
 426 778 l 1,20,-1
 222 713 l 1,21,-1
 188 781 l 1,18,-1
EndSplineSet
EndChar

StartChar: cacute
Encoding: 263 263 200
Width: 460
GlyphClass: 2
Flags: W
LayerCount: 2
Fore
SplineSet
227 63 m 0,0,1
 323 63 323 63 408 96 c 1,2,-1
 438 -1 l 1,3,4
 368 -24 368 -24 291 -24 c 128,-1,5
 214 -24 214 -24 155 -7.5 c 128,-1,6
 96 9 96 9 65 35 c 1,7,8
 50 107 50 107 50 169 c 0,9,10
 50 294 50 294 106.5 396 c 128,-1,11
 163 498 163 498 237 539 c 1,12,-1
 410 426 l 1,13,14
 284 358 284 358 212 264.5 c 128,-1,15
 140 171 140 171 140 69 c 1,16,17
 182 63 182 63 227 63 c 0,0,1
144 631 m 1,18,-1
 322 753 l 1,19,-1
 382 628 l 1,20,-1
 178 563 l 1,21,-1
 144 631 l 1,18,-1
EndSplineSet
EndChar

StartChar: Ccircumflex
Encoding: 264 264 201
Width: 502
GlyphClass: 2
Flags: W
LayerCount: 2
Fore
SplineSet
267 73 m 0,0,1
 372 73 372 73 468 109 c 1,2,-1
 502 1 l 1,3,4
 421 -24 421 -24 337 -24 c 128,-1,5
 253 -24 253 -24 187.5 -6 c 128,-1,6
 122 12 122 12 87 41 c 1,7,8
 70 125 70 125 70 207 c 0,9,10
 70 374 70 374 133 510 c 128,-1,11
 196 646 196 646 278 700 c 1,12,-1
 471 578 l 1,13,14
 333 490 333 490 252 354 c 128,-1,15
 171 218 171 218 171 80 c 1,16,17
 214 73 214 73 267 73 c 0,0,1
145 764 m 1,18,-1
 261 901 l 1,19,-1
 448 809 l 1,20,-1
 373 719 l 1,21,-1
 297 781 l 1,22,-1
 179 716 l 1,23,-1
 145 764 l 1,18,-1
EndSplineSet
EndChar

StartChar: ccircumflex
Encoding: 265 265 202
Width: 460
GlyphClass: 2
Flags: W
LayerCount: 2
Fore
SplineSet
227 63 m 0,0,1
 323 63 323 63 408 96 c 1,2,-1
 438 -1 l 1,3,4
 368 -24 368 -24 291 -24 c 128,-1,5
 214 -24 214 -24 155 -7.5 c 128,-1,6
 96 9 96 9 65 35 c 1,7,8
 50 107 50 107 50 169 c 0,9,10
 50 294 50 294 106.5 396 c 128,-1,11
 163 498 163 498 237 539 c 1,12,-1
 410 426 l 1,13,14
 284 358 284 358 212 264.5 c 128,-1,15
 140 171 140 171 140 69 c 1,16,17
 182 63 182 63 227 63 c 0,0,1
98 614 m 1,18,-1
 214 751 l 1,19,-1
 401 659 l 1,20,-1
 326 569 l 1,21,-1
 250 631 l 1,22,-1
 132 566 l 1,23,-1
 98 614 l 1,18,-1
EndSplineSet
EndChar

StartChar: Cdotaccent
Encoding: 266 266 203
Width: 502
GlyphClass: 2
Flags: W
LayerCount: 2
Fore
SplineSet
267 73 m 0,0,1
 372 73 372 73 468 109 c 1,2,-1
 502 1 l 1,3,4
 421 -24 421 -24 337 -24 c 128,-1,5
 253 -24 253 -24 187.5 -6 c 128,-1,6
 122 12 122 12 87 41 c 1,7,8
 70 125 70 125 70 207 c 0,9,10
 70 374 70 374 133 510 c 128,-1,11
 196 646 196 646 278 700 c 1,12,-1
 471 578 l 1,13,14
 333 490 333 490 252 354 c 128,-1,15
 171 218 171 218 171 80 c 1,16,17
 214 73 214 73 267 73 c 0,0,1
376 883 m 1,18,19
 376 803 376 803 364 755 c 1,20,21
 319 738 319 738 269 738 c 128,-1,22
 219 738 219 738 199 743 c 1,23,24
 199 816 199 816 227 871 c 1,25,26
 276 883 276 883 376 883 c 1,18,19
EndSplineSet
EndChar

StartChar: cdotaccent
Encoding: 267 267 204
Width: 460
GlyphClass: 2
Flags: W
LayerCount: 2
Fore
SplineSet
227 63 m 0,0,1
 323 63 323 63 408 96 c 1,2,-1
 438 -1 l 1,3,4
 368 -24 368 -24 291 -24 c 128,-1,5
 214 -24 214 -24 155 -7.5 c 128,-1,6
 96 9 96 9 65 35 c 1,7,8
 50 107 50 107 50 169 c 0,9,10
 50 294 50 294 106.5 396 c 128,-1,11
 163 498 163 498 237 539 c 1,12,-1
 410 426 l 1,13,14
 284 358 284 358 212 264.5 c 128,-1,15
 140 171 140 171 140 69 c 1,16,17
 182 63 182 63 227 63 c 0,0,1
340 733 m 1,18,19
 340 653 340 653 328 605 c 1,20,21
 283 588 283 588 233 588 c 128,-1,22
 183 588 183 588 163 593 c 1,23,24
 163 666 163 666 191 721 c 1,25,26
 240 733 240 733 340 733 c 1,18,19
EndSplineSet
EndChar

StartChar: Ccaron
Encoding: 268 268 205
Width: 502
GlyphClass: 2
Flags: W
LayerCount: 2
Fore
SplineSet
267 73 m 0,0,1
 372 73 372 73 468 109 c 1,2,-1
 502 1 l 1,3,4
 421 -24 421 -24 337 -24 c 128,-1,5
 253 -24 253 -24 187.5 -6 c 128,-1,6
 122 12 122 12 87 41 c 1,7,8
 70 125 70 125 70 207 c 0,9,10
 70 374 70 374 133 510 c 128,-1,11
 196 646 196 646 278 700 c 1,12,-1
 471 578 l 1,13,14
 333 490 333 490 252 354 c 128,-1,15
 171 218 171 218 171 80 c 1,16,17
 214 73 214 73 267 73 c 0,0,1
466 798 m 1,18,-1
 279 706 l 1,19,-1
 163 843 l 1,20,-1
 197 891 l 1,21,-1
 315 826 l 1,22,-1
 391 888 l 1,23,-1
 466 798 l 1,18,-1
EndSplineSet
EndChar

StartChar: ccaron
Encoding: 269 269 206
Width: 460
GlyphClass: 2
Flags: W
LayerCount: 2
Fore
SplineSet
227 63 m 0,0,1
 323 63 323 63 408 96 c 1,2,-1
 438 -1 l 1,3,4
 368 -24 368 -24 291 -24 c 128,-1,5
 214 -24 214 -24 155 -7.5 c 128,-1,6
 96 9 96 9 65 35 c 1,7,8
 50 107 50 107 50 169 c 0,9,10
 50 294 50 294 106.5 396 c 128,-1,11
 163 498 163 498 237 539 c 1,12,-1
 410 426 l 1,13,14
 284 358 284 358 212 264.5 c 128,-1,15
 140 171 140 171 140 69 c 1,16,17
 182 63 182 63 227 63 c 0,0,1
422 648 m 1,18,-1
 235 556 l 1,19,-1
 119 693 l 1,20,-1
 153 741 l 1,21,-1
 271 676 l 1,22,-1
 347 738 l 1,23,-1
 422 648 l 1,18,-1
EndSplineSet
EndChar

StartChar: Dcaron
Encoding: 270 270 207
Width: 654
GlyphClass: 2
Flags: W
LayerCount: 2
Fore
SplineSet
98 630 m 1,0,1
 245 677 245 677 376.5 677 c 128,-1,2
 508 677 508 677 591 637 c 1,3,4
 624 556 624 556 624 468 c 0,5,6
 624 349 624 349 566.5 241 c 128,-1,7
 509 133 509 133 399.5 61.5 c 128,-1,8
 290 -10 290 -10 155 -14 c 1,9,-1
 98 630 l 1,0,1
446 400 m 0,10,11
 446 473 446 473 424.5 530 c 128,-1,12
 403 587 403 587 363 610 c 1,13,14
 345 610 345 610 319 603 c 1,15,-1
 264 70 l 1,16,17
 354 107 354 107 400 199.5 c 128,-1,18
 446 292 446 292 446 400 c 0,10,11
513 798 m 1,19,-1
 326 706 l 1,20,-1
 210 843 l 1,21,-1
 244 891 l 1,22,-1
 362 826 l 1,23,-1
 438 888 l 1,24,-1
 513 798 l 1,19,-1
EndSplineSet
EndChar

StartChar: dcaron
Encoding: 271 271 208
Width: 701
GlyphClass: 2
Flags: W
LayerCount: 2
Fore
SplineSet
205 -23 m 0,0,1
 181 -23 181 -23 165 -15 c 1,2,3
 128 23 128 23 105.5 98 c 128,-1,4
 83 173 83 173 83 265 c 0,5,6
 83 384 83 384 129.5 440 c 128,-1,7
 176 496 176 496 291 496 c 0,8,9
 362 496 362 496 432 468 c 1,10,-1
 417 683 l 1,11,-1
 631 716 l 1,12,-1
 567 -6 l 1,13,-1
 468 -15 l 1,14,-1
 455 157 l 1,15,-1
 447 157 l 1,16,17
 370 -23 370 -23 205 -23 c 0,0,1
330 436 m 0,18,19
 293 436 293 436 267 422 c 1,20,21
 253 350 253 350 253 273 c 0,22,23
 253 113 253 113 273 58 c 1,24,25
 322 66 322 66 376 127 c 0,26,27
 404 159 404 159 422.5 218 c 128,-1,28
 441 277 441 277 441 353 c 0,29,30
 441 368 441 368 439 400 c 1,31,32
 394 436 394 436 330 436 c 0,18,19
758 671 m 1,33,34
 746 661 746 661 726.5 661 c 128,-1,35
 707 661 707 661 694.5 682.5 c 128,-1,36
 682 704 682 704 682 742.5 c 128,-1,37
 682 781 682 781 698.5 800 c 128,-1,38
 715 819 715 819 762 819 c 128,-1,39
 809 819 809 819 834 792 c 1,40,41
 840 759 840 759 840 721 c 0,42,43
 840 606 840 606 765 539 c 1,44,-1
 711 590 l 1,45,46
 751 623 751 623 762 669 c 1,47,-1
 758 671 l 1,33,34
EndSplineSet
EndChar

StartChar: Dcroat
Encoding: 272 272 209
Width: 654
GlyphClass: 2
Flags: W
LayerCount: 2
Fore
SplineSet
98 630 m 1,0,1
 245 677 245 677 376.5 677 c 128,-1,2
 508 677 508 677 591 637 c 1,3,4
 624 556 624 556 624 468 c 0,5,6
 624 349 624 349 566.5 241 c 128,-1,7
 509 133 509 133 399.5 61.5 c 128,-1,8
 290 -10 290 -10 155 -14 c 1,9,-1
 98 630 l 1,0,1
446 400 m 0,10,11
 446 473 446 473 424.5 530 c 128,-1,12
 403 587 403 587 363 610 c 1,13,14
 345 610 345 610 319 603 c 1,15,-1
 264 70 l 1,16,17
 354 107 354 107 400 199.5 c 128,-1,18
 446 292 446 292 446 400 c 0,10,11
392 316 m 1,19,-1
 20 289 l 1,20,-1
 30 369 l 1,21,-1
 402 369 l 1,22,-1
 392 316 l 1,19,-1
EndSplineSet
EndChar

StartChar: dcroat
Encoding: 273 273 210
Width: 701
GlyphClass: 2
Flags: W
LayerCount: 2
Fore
SplineSet
205 -23 m 0,0,1
 181 -23 181 -23 165 -15 c 1,2,3
 128 23 128 23 105.5 98 c 128,-1,4
 83 173 83 173 83 265 c 0,5,6
 83 384 83 384 129.5 440 c 128,-1,7
 176 496 176 496 291 496 c 0,8,9
 362 496 362 496 432 468 c 1,10,-1
 417 683 l 1,11,-1
 631 716 l 1,12,-1
 567 -6 l 1,13,-1
 468 -15 l 1,14,-1
 455 157 l 1,15,-1
 447 157 l 1,16,17
 370 -23 370 -23 205 -23 c 0,0,1
330 436 m 0,18,19
 293 436 293 436 267 422 c 1,20,21
 253 350 253 350 253 273 c 0,22,23
 253 113 253 113 273 58 c 1,24,25
 322 66 322 66 376 127 c 0,26,27
 404 159 404 159 422.5 218 c 128,-1,28
 441 277 441 277 441 353 c 0,29,30
 441 368 441 368 439 400 c 1,31,32
 394 436 394 436 330 436 c 0,18,19
699 597 m 1,33,-1
 327 570 l 1,34,-1
 337 650 l 1,35,-1
 709 650 l 1,36,-1
 699 597 l 1,33,-1
EndSplineSet
EndChar

StartChar: Emacron
Encoding: 274 274 211
Width: 605
GlyphClass: 2
Flags: W
LayerCount: 2
Fore
SplineSet
531 0 m 1,0,-1
 140 -9 l 1,1,-1
 93 650 l 1,2,-1
 534 664 l 1,3,-1
 531 597 l 1,4,-1
 320 572 l 1,5,-1
 294 365 l 1,6,-1
 507 367 l 1,7,-1
 512 277 l 1,8,-1
 286 294 l 1,9,-1
 259 71 l 1,10,-1
 535 103 l 1,11,-1
 531 0 l 1,0,-1
429 761 m 1,12,-1
 168 734 l 1,13,-1
 175 853 l 1,14,-1
 436 853 l 1,15,-1
 429 761 l 1,12,-1
EndSplineSet
EndChar

StartChar: emacron
Encoding: 275 275 212
Width: 534
GlyphClass: 2
Flags: W
LayerCount: 2
Fore
SplineSet
237 539 m 1,0,1
 479 442 479 442 479 298 c 0,2,3
 479 223 479 223 436.5 189.5 c 128,-1,4
 394 156 394 156 279 156 c 0,5,6
 206 156 206 156 159 167 c 1,7,8
 140 120 140 120 140 69 c 1,9,10
 185 63 185 63 242 63 c 0,11,12
 346 63 346 63 438 96 c 1,13,-1
 468 -1 l 1,14,15
 395 -24 395 -24 304 -24 c 0,16,17
 142 -24 142 -24 66 35 c 1,18,19
 50 106 50 106 50 169 c 0,20,21
 50 295 50 295 105.5 396 c 128,-1,22
 161 497 161 497 237 539 c 1,0,1
179 214 m 1,23,24
 192 213 192 213 244.5 213 c 128,-1,25
 297 213 297 213 365 227 c 1,26,27
 368 246 368 246 368 265 c 0,28,29
 368 325 368 325 335 380 c 1,30,31
 236 314 236 314 179 214 c 1,23,24
429 611 m 1,32,-1
 168 584 l 1,33,-1
 175 703 l 1,34,-1
 436 703 l 1,35,-1
 429 611 l 1,32,-1
EndSplineSet
EndChar

StartChar: Ebreve
Encoding: 276 276 213
Width: 605
GlyphClass: 2
Flags: W
LayerCount: 2
Fore
SplineSet
531 0 m 1,0,-1
 140 -9 l 1,1,-1
 93 650 l 1,2,-1
 534 664 l 1,3,-1
 531 597 l 1,4,-1
 320 572 l 1,5,-1
 294 365 l 1,6,-1
 507 367 l 1,7,-1
 512 277 l 1,8,-1
 286 294 l 1,9,-1
 259 71 l 1,10,-1
 535 103 l 1,11,-1
 531 0 l 1,0,-1
287 706 m 0,12,13
 236 706 236 706 202 754 c 0,14,15
 176 791 176 791 153 849 c 1,16,-1
 206 882 l 1,17,18
 222 854 222 854 230.5 841.5 c 128,-1,19
 239 829 239 829 254.5 818 c 128,-1,20
 270 807 270 807 294 807 c 128,-1,21
 318 807 318 807 335 828 c 128,-1,22
 352 849 352 849 368 888 c 1,23,-1
 452 833 l 1,24,25
 377 706 377 706 287 706 c 0,12,13
EndSplineSet
EndChar

StartChar: ebreve
Encoding: 277 277 214
Width: 534
GlyphClass: 2
Flags: W
LayerCount: 2
Fore
SplineSet
237 539 m 1,0,1
 479 442 479 442 479 298 c 0,2,3
 479 223 479 223 436.5 189.5 c 128,-1,4
 394 156 394 156 279 156 c 0,5,6
 206 156 206 156 159 167 c 1,7,8
 140 120 140 120 140 69 c 1,9,10
 185 63 185 63 242 63 c 0,11,12
 346 63 346 63 438 96 c 1,13,-1
 468 -1 l 1,14,15
 395 -24 395 -24 304 -24 c 0,16,17
 142 -24 142 -24 66 35 c 1,18,19
 50 106 50 106 50 169 c 0,20,21
 50 295 50 295 105.5 396 c 128,-1,22
 161 497 161 497 237 539 c 1,0,1
179 214 m 1,23,24
 192 213 192 213 244.5 213 c 128,-1,25
 297 213 297 213 365 227 c 1,26,27
 368 246 368 246 368 265 c 0,28,29
 368 325 368 325 335 380 c 1,30,31
 236 314 236 314 179 214 c 1,23,24
287 556 m 0,32,33
 236 556 236 556 202 604 c 0,34,35
 176 641 176 641 153 699 c 1,36,-1
 206 732 l 1,37,38
 222 704 222 704 230.5 691.5 c 128,-1,39
 239 679 239 679 254.5 668 c 128,-1,40
 270 657 270 657 294 657 c 128,-1,41
 318 657 318 657 335 678 c 128,-1,42
 352 699 352 699 368 738 c 1,43,-1
 452 683 l 1,44,45
 377 556 377 556 287 556 c 0,32,33
EndSplineSet
EndChar

StartChar: Edotaccent
Encoding: 278 278 215
Width: 605
GlyphClass: 2
Flags: W
LayerCount: 2
Fore
SplineSet
531 0 m 1,0,-1
 140 -9 l 1,1,-1
 93 650 l 1,2,-1
 534 664 l 1,3,-1
 531 597 l 1,4,-1
 320 572 l 1,5,-1
 294 365 l 1,6,-1
 507 367 l 1,7,-1
 512 277 l 1,8,-1
 286 294 l 1,9,-1
 259 71 l 1,10,-1
 535 103 l 1,11,-1
 531 0 l 1,0,-1
391 883 m 1,12,13
 391 803 391 803 379 755 c 1,14,15
 334 738 334 738 284 738 c 128,-1,16
 234 738 234 738 214 743 c 1,17,18
 214 816 214 816 242 871 c 1,19,20
 291 883 291 883 391 883 c 1,12,13
EndSplineSet
EndChar

StartChar: edotaccent
Encoding: 279 279 216
Width: 534
GlyphClass: 2
Flags: W
LayerCount: 2
Fore
SplineSet
237 539 m 1,0,1
 479 442 479 442 479 298 c 0,2,3
 479 223 479 223 436.5 189.5 c 128,-1,4
 394 156 394 156 279 156 c 0,5,6
 206 156 206 156 159 167 c 1,7,8
 140 120 140 120 140 69 c 1,9,10
 185 63 185 63 242 63 c 0,11,12
 346 63 346 63 438 96 c 1,13,-1
 468 -1 l 1,14,15
 395 -24 395 -24 304 -24 c 0,16,17
 142 -24 142 -24 66 35 c 1,18,19
 50 106 50 106 50 169 c 0,20,21
 50 295 50 295 105.5 396 c 128,-1,22
 161 497 161 497 237 539 c 1,0,1
179 214 m 1,23,24
 192 213 192 213 244.5 213 c 128,-1,25
 297 213 297 213 365 227 c 1,26,27
 368 246 368 246 368 265 c 0,28,29
 368 325 368 325 335 380 c 1,30,31
 236 314 236 314 179 214 c 1,23,24
390 733 m 1,32,33
 390 653 390 653 378 605 c 1,34,35
 333 588 333 588 283 588 c 128,-1,36
 233 588 233 588 213 593 c 1,37,38
 213 666 213 666 241 721 c 1,39,40
 290 733 290 733 390 733 c 1,32,33
EndSplineSet
EndChar

StartChar: Eogonek
Encoding: 280 280 217
Width: 605
GlyphClass: 2
Flags: W
LayerCount: 2
Fore
SplineSet
531 0 m 1,0,-1
 140 -9 l 1,1,-1
 93 650 l 1,2,-1
 534 664 l 1,3,-1
 531 597 l 1,4,-1
 320 572 l 1,5,-1
 294 365 l 1,6,-1
 507 367 l 1,7,-1
 512 277 l 1,8,-1
 286 294 l 1,9,-1
 259 71 l 1,10,-1
 535 103 l 1,11,-1
 531 0 l 1,0,-1
621 -181 m 1,12,13
 566 -202 566 -202 511 -202 c 128,-1,14
 456 -202 456 -202 408.5 -178 c 128,-1,15
 361 -154 361 -154 361 -102 c 0,16,17
 361 -52 361 -52 410 -12 c 0,18,19
 450 21 450 21 503 50 c 1,20,-1
 531 0 l 1,21,22
 449 -42 449 -42 422 -98 c 1,23,24
 454 -111 454 -111 490.5 -111 c 128,-1,25
 527 -111 527 -111 587 -85 c 1,26,-1
 621 -181 l 1,12,13
EndSplineSet
EndChar

StartChar: eogonek
Encoding: 281 281 218
Width: 534
GlyphClass: 2
Flags: W
LayerCount: 2
Fore
SplineSet
237 539 m 1,0,1
 479 442 479 442 479 298 c 0,2,3
 479 223 479 223 436.5 189.5 c 128,-1,4
 394 156 394 156 279 156 c 0,5,6
 206 156 206 156 159 167 c 1,7,8
 140 120 140 120 140 69 c 1,9,10
 185 63 185 63 242 63 c 0,11,12
 346 63 346 63 438 96 c 1,13,-1
 468 -1 l 1,14,15
 395 -24 395 -24 304 -24 c 0,16,17
 142 -24 142 -24 66 35 c 1,18,19
 50 106 50 106 50 169 c 0,20,21
 50 295 50 295 105.5 396 c 128,-1,22
 161 497 161 497 237 539 c 1,0,1
179 214 m 1,23,24
 192 213 192 213 244.5 213 c 128,-1,25
 297 213 297 213 365 227 c 1,26,27
 368 246 368 246 368 265 c 0,28,29
 368 325 368 325 335 380 c 1,30,31
 236 314 236 314 179 214 c 1,23,24
541 -187 m 1,32,33
 486 -208 486 -208 431 -208 c 128,-1,34
 376 -208 376 -208 328.5 -184 c 128,-1,35
 281 -160 281 -160 281 -108 c 0,36,37
 281 -58 281 -58 330 -18 c 0,38,39
 370 15 370 15 423 44 c 1,40,-1
 451 -6 l 1,41,42
 369 -48 369 -48 342 -104 c 1,43,44
 374 -117 374 -117 410.5 -117 c 128,-1,45
 447 -117 447 -117 507 -91 c 1,46,-1
 541 -187 l 1,32,33
EndSplineSet
EndChar

StartChar: Ecaron
Encoding: 282 282 219
Width: 605
GlyphClass: 2
Flags: W
LayerCount: 2
Fore
SplineSet
531 0 m 1,0,-1
 140 -9 l 1,1,-1
 93 650 l 1,2,-1
 534 664 l 1,3,-1
 531 597 l 1,4,-1
 320 572 l 1,5,-1
 294 365 l 1,6,-1
 507 367 l 1,7,-1
 512 277 l 1,8,-1
 286 294 l 1,9,-1
 259 71 l 1,10,-1
 535 103 l 1,11,-1
 531 0 l 1,0,-1
470 798 m 1,12,-1
 283 706 l 1,13,-1
 167 843 l 1,14,-1
 201 891 l 1,15,-1
 319 826 l 1,16,-1
 395 888 l 1,17,-1
 470 798 l 1,12,-1
EndSplineSet
EndChar

StartChar: ecaron
Encoding: 283 283 220
Width: 534
GlyphClass: 2
Flags: W
LayerCount: 2
Fore
SplineSet
237 539 m 1,0,1
 479 442 479 442 479 298 c 0,2,3
 479 223 479 223 436.5 189.5 c 128,-1,4
 394 156 394 156 279 156 c 0,5,6
 206 156 206 156 159 167 c 1,7,8
 140 120 140 120 140 69 c 1,9,10
 185 63 185 63 242 63 c 0,11,12
 346 63 346 63 438 96 c 1,13,-1
 468 -1 l 1,14,15
 395 -24 395 -24 304 -24 c 0,16,17
 142 -24 142 -24 66 35 c 1,18,19
 50 106 50 106 50 169 c 0,20,21
 50 295 50 295 105.5 396 c 128,-1,22
 161 497 161 497 237 539 c 1,0,1
179 214 m 1,23,24
 192 213 192 213 244.5 213 c 128,-1,25
 297 213 297 213 365 227 c 1,26,27
 368 246 368 246 368 265 c 0,28,29
 368 325 368 325 335 380 c 1,30,31
 236 314 236 314 179 214 c 1,23,24
453 648 m 1,32,-1
 266 556 l 1,33,-1
 150 693 l 1,34,-1
 184 741 l 1,35,-1
 302 676 l 1,36,-1
 378 738 l 1,37,-1
 453 648 l 1,32,-1
EndSplineSet
EndChar

StartChar: Gcircumflex
Encoding: 284 284 221
Width: 576
GlyphClass: 2
Flags: W
LayerCount: 2
Fore
SplineSet
330 -14 m 0,0,1
 253 -14 253 -14 187.5 4 c 128,-1,2
 122 22 122 22 87 51 c 1,3,4
 70 131 70 131 70 217 c 0,5,6
 70 364 70 364 121 493.5 c 128,-1,7
 172 623 172 623 278 700 c 1,8,-1
 471 578 l 1,9,10
 333 490 333 490 252 354 c 128,-1,11
 171 218 171 218 171 80 c 1,12,13
 226 69 226 69 279.5 69 c 128,-1,14
 333 69 333 69 376 79 c 1,15,-1
 356 298 l 1,16,-1
 546 310 l 1,17,-1
 486 -42 l 1,18,-1
 388 -50 l 1,19,-1
 384 -11 l 1,20,21
 357 -14 357 -14 330 -14 c 0,0,1
149 764 m 1,22,-1
 265 901 l 1,23,-1
 452 809 l 1,24,-1
 377 719 l 1,25,-1
 301 781 l 1,26,-1
 183 716 l 1,27,-1
 149 764 l 1,22,-1
EndSplineSet
EndChar

StartChar: gcircumflex
Encoding: 285 285 222
Width: 720
GlyphClass: 2
Flags: W
LayerCount: 2
Fore
SplineSet
330 437 m 0,0,1
 293 437 293 437 267 423 c 1,2,3
 253 355 253 355 253 282 c 128,-1,4
 253 209 253 209 259 153.5 c 128,-1,5
 265 98 265 98 273 78 c 1,6,7
 321 87 321 87 375 143 c 0,8,9
 404 173 404 173 422.5 229.5 c 128,-1,10
 441 286 441 286 441 358 c 0,11,12
 441 370 441 370 439 402 c 1,13,14
 393 437 393 437 330 437 c 0,0,1
403 -220 m 0,15,16
 303 -220 303 -220 197 -150 c 1,17,-1
 225 -100 l 1,18,19
 314 -139 314 -139 372.5 -139 c 128,-1,20
 431 -139 431 -139 458.5 -108 c 128,-1,21
 486 -77 486 -77 486 -25 c 0,22,23
 486 -9 486 -9 465 196 c 1,24,-1
 457 196 l 1,25,26
 383 -3 383 -3 205 -3 c 0,27,28
 181 -3 181 -3 165 5 c 1,29,30
 128 42 128 42 105.5 113.5 c 128,-1,31
 83 185 83 185 83 274 c 0,32,33
 83 389 83 389 129.5 442.5 c 128,-1,34
 176 496 176 496 291 496 c 0,35,36
 375 496 375 496 436 456 c 1,37,-1
 458 485 l 1,38,-1
 650 514 l 1,39,-1
 581 -45 l 2,40,41
 571 -126 571 -126 525 -173 c 128,-1,42
 479 -220 479 -220 403 -220 c 0,15,16
208 614 m 1,43,-1
 324 751 l 1,44,-1
 511 659 l 1,45,-1
 436 569 l 1,46,-1
 360 631 l 1,47,-1
 242 566 l 1,48,-1
 208 614 l 1,43,-1
EndSplineSet
EndChar

StartChar: Gbreve
Encoding: 286 286 223
Width: 576
GlyphClass: 2
Flags: W
LayerCount: 2
Fore
SplineSet
330 -14 m 0,0,1
 253 -14 253 -14 187.5 4 c 128,-1,2
 122 22 122 22 87 51 c 1,3,4
 70 131 70 131 70 217 c 0,5,6
 70 364 70 364 121 493.5 c 128,-1,7
 172 623 172 623 278 700 c 1,8,-1
 471 578 l 1,9,10
 333 490 333 490 252 354 c 128,-1,11
 171 218 171 218 171 80 c 1,12,13
 226 69 226 69 279.5 69 c 128,-1,14
 333 69 333 69 376 79 c 1,15,-1
 356 298 l 1,16,-1
 546 310 l 1,17,-1
 486 -42 l 1,18,-1
 388 -50 l 1,19,-1
 384 -11 l 1,20,21
 357 -14 357 -14 330 -14 c 0,0,1
272 706 m 0,22,23
 221 706 221 706 187 754 c 0,24,25
 161 791 161 791 138 849 c 1,26,-1
 191 882 l 1,27,28
 207 854 207 854 215.5 841.5 c 128,-1,29
 224 829 224 829 239.5 818 c 128,-1,30
 255 807 255 807 279 807 c 128,-1,31
 303 807 303 807 320 828 c 128,-1,32
 337 849 337 849 353 888 c 1,33,-1
 437 833 l 1,34,35
 362 706 362 706 272 706 c 0,22,23
EndSplineSet
EndChar

StartChar: gbreve
Encoding: 287 287 224
Width: 720
GlyphClass: 2
Flags: W
LayerCount: 2
Fore
SplineSet
330 437 m 0,0,1
 293 437 293 437 267 423 c 1,2,3
 253 355 253 355 253 282 c 128,-1,4
 253 209 253 209 259 153.5 c 128,-1,5
 265 98 265 98 273 78 c 1,6,7
 321 87 321 87 375 143 c 0,8,9
 404 173 404 173 422.5 229.5 c 128,-1,10
 441 286 441 286 441 358 c 0,11,12
 441 370 441 370 439 402 c 1,13,14
 393 437 393 437 330 437 c 0,0,1
403 -220 m 0,15,16
 303 -220 303 -220 197 -150 c 1,17,-1
 225 -100 l 1,18,19
 314 -139 314 -139 372.5 -139 c 128,-1,20
 431 -139 431 -139 458.5 -108 c 128,-1,21
 486 -77 486 -77 486 -25 c 0,22,23
 486 -9 486 -9 465 196 c 1,24,-1
 457 196 l 1,25,26
 383 -3 383 -3 205 -3 c 0,27,28
 181 -3 181 -3 165 5 c 1,29,30
 128 42 128 42 105.5 113.5 c 128,-1,31
 83 185 83 185 83 274 c 0,32,33
 83 389 83 389 129.5 442.5 c 128,-1,34
 176 496 176 496 291 496 c 0,35,36
 375 496 375 496 436 456 c 1,37,-1
 458 485 l 1,38,-1
 650 514 l 1,39,-1
 581 -45 l 2,40,41
 571 -126 571 -126 525 -173 c 128,-1,42
 479 -220 479 -220 403 -220 c 0,15,16
344 556 m 0,43,44
 293 556 293 556 259 604 c 0,45,46
 233 641 233 641 210 699 c 1,47,-1
 263 732 l 1,48,49
 279 704 279 704 287.5 691.5 c 128,-1,50
 296 679 296 679 311.5 668 c 128,-1,51
 327 657 327 657 351 657 c 128,-1,52
 375 657 375 657 392 678 c 128,-1,53
 409 699 409 699 425 738 c 1,54,-1
 509 683 l 1,55,56
 434 556 434 556 344 556 c 0,43,44
EndSplineSet
EndChar

StartChar: Gdotaccent
Encoding: 288 288 225
Width: 576
GlyphClass: 2
Flags: W
LayerCount: 2
Fore
SplineSet
330 -14 m 0,0,1
 253 -14 253 -14 187.5 4 c 128,-1,2
 122 22 122 22 87 51 c 1,3,4
 70 131 70 131 70 217 c 0,5,6
 70 364 70 364 121 493.5 c 128,-1,7
 172 623 172 623 278 700 c 1,8,-1
 471 578 l 1,9,10
 333 490 333 490 252 354 c 128,-1,11
 171 218 171 218 171 80 c 1,12,13
 226 69 226 69 279.5 69 c 128,-1,14
 333 69 333 69 376 79 c 1,15,-1
 356 298 l 1,16,-1
 546 310 l 1,17,-1
 486 -42 l 1,18,-1
 388 -50 l 1,19,-1
 384 -11 l 1,20,21
 357 -14 357 -14 330 -14 c 0,0,1
389 883 m 1,22,23
 389 803 389 803 377 755 c 1,24,25
 332 738 332 738 282 738 c 128,-1,26
 232 738 232 738 212 743 c 1,27,28
 212 816 212 816 240 871 c 1,29,30
 289 883 289 883 389 883 c 1,22,23
EndSplineSet
EndChar

StartChar: gdotaccent
Encoding: 289 289 226
Width: 720
GlyphClass: 2
Flags: W
LayerCount: 2
Fore
SplineSet
330 437 m 0,0,1
 293 437 293 437 267 423 c 1,2,3
 253 355 253 355 253 282 c 128,-1,4
 253 209 253 209 259 153.5 c 128,-1,5
 265 98 265 98 273 78 c 1,6,7
 321 87 321 87 375 143 c 0,8,9
 404 173 404 173 422.5 229.5 c 128,-1,10
 441 286 441 286 441 358 c 0,11,12
 441 370 441 370 439 402 c 1,13,14
 393 437 393 437 330 437 c 0,0,1
403 -220 m 0,15,16
 303 -220 303 -220 197 -150 c 1,17,-1
 225 -100 l 1,18,19
 314 -139 314 -139 372.5 -139 c 128,-1,20
 431 -139 431 -139 458.5 -108 c 128,-1,21
 486 -77 486 -77 486 -25 c 0,22,23
 486 -9 486 -9 465 196 c 1,24,-1
 457 196 l 1,25,26
 383 -3 383 -3 205 -3 c 0,27,28
 181 -3 181 -3 165 5 c 1,29,30
 128 42 128 42 105.5 113.5 c 128,-1,31
 83 185 83 185 83 274 c 0,32,33
 83 389 83 389 129.5 442.5 c 128,-1,34
 176 496 176 496 291 496 c 0,35,36
 375 496 375 496 436 456 c 1,37,-1
 458 485 l 1,38,-1
 650 514 l 1,39,-1
 581 -45 l 2,40,41
 571 -126 571 -126 525 -173 c 128,-1,42
 479 -220 479 -220 403 -220 c 0,15,16
448 733 m 1,43,44
 448 653 448 653 436 605 c 1,45,46
 391 588 391 588 341 588 c 128,-1,47
 291 588 291 588 271 593 c 1,48,49
 271 666 271 666 299 721 c 1,50,51
 348 733 348 733 448 733 c 1,43,44
EndSplineSet
EndChar

StartChar: uni0122
Encoding: 290 290 227
Width: 576
GlyphClass: 2
Flags: W
LayerCount: 2
Fore
SplineSet
330 -14 m 0,0,1
 253 -14 253 -14 187.5 4 c 128,-1,2
 122 22 122 22 87 51 c 1,3,4
 70 131 70 131 70 217 c 0,5,6
 70 364 70 364 121 493.5 c 128,-1,7
 172 623 172 623 278 700 c 1,8,-1
 471 578 l 1,9,10
 333 490 333 490 252 354 c 128,-1,11
 171 218 171 218 171 80 c 1,12,13
 226 69 226 69 279.5 69 c 128,-1,14
 333 69 333 69 376 79 c 1,15,-1
 356 298 l 1,16,-1
 546 310 l 1,17,-1
 486 -42 l 1,18,-1
 388 -50 l 1,19,-1
 384 -11 l 1,20,21
 357 -14 357 -14 330 -14 c 0,0,1
279 -199 m 1,22,23
 267 -209 267 -209 247.5 -209 c 128,-1,24
 228 -209 228 -209 215.5 -187.5 c 128,-1,25
 203 -166 203 -166 203 -127.5 c 128,-1,26
 203 -89 203 -89 219.5 -70 c 128,-1,27
 236 -51 236 -51 283 -51 c 128,-1,28
 330 -51 330 -51 355 -78 c 1,29,30
 361 -111 361 -111 361 -149 c 0,31,32
 361 -264 361 -264 286 -331 c 1,33,-1
 232 -280 l 1,34,35
 272 -247 272 -247 283 -201 c 1,36,-1
 279 -199 l 1,22,23
EndSplineSet
EndChar

StartChar: uni0123
Encoding: 291 291 228
Width: 720
GlyphClass: 2
Flags: W
LayerCount: 2
Fore
SplineSet
330 437 m 0,0,1
 293 437 293 437 267 423 c 1,2,3
 253 355 253 355 253 282 c 128,-1,4
 253 209 253 209 259 153.5 c 128,-1,5
 265 98 265 98 273 78 c 1,6,7
 321 87 321 87 375 143 c 0,8,9
 404 173 404 173 422.5 229.5 c 128,-1,10
 441 286 441 286 441 358 c 0,11,12
 441 370 441 370 439 402 c 1,13,14
 393 437 393 437 330 437 c 0,0,1
403 -220 m 0,15,16
 303 -220 303 -220 197 -150 c 1,17,-1
 225 -100 l 1,18,19
 314 -139 314 -139 372.5 -139 c 128,-1,20
 431 -139 431 -139 458.5 -108 c 128,-1,21
 486 -77 486 -77 486 -25 c 0,22,23
 486 -9 486 -9 465 196 c 1,24,-1
 457 196 l 1,25,26
 383 -3 383 -3 205 -3 c 0,27,28
 181 -3 181 -3 165 5 c 1,29,30
 128 42 128 42 105.5 113.5 c 128,-1,31
 83 185 83 185 83 274 c 0,32,33
 83 389 83 389 129.5 442.5 c 128,-1,34
 176 496 176 496 291 496 c 0,35,36
 375 496 375 496 436 456 c 1,37,-1
 458 485 l 1,38,-1
 650 514 l 1,39,-1
 581 -45 l 2,40,41
 571 -126 571 -126 525 -173 c 128,-1,42
 479 -220 479 -220 403 -220 c 0,15,16
357 696 m 1,43,44
 369 706 369 706 388.5 706 c 128,-1,45
 408 706 408 706 420.5 684.5 c 128,-1,46
 433 663 433 663 433 624.5 c 128,-1,47
 433 586 433 586 416.5 567 c 128,-1,48
 400 548 400 548 353 548 c 128,-1,49
 306 548 306 548 281 575 c 1,50,51
 275 608 275 608 275 646 c 0,52,53
 275 761 275 761 350 828 c 1,54,-1
 404 777 l 1,55,56
 364 744 364 744 353 698 c 1,57,-1
 357 696 l 1,43,44
EndSplineSet
EndChar

StartChar: Hcircumflex
Encoding: 292 292 229
Width: 769
GlyphClass: 2
Flags: W
LayerCount: 2
Fore
SplineSet
513 -16 m 1,0,-1
 490 246 l 1,1,-1
 279 229 l 1,2,-1
 255 -4 l 1,3,-1
 155 -14 l 1,4,-1
 98 650 l 1,5,-1
 326 665 l 1,6,-1
 288 306 l 1,7,-1
 485 304 l 1,8,-1
 456 648 l 1,9,-1
 684 663 l 1,10,-1
 613 -6 l 1,11,-1
 513 -16 l 1,0,-1
233 764 m 1,12,-1
 349 901 l 1,13,-1
 536 809 l 1,14,-1
 461 719 l 1,15,-1
 385 781 l 1,16,-1
 267 716 l 1,17,-1
 233 764 l 1,12,-1
EndSplineSet
EndChar

StartChar: hcircumflex
Encoding: 293 293 230
Width: 665
GlyphClass: 2
Flags: W
LayerCount: 2
Fore
SplineSet
469 523 m 0,0,1
 487 523 487 523 505 517 c 1,2,3
 556 455 556 455 575 302.5 c 128,-1,4
 594 150 594 150 594 0 c 1,5,-1
 414 -15 l 1,6,7
 414 215 414 215 397 404 c 1,8,9
 264 355 264 355 220 -6 c 1,10,-1
 121 -15 l 1,11,-1
 70 683 l 1,12,-1
 284 716 l 1,13,-1
 247 304 l 1,14,-1
 256 304 l 1,15,16
 297 405 297 405 352.5 464 c 128,-1,17
 408 523 408 523 469 523 c 0,0,1
38 804 m 1,18,-1
 154 941 l 1,19,-1
 341 849 l 1,20,-1
 266 759 l 1,21,-1
 190 821 l 1,22,-1
 72 756 l 1,23,-1
 38 804 l 1,18,-1
EndSplineSet
EndChar

StartChar: Hbar
Encoding: 294 294 231
Width: 769
GlyphClass: 2
Flags: W
LayerCount: 2
Fore
SplineSet
513 -16 m 1,0,-1
 490 246 l 1,1,-1
 279 229 l 1,2,-1
 255 -4 l 1,3,-1
 155 -14 l 1,4,-1
 98 650 l 1,5,-1
 326 665 l 1,6,-1
 288 306 l 1,7,-1
 485 304 l 1,8,-1
 456 648 l 1,9,-1
 684 663 l 1,10,-1
 613 -6 l 1,11,-1
 513 -16 l 1,0,-1
728 447 m 1,12,-1
 21 420 l 1,13,-1
 40 500 l 1,14,-1
 747 500 l 1,15,-1
 728 447 l 1,12,-1
EndSplineSet
EndChar

StartChar: hbar
Encoding: 295 295 232
Width: 665
GlyphClass: 2
Flags: W
LayerCount: 2
Fore
SplineSet
469 523 m 0,0,1
 487 523 487 523 505 517 c 1,2,3
 556 455 556 455 575 302.5 c 128,-1,4
 594 150 594 150 594 0 c 1,5,-1
 414 -15 l 1,6,7
 414 215 414 215 397 404 c 1,8,9
 264 355 264 355 220 -6 c 1,10,-1
 121 -15 l 1,11,-1
 70 683 l 1,12,-1
 284 716 l 1,13,-1
 247 304 l 1,14,-1
 256 304 l 1,15,16
 297 405 297 405 352.5 464 c 128,-1,17
 408 523 408 523 469 523 c 0,0,1
372 597 m 1,18,-1
 0 570 l 1,19,-1
 10 650 l 1,20,-1
 382 650 l 1,21,-1
 372 597 l 1,18,-1
EndSplineSet
EndChar

StartChar: Itilde
Encoding: 296 296 233
Width: 431
GlyphClass: 2
Flags: W
LayerCount: 2
Fore
SplineSet
155 -14 m 1,0,-1
 98 650 l 1,1,-1
 336 665 l 1,2,-1
 265 -4 l 1,3,-1
 155 -14 l 1,0,-1
269 847 m 0,4,5
 292 847 292 847 312 892 c 1,6,-1
 372 876 l 1,7,8
 354 735 354 735 287 735 c 0,9,10
 271 735 271 735 235.5 748 c 128,-1,11
 200 761 200 761 182 761 c 0,12,13
 159 761 159 761 139 716 c 1,14,-1
 79 732 l 1,15,16
 97 873 97 873 164 873 c 0,17,18
 180 873 180 873 215.5 860 c 128,-1,19
 251 847 251 847 269 847 c 0,4,5
EndSplineSet
EndChar

StartChar: itilde
Encoding: 297 297 234
Width: 354
GlyphClass: 2
Flags: W
LayerCount: 2
Fore
SplineSet
121 -15 m 1,0,-1
 70 480 l 1,1,-1
 284 513 l 1,2,-1
 220 -6 l 1,3,-1
 121 -15 l 1,0,-1
221 697 m 0,4,5
 244 697 244 697 264 742 c 1,6,-1
 324 726 l 1,7,8
 306 585 306 585 239 585 c 0,9,10
 223 585 223 585 187.5 598 c 128,-1,11
 152 611 152 611 134 611 c 0,12,13
 111 611 111 611 91 566 c 1,14,-1
 31 582 l 1,15,16
 49 723 49 723 116 723 c 0,17,18
 132 723 132 723 167.5 710 c 128,-1,19
 203 697 203 697 221 697 c 0,4,5
EndSplineSet
EndChar

StartChar: Imacron
Encoding: 298 298 235
Width: 431
GlyphClass: 2
Flags: W
LayerCount: 2
Fore
SplineSet
155 -14 m 1,0,-1
 98 650 l 1,1,-1
 336 665 l 1,2,-1
 265 -4 l 1,3,-1
 155 -14 l 1,0,-1
352 761 m 1,4,-1
 91 734 l 1,5,-1
 98 853 l 1,6,-1
 359 853 l 1,7,-1
 352 761 l 1,4,-1
EndSplineSet
EndChar

StartChar: imacron
Encoding: 299 299 236
Width: 354
GlyphClass: 2
Flags: W
LayerCount: 2
Fore
SplineSet
121 -15 m 1,0,-1
 70 480 l 1,1,-1
 284 513 l 1,2,-1
 220 -6 l 1,3,-1
 121 -15 l 1,0,-1
304 611 m 1,4,-1
 43 584 l 1,5,-1
 50 703 l 1,6,-1
 311 703 l 1,7,-1
 304 611 l 1,4,-1
EndSplineSet
EndChar

StartChar: Ibreve
Encoding: 300 300 237
Width: 431
GlyphClass: 2
Flags: W
LayerCount: 2
Fore
SplineSet
155 -14 m 1,0,-1
 98 650 l 1,1,-1
 336 665 l 1,2,-1
 265 -4 l 1,3,-1
 155 -14 l 1,0,-1
210 706 m 0,4,5
 159 706 159 706 125 754 c 0,6,7
 99 791 99 791 76 849 c 1,8,-1
 129 882 l 1,9,10
 145 854 145 854 153.5 841.5 c 128,-1,11
 162 829 162 829 177.5 818 c 128,-1,12
 193 807 193 807 217 807 c 128,-1,13
 241 807 241 807 258 828 c 128,-1,14
 275 849 275 849 291 888 c 1,15,-1
 375 833 l 1,16,17
 300 706 300 706 210 706 c 0,4,5
EndSplineSet
EndChar

StartChar: ibreve
Encoding: 301 301 238
Width: 354
GlyphClass: 2
Flags: W
LayerCount: 2
Fore
SplineSet
121 -15 m 1,0,-1
 70 480 l 1,1,-1
 284 513 l 1,2,-1
 220 -6 l 1,3,-1
 121 -15 l 1,0,-1
162 556 m 0,4,5
 111 556 111 556 77 604 c 0,6,7
 51 641 51 641 28 699 c 1,8,-1
 81 732 l 1,9,10
 97 704 97 704 105.5 691.5 c 128,-1,11
 114 679 114 679 129.5 668 c 128,-1,12
 145 657 145 657 169 657 c 128,-1,13
 193 657 193 657 210 678 c 128,-1,14
 227 699 227 699 243 738 c 1,15,-1
 327 683 l 1,16,17
 252 556 252 556 162 556 c 0,4,5
EndSplineSet
EndChar

StartChar: Iogonek
Encoding: 302 302 239
Width: 431
GlyphClass: 2
Flags: W
LayerCount: 2
Fore
SplineSet
155 -14 m 1,0,-1
 265 -4 l 1,1,-1
 336 665 l 1,2,-1
 98 650 l 1,3,-1
 155 -14 l 1,0,-1
355 -185 m 1,4,5
 300 -206 300 -206 245 -206 c 128,-1,6
 190 -206 190 -206 142.5 -182 c 128,-1,7
 95 -158 95 -158 95 -106 c 0,8,9
 95 -56 95 -56 144 -16 c 0,10,11
 184 17 184 17 237 46 c 1,12,-1
 265 -4 l 1,13,14
 183 -46 183 -46 156 -102 c 1,15,16
 188 -115 188 -115 224.5 -115 c 128,-1,17
 261 -115 261 -115 321 -89 c 1,18,-1
 355 -185 l 1,4,5
EndSplineSet
EndChar

StartChar: iogonek
Encoding: 303 303 240
Width: 354
GlyphClass: 2
Flags: W
LayerCount: 2
Fore
SplineSet
121 -15 m 1,0,-1
 220 -6 l 1,1,-1
 284 513 l 1,2,-1
 70 480 l 1,3,-1
 121 -15 l 1,0,-1
74 657 m 128,-1,5
 74 695 74 695 101.5 722.5 c 128,-1,6
 129 750 129 750 167 750 c 128,-1,7
 205 750 205 750 232.5 722.5 c 128,-1,8
 260 695 260 695 260 657 c 128,-1,9
 260 619 260 619 232.5 591.5 c 128,-1,10
 205 564 205 564 167 564 c 128,-1,11
 129 564 129 564 101.5 591.5 c 128,-1,4
 74 619 74 619 74 657 c 128,-1,5
310 -187 m 1,12,13
 254 -208 254 -208 199.5 -208 c 128,-1,14
 145 -208 145 -208 97.5 -184 c 128,-1,15
 50 -160 50 -160 50 -108 c 0,16,17
 50 -58 50 -58 98 -18 c 0,18,19
 139 15 139 15 192 44 c 1,20,-1
 220 -6 l 1,21,22
 138 -48 138 -48 111 -104 c 1,23,24
 143 -117 143 -117 179.5 -117 c 128,-1,25
 216 -117 216 -117 276 -91 c 1,26,-1
 310 -187 l 1,12,13
EndSplineSet
EndChar

StartChar: Idotaccent
Encoding: 304 304 241
Width: 431
GlyphClass: 2
Flags: W
LayerCount: 2
Fore
SplineSet
155 -14 m 1,0,-1
 98 650 l 1,1,-1
 336 665 l 1,2,-1
 265 -4 l 1,3,-1
 155 -14 l 1,0,-1
304 883 m 1,4,5
 304 803 304 803 292 755 c 1,6,7
 247 738 247 738 197 738 c 128,-1,8
 147 738 147 738 127 743 c 1,9,10
 127 816 127 816 155 871 c 1,11,12
 204 883 204 883 304 883 c 1,4,5
EndSplineSet
EndChar

StartChar: dotlessi
Encoding: 305 305 242
Width: 354
GlyphClass: 2
Flags: W
LayerCount: 2
Fore
SplineSet
121 -15 m 1,0,-1
 70 480 l 1,1,-1
 284 513 l 1,2,-1
 220 -6 l 1,3,-1
 121 -15 l 1,0,-1
EndSplineSet
EndChar

StartChar: IJ
Encoding: 306 306 243
Width: 852
GlyphClass: 2
Flags: W
LayerCount: 2
Fore
SplineSet
155 -14 m 1,0,-1
 98 650 l 1,1,-1
 336 665 l 1,2,-1
 265 -4 l 1,3,-1
 155 -14 l 1,0,-1
550 -24 m 0,4,5
 489 -24 489 -24 423 10 c 1,6,-1
 441 64 l 1,7,8
 485 50 485 50 510 50 c 0,9,10
 582 50 582 50 582 140 c 0,11,12
 582 154 582 154 539 650 c 1,13,-1
 777 665 l 1,14,-1
 721 141 l 2,15,16
 703 -24 703 -24 550 -24 c 0,4,5
EndSplineSet
EndChar

StartChar: ij
Encoding: 307 307 244
Width: 708
GlyphClass: 2
Flags: W
LayerCount: 2
Fore
SplineSet
121 -15 m 1,0,-1
 70 480 l 1,1,-1
 284 513 l 1,2,-1
 220 -6 l 1,3,-1
 121 -15 l 1,0,-1
74 657 m 128,-1,5
 74 695 74 695 101.5 722.5 c 128,-1,6
 129 750 129 750 167 750 c 128,-1,7
 205 750 205 750 232.5 722.5 c 128,-1,8
 260 695 260 695 260 657 c 128,-1,9
 260 619 260 619 232.5 591.5 c 128,-1,10
 205 564 205 564 167 564 c 128,-1,11
 129 564 129 564 101.5 591.5 c 128,-1,4
 74 619 74 619 74 657 c 128,-1,5
428 657 m 128,-1,13
 428 695 428 695 455.5 722.5 c 128,-1,14
 483 750 483 750 521 750 c 128,-1,15
 559 750 559 750 586.5 722.5 c 128,-1,16
 614 695 614 695 614 657 c 128,-1,17
 614 619 614 619 586.5 591.5 c 128,-1,18
 559 564 559 564 521 564 c 128,-1,19
 483 564 483 564 455.5 591.5 c 128,-1,12
 428 619 428 619 428 657 c 128,-1,13
422 -135 m 0,20,21
 358 -135 358 -135 302 -90 c 1,22,-1
 332 -39 l 1,23,24
 362 -60 362 -60 399 -60 c 0,25,26
 470 -60 470 -60 470 28 c 0,27,28
 470 38 470 38 424 480 c 1,29,-1
 638 512 l 1,30,-1
 574 -5 l 2,31,32
 558 -135 558 -135 422 -135 c 0,20,21
EndSplineSet
EndChar

StartChar: Jcircumflex
Encoding: 308 308 245
Width: 421
GlyphClass: 2
Flags: W
LayerCount: 2
Fore
SplineSet
119 -24 m 0,0,1
 58 -24 58 -24 -8 10 c 1,2,-1
 10 64 l 1,3,4
 54 50 54 50 79 50 c 0,5,6
 151 50 151 50 151 140 c 0,7,8
 151 154 151 154 108 650 c 1,9,-1
 346 665 l 1,10,-1
 290 141 l 2,11,12
 272 -24 272 -24 119 -24 c 0,0,1
59 764 m 1,13,-1
 175 901 l 1,14,-1
 362 809 l 1,15,-1
 287 719 l 1,16,-1
 211 781 l 1,17,-1
 93 716 l 1,18,-1
 59 764 l 1,13,-1
EndSplineSet
EndChar

StartChar: jcircumflex
Encoding: 309 309 246
Width: 354
GlyphClass: 2
Flags: W
LayerCount: 2
Fore
SplineSet
116 28 m 0,0,1
 116 38 116 38 70 480 c 1,2,3
 70 480 70 480 284 512 c 1,4,-1
 220 -5 l 2,5,6
 204 -135 204 -135 68 -135 c 0,7,8
 4 -135 4 -135 -52 -90 c 1,9,10
 -52 -90 -52 -90 -22 -39 c 1,11,12
 8 -60 8 -60 45 -60 c 0,13,14
 116 -60 116 -60 116 28 c 0,0,1
26 614 m 1,15,-1
 142 751 l 1,16,-1
 329 659 l 1,17,-1
 254 569 l 1,18,-1
 178 631 l 1,19,-1
 60 566 l 1,20,-1
 26 614 l 1,15,-1
EndSplineSet
EndChar

StartChar: uni0136
Encoding: 310 310 247
Width: 681
GlyphClass: 2
Flags: W
LayerCount: 2
Fore
SplineSet
625 597 m 1,0,-1
 414 376 l 1,1,-1
 661 1 l 1,2,-1
 449 -14 l 1,3,-1
 314 271 l 1,4,-1
 292 248 l 1,5,-1
 265 -4 l 1,6,-1
 155 -14 l 1,7,-1
 98 650 l 1,8,-1
 336 665 l 1,9,-1
 304 363 l 1,10,-1
 536 665 l 1,11,-1
 625 597 l 1,0,-1
336 -199 m 1,12,13
 324 -209 324 -209 304.5 -209 c 128,-1,14
 285 -209 285 -209 272.5 -187.5 c 128,-1,15
 260 -166 260 -166 260 -127.5 c 128,-1,16
 260 -89 260 -89 276.5 -70 c 128,-1,17
 293 -51 293 -51 340 -51 c 128,-1,18
 387 -51 387 -51 412 -78 c 1,19,20
 418 -111 418 -111 418 -149 c 0,21,22
 418 -264 418 -264 343 -331 c 1,23,-1
 289 -280 l 1,24,25
 329 -247 329 -247 340 -201 c 1,26,-1
 336 -199 l 1,12,13
EndSplineSet
EndChar

StartChar: uni0137
Encoding: 311 311 248
Width: 598
GlyphClass: 2
Flags: W
LayerCount: 2
Fore
SplineSet
526 484 m 1,0,-1
 371 322 l 1,1,-1
 588 -2 l 1,2,-1
 398 -15 l 1,3,-1
 273 219 l 1,4,-1
 237 185 l 1,5,-1
 220 -6 l 1,6,-1
 121 -15 l 1,7,-1
 70 683 l 1,8,-1
 284 716 l 1,9,-1
 246 284 l 1,10,-1
 459 536 l 1,11,-1
 526 484 l 1,0,-1
295 -199 m 1,12,13
 283 -209 283 -209 263.5 -209 c 128,-1,14
 244 -209 244 -209 231.5 -187.5 c 128,-1,15
 219 -166 219 -166 219 -127.5 c 128,-1,16
 219 -89 219 -89 235.5 -70 c 128,-1,17
 252 -51 252 -51 299 -51 c 128,-1,18
 346 -51 346 -51 371 -78 c 1,19,20
 377 -111 377 -111 377 -149 c 0,21,22
 377 -264 377 -264 302 -331 c 1,23,-1
 248 -280 l 1,24,25
 288 -247 288 -247 299 -201 c 1,26,-1
 295 -199 l 1,12,13
EndSplineSet
EndChar

StartChar: kgreenlandic
Encoding: 312 312 249
Width: 598
GlyphClass: 2
Flags: W
LayerCount: 2
Fore
SplineSet
121 -15 m 1,0,-1
 70 480 l 1,1,-1
 284 513 l 1,2,-1
 257 298 l 1,3,-1
 459 536 l 1,4,-1
 526 484 l 1,5,-1
 371 322 l 1,6,-1
 588 -2 l 1,7,-1
 398 -15 l 1,8,-1
 273 219 l 1,9,-1
 244 188 l 1,10,-1
 220 -6 l 1,11,-1
 121 -15 l 1,0,-1
EndSplineSet
EndChar

StartChar: Lacute
Encoding: 313 313 250
Width: 505
GlyphClass: 2
Flags: W
LayerCount: 2
Fore
SplineSet
511 0 m 1,0,-1
 140 -9 l 1,1,-1
 93 650 l 1,2,-1
 331 665 l 1,3,-1
 259 72 l 1,4,-1
 515 103 l 1,5,-1
 511 0 l 1,0,-1
99 781 m 1,6,-1
 277 903 l 1,7,-1
 337 778 l 1,8,-1
 133 713 l 1,9,-1
 99 781 l 1,6,-1
EndSplineSet
EndChar

StartChar: lacute
Encoding: 314 314 251
Width: 354
GlyphClass: 2
Flags: W
LayerCount: 2
Fore
SplineSet
121 -15 m 1,0,-1
 70 683 l 1,1,-1
 284 716 l 1,2,-1
 220 -6 l 1,3,-1
 121 -15 l 1,0,-1
48 821 m 1,4,-1
 226 943 l 1,5,-1
 286 818 l 1,6,-1
 82 753 l 1,7,-1
 48 821 l 1,4,-1
EndSplineSet
EndChar

StartChar: uni013B
Encoding: 315 315 252
Width: 505
GlyphClass: 2
Flags: W
LayerCount: 2
Fore
SplineSet
511 0 m 1,0,-1
 140 -9 l 1,1,-1
 93 650 l 1,2,-1
 331 665 l 1,3,-1
 259 72 l 1,4,-1
 515 103 l 1,5,-1
 511 0 l 1,0,-1
202 -199 m 1,6,7
 190 -209 190 -209 170.5 -209 c 128,-1,8
 151 -209 151 -209 138.5 -187.5 c 128,-1,9
 126 -166 126 -166 126 -127.5 c 128,-1,10
 126 -89 126 -89 142.5 -70 c 128,-1,11
 159 -51 159 -51 206 -51 c 128,-1,12
 253 -51 253 -51 278 -78 c 1,13,14
 284 -111 284 -111 284 -149 c 0,15,16
 284 -264 284 -264 209 -331 c 1,17,-1
 155 -280 l 1,18,19
 195 -247 195 -247 206 -201 c 1,20,-1
 202 -199 l 1,6,7
EndSplineSet
EndChar

StartChar: uni013C
Encoding: 316 316 253
Width: 354
GlyphClass: 2
Flags: W
LayerCount: 2
Fore
SplineSet
121 -15 m 1,0,-1
 70 683 l 1,1,-1
 284 716 l 1,2,-1
 220 -6 l 1,3,-1
 121 -15 l 1,0,-1
169 -199 m 1,4,5
 157 -209 157 -209 137.5 -209 c 128,-1,6
 118 -209 118 -209 105.5 -187.5 c 128,-1,7
 93 -166 93 -166 93 -127.5 c 128,-1,8
 93 -89 93 -89 109.5 -70 c 128,-1,9
 126 -51 126 -51 173 -51 c 128,-1,10
 220 -51 220 -51 245 -78 c 1,11,12
 251 -111 251 -111 251 -149 c 0,13,14
 251 -264 251 -264 176 -331 c 1,15,-1
 122 -280 l 1,16,17
 162 -247 162 -247 173 -201 c 1,18,-1
 169 -199 l 1,4,5
EndSplineSet
EndChar

StartChar: Lcaron
Encoding: 317 317 254
Width: 505
GlyphClass: 2
Flags: W
LayerCount: 2
Fore
SplineSet
511 0 m 1,0,-1
 140 -9 l 1,1,-1
 93 650 l 1,2,-1
 331 665 l 1,3,-1
 259 72 l 1,4,-1
 515 103 l 1,5,-1
 511 0 l 1,0,-1
383 798 m 1,6,-1
 196 706 l 1,7,-1
 80 843 l 1,8,-1
 114 891 l 1,9,-1
 232 826 l 1,10,-1
 308 888 l 1,11,-1
 383 798 l 1,6,-1
EndSplineSet
EndChar

StartChar: lcaron
Encoding: 318 318 255
Width: 354
GlyphClass: 2
Flags: W
LayerCount: 2
Fore
SplineSet
121 -15 m 1,0,-1
 70 683 l 1,1,-1
 284 716 l 1,2,-1
 220 -6 l 1,3,-1
 121 -15 l 1,0,-1
410 671 m 1,4,5
 398 661 398 661 378.5 661 c 128,-1,6
 359 661 359 661 346.5 682.5 c 128,-1,7
 334 704 334 704 334 742.5 c 128,-1,8
 334 781 334 781 350.5 800 c 128,-1,9
 367 819 367 819 414 819 c 128,-1,10
 461 819 461 819 486 792 c 1,11,12
 492 759 492 759 492 721 c 0,13,14
 492 606 492 606 417 539 c 1,15,-1
 363 590 l 1,16,17
 403 623 403 623 414 669 c 1,18,-1
 410 671 l 1,4,5
EndSplineSet
EndChar

StartChar: Ldot
Encoding: 319 319 256
Width: 505
GlyphClass: 2
Flags: W
LayerCount: 2
Fore
SplineSet
511 0 m 1,0,-1
 140 -9 l 1,1,-1
 93 650 l 1,2,-1
 331 665 l 1,3,-1
 259 72 l 1,4,-1
 515 103 l 1,5,-1
 511 0 l 1,0,-1
361 328 m 128,-1,7
 361 367 361 367 383.5 391.5 c 128,-1,8
 406 416 406 416 454 416 c 128,-1,9
 502 416 502 416 524.5 391.5 c 128,-1,10
 547 367 547 367 547 328 c 128,-1,11
 547 289 547 289 524.5 264.5 c 128,-1,12
 502 240 502 240 454 240 c 128,-1,13
 406 240 406 240 383.5 264.5 c 128,-1,6
 361 289 361 289 361 328 c 128,-1,7
EndSplineSet
EndChar

StartChar: ldot
Encoding: 320 320 257
Width: 520
GlyphClass: 2
Flags: W
LayerCount: 2
Fore
SplineSet
121 -15 m 1,0,-1
 70 683 l 1,1,-1
 284 716 l 1,2,-1
 220 -6 l 1,3,-1
 121 -15 l 1,0,-1
314 328 m 128,-1,5
 314 367 314 367 336.5 391.5 c 128,-1,6
 359 416 359 416 407 416 c 128,-1,7
 455 416 455 416 477.5 391.5 c 128,-1,8
 500 367 500 367 500 328 c 128,-1,9
 500 289 500 289 477.5 264.5 c 128,-1,10
 455 240 455 240 407 240 c 128,-1,11
 359 240 359 240 336.5 264.5 c 128,-1,4
 314 289 314 289 314 328 c 128,-1,5
EndSplineSet
EndChar

StartChar: Lslash
Encoding: 321 321 258
Width: 505
GlyphClass: 2
Flags: W
LayerCount: 2
Fore
SplineSet
511 0 m 1,0,-1
 140 -9 l 1,1,-1
 93 650 l 1,2,-1
 331 665 l 1,3,-1
 259 72 l 1,4,-1
 515 103 l 1,5,-1
 511 0 l 1,0,-1
394 474 m 1,6,-1
 55 281 l 1,7,-1
 18 356 l 1,8,-1
 369 525 l 1,9,-1
 394 474 l 1,6,-1
EndSplineSet
EndChar

StartChar: lslash
Encoding: 322 322 259
Width: 354
GlyphClass: 2
Flags: W
LayerCount: 2
Fore
SplineSet
121 -15 m 1,0,-1
 70 683 l 1,1,-1
 284 716 l 1,2,-1
 220 -6 l 1,3,-1
 121 -15 l 1,0,-1
360 474 m 1,4,-1
 21 281 l 1,5,-1
 -16 356 l 1,6,-1
 335 525 l 1,7,-1
 360 474 l 1,4,-1
EndSplineSet
EndChar

StartChar: Nacute
Encoding: 323 323 260
Width: 692
GlyphClass: 2
Flags: W
LayerCount: 2
Fore
SplineSet
642 660 m 1,0,-1
 599 0 l 1,1,-1
 509 -15 l 1,2,-1
 185 521 l 1,3,-1
 177 521 l 1,4,-1
 180 0 l 1,5,-1
 80 -5 l 1,6,-1
 107 650 l 1,7,-1
 349 665 l 1,8,-1
 524 166 l 1,9,-1
 532 166 l 1,10,-1
 542 655 l 1,11,-1
 642 660 l 1,0,-1
267 781 m 1,12,-1
 445 903 l 1,13,-1
 505 778 l 1,14,-1
 301 713 l 1,15,-1
 267 781 l 1,12,-1
EndSplineSet
EndChar

StartChar: nacute
Encoding: 324 324 261
Width: 660
GlyphClass: 2
Flags: W
LayerCount: 2
Fore
SplineSet
463 523 m 0,0,1
 482 523 482 523 500 517 c 1,2,3
 551 455 551 455 570 302.5 c 128,-1,4
 589 150 589 150 589 0 c 1,5,-1
 409 -15 l 1,6,7
 409 215 409 215 392 404 c 1,8,9
 259 355 259 355 215 -6 c 1,10,-1
 116 -15 l 1,11,-1
 65 481 l 1,12,-1
 279 514 l 1,13,-1
 257 338 l 1,14,-1
 266 338 l 1,15,16
 306 425 306 425 357 474 c 128,-1,17
 408 523 408 523 463 523 c 0,0,1
211 631 m 1,18,-1
 389 753 l 1,19,-1
 449 628 l 1,20,-1
 245 563 l 1,21,-1
 211 631 l 1,18,-1
EndSplineSet
EndChar

StartChar: uni0145
Encoding: 325 325 262
Width: 692
GlyphClass: 2
Flags: W
LayerCount: 2
Fore
SplineSet
642 660 m 1,0,-1
 599 0 l 1,1,-1
 509 -15 l 1,2,-1
 185 521 l 1,3,-1
 177 521 l 1,4,-1
 180 0 l 1,5,-1
 80 -5 l 1,6,-1
 107 650 l 1,7,-1
 349 665 l 1,8,-1
 524 166 l 1,9,-1
 532 166 l 1,10,-1
 542 655 l 1,11,-1
 642 660 l 1,0,-1
342 -199 m 1,12,13
 330 -209 330 -209 310.5 -209 c 128,-1,14
 291 -209 291 -209 278.5 -187.5 c 128,-1,15
 266 -166 266 -166 266 -127.5 c 128,-1,16
 266 -89 266 -89 282.5 -70 c 128,-1,17
 299 -51 299 -51 346 -51 c 128,-1,18
 393 -51 393 -51 418 -78 c 1,19,20
 424 -111 424 -111 424 -149 c 0,21,22
 424 -264 424 -264 349 -331 c 1,23,-1
 295 -280 l 1,24,25
 335 -247 335 -247 346 -201 c 1,26,-1
 342 -199 l 1,12,13
EndSplineSet
EndChar

StartChar: uni0146
Encoding: 326 326 263
Width: 660
GlyphClass: 2
Flags: W
LayerCount: 2
Fore
SplineSet
463 523 m 0,0,1
 482 523 482 523 500 517 c 1,2,3
 551 455 551 455 570 302.5 c 128,-1,4
 589 150 589 150 589 0 c 1,5,-1
 409 -15 l 1,6,7
 409 215 409 215 392 404 c 1,8,9
 259 355 259 355 215 -6 c 1,10,-1
 116 -15 l 1,11,-1
 65 481 l 1,12,-1
 279 514 l 1,13,-1
 257 338 l 1,14,-1
 266 338 l 1,15,16
 306 425 306 425 357 474 c 128,-1,17
 408 523 408 523 463 523 c 0,0,1
306 -199 m 1,18,19
 294 -209 294 -209 274.5 -209 c 128,-1,20
 255 -209 255 -209 242.5 -187.5 c 128,-1,21
 230 -166 230 -166 230 -127.5 c 128,-1,22
 230 -89 230 -89 246.5 -70 c 128,-1,23
 263 -51 263 -51 310 -51 c 128,-1,24
 357 -51 357 -51 382 -78 c 1,25,26
 388 -111 388 -111 388 -149 c 0,27,28
 388 -264 388 -264 313 -331 c 1,29,-1
 259 -280 l 1,30,31
 299 -247 299 -247 310 -201 c 1,32,-1
 306 -199 l 1,18,19
EndSplineSet
EndChar

StartChar: Ncaron
Encoding: 327 327 264
Width: 692
GlyphClass: 2
Flags: W
LayerCount: 2
Fore
SplineSet
642 660 m 1,0,-1
 599 0 l 1,1,-1
 509 -15 l 1,2,-1
 185 521 l 1,3,-1
 177 521 l 1,4,-1
 180 0 l 1,5,-1
 80 -5 l 1,6,-1
 107 650 l 1,7,-1
 349 665 l 1,8,-1
 524 166 l 1,9,-1
 532 166 l 1,10,-1
 542 655 l 1,11,-1
 642 660 l 1,0,-1
537 798 m 1,12,-1
 350 706 l 1,13,-1
 234 843 l 1,14,-1
 268 891 l 1,15,-1
 386 826 l 1,16,-1
 462 888 l 1,17,-1
 537 798 l 1,12,-1
EndSplineSet
EndChar

StartChar: ncaron
Encoding: 328 328 265
Width: 660
GlyphClass: 2
Flags: W
LayerCount: 2
Fore
SplineSet
463 523 m 0,0,1
 482 523 482 523 500 517 c 1,2,3
 551 455 551 455 570 302.5 c 128,-1,4
 589 150 589 150 589 0 c 1,5,-1
 409 -15 l 1,6,7
 409 215 409 215 392 404 c 1,8,9
 259 355 259 355 215 -6 c 1,10,-1
 116 -15 l 1,11,-1
 65 481 l 1,12,-1
 279 514 l 1,13,-1
 257 338 l 1,14,-1
 266 338 l 1,15,16
 306 425 306 425 357 474 c 128,-1,17
 408 523 408 523 463 523 c 0,0,1
481 648 m 1,18,-1
 294 556 l 1,19,-1
 178 693 l 1,20,-1
 212 741 l 1,21,-1
 330 676 l 1,22,-1
 406 738 l 1,23,-1
 481 648 l 1,18,-1
EndSplineSet
EndChar

StartChar: napostrophe
Encoding: 329 329 266
Width: 660
GlyphClass: 2
Flags: W
LayerCount: 2
Fore
SplineSet
463 523 m 0,0,1
 482 523 482 523 500 517 c 1,2,3
 551 455 551 455 570 302.5 c 128,-1,4
 589 150 589 150 589 0 c 1,5,-1
 409 -15 l 1,6,7
 409 215 409 215 392 404 c 1,8,9
 259 355 259 355 215 -6 c 1,10,-1
 116 -15 l 1,11,-1
 65 481 l 1,12,-1
 279 514 l 1,13,-1
 257 338 l 1,14,-1
 266 338 l 1,15,16
 306 425 306 425 357 474 c 128,-1,17
 408 523 408 523 463 523 c 0,0,1
27 671 m 1,18,19
 15 661 15 661 -4.5 661 c 128,-1,20
 -24 661 -24 661 -36.5 682.5 c 128,-1,21
 -49 704 -49 704 -49 742.5 c 128,-1,22
 -49 781 -49 781 -32.5 800 c 128,-1,23
 -16 819 -16 819 31 819 c 128,-1,24
 78 819 78 819 103 792 c 1,25,26
 109 759 109 759 109 721 c 0,27,28
 109 606 109 606 34 539 c 1,29,-1
 -20 590 l 1,30,31
 20 623 20 623 31 669 c 1,32,-1
 27 671 l 1,18,19
EndSplineSet
EndChar

StartChar: Eng
Encoding: 330 330 267
Width: 692
GlyphClass: 2
Flags: W
LayerCount: 2
Fore
SplineSet
542.5 -160 m 128,-1,1
 494 -208 494 -208 428 -208 c 128,-1,2
 362 -208 362 -208 296 -174 c 1,3,-1
 314 -120 l 1,4,5
 358 -134 358 -134 383 -134 c 0,6,7
 480 -134 480 -134 480 -45 c 0,8,9
 480 30 480 30 408 151 c 1,10,-1
 185 519 l 1,11,-1
 177 519 l 1,12,-1
 180 0 l 1,13,-1
 80 -5 l 1,14,-1
 107 650 l 1,15,-1
 349 665 l 1,16,-1
 525 163 l 1,17,-1
 531 163 l 1,18,-1
 542 655 l 1,19,-1
 642 660 l 1,20,-1
 598 -7 l 2,21,0
 591 -112 591 -112 542.5 -160 c 128,-1,1
EndSplineSet
EndChar

StartChar: eng
Encoding: 331 331 268
Width: 660
GlyphClass: 2
Flags: W
LayerCount: 2
Fore
SplineSet
589 24 m 0,0,1
 589 -36 589 -36 572.5 -81 c 128,-1,2
 556 -126 556 -126 533.5 -150 c 128,-1,3
 511 -174 511 -174 480 -188 c 1,4,5
 433 -211 433 -211 387 -211 c 0,6,7
 298 -211 298 -211 242 -166 c 1,8,-1
 272 -115 l 1,9,10
 302 -136 302 -136 339 -136 c 0,11,12
 410 -136 410 -136 410 -48 c 0,13,14
 410 5 410 5 404.5 166.5 c 128,-1,15
 399 328 399 328 392 404 c 1,16,17
 259 355 259 355 215 -6 c 1,18,-1
 116 -15 l 1,19,-1
 65 481 l 1,20,-1
 279 514 l 1,21,-1
 257 338 l 1,22,-1
 266 338 l 1,23,24
 306 425 306 425 357 474 c 128,-1,25
 408 523 408 523 463 523 c 0,26,27
 482 523 482 523 500 517 c 1,28,29
 551 455 551 455 570 312 c 128,-1,30
 589 169 589 169 589 24 c 0,0,1
EndSplineSet
EndChar

StartChar: Omacron
Encoding: 332 332 269
Width: 589
GlyphClass: 2
Flags: W
LayerCount: 2
Fore
SplineSet
539 207 m 0,0,1
 539 146 539 146 529 105.5 c 128,-1,2
 519 65 519 65 493 34 c 0,3,4
 443 -24 443 -24 299.5 -24 c 128,-1,5
 156 -24 156 -24 77 41 c 1,6,7
 60 125 60 125 60 207 c 0,8,9
 60 373 60 373 122.5 504 c 128,-1,10
 185 635 185 635 268 690 c 1,11,12
 385 642 385 642 462 510.5 c 128,-1,13
 539 379 539 379 539 207 c 0,0,1
418 252 m 0,14,15
 418 406 418 406 367 516 c 1,16,17
 270 427 270 427 215.5 310 c 128,-1,18
 161 193 161 193 161 80 c 1,19,20
 195 73 195 73 242 73 c 0,21,22
 334 73 334 73 400 96 c 1,23,24
 418 174 418 174 418 252 c 0,14,15
421 761 m 1,25,-1
 160 734 l 1,26,-1
 167 853 l 1,27,-1
 428 853 l 1,28,-1
 421 761 l 1,25,-1
EndSplineSet
EndChar

StartChar: omacron
Encoding: 333 333 270
Width: 538
GlyphClass: 2
Flags: W
LayerCount: 2
Fore
SplineSet
488 184 m 0,0,1
 488 75 488 75 440.5 25.5 c 128,-1,2
 393 -24 393 -24 265 -24 c 128,-1,3
 137 -24 137 -24 65 34 c 1,4,5
 50 106 50 106 50 178 c 128,-1,6
 50 250 50 250 70.5 313.5 c 128,-1,7
 91 377 91 377 122 422 c 0,8,9
 187 514 187 514 238 539 c 1,10,11
 334 490 334 490 407 406 c 0,12,13
 488 314 488 314 488 184 c 0,0,1
372 211 m 0,14,15
 372 306 372 306 332 385 c 1,16,17
 249 341 249 341 195 251 c 128,-1,18
 141 161 141 161 141 69 c 1,19,20
 173 63 173 63 233 63 c 128,-1,21
 293 63 293 63 356 84 c 1,22,23
 372 145 372 145 372 211 c 0,14,15
396 611 m 1,24,-1
 135 584 l 1,25,-1
 142 703 l 1,26,-1
 403 703 l 1,27,-1
 396 611 l 1,24,-1
EndSplineSet
EndChar

StartChar: Obreve
Encoding: 334 334 271
Width: 589
GlyphClass: 2
Flags: W
LayerCount: 2
Fore
SplineSet
539 207 m 0,0,1
 539 146 539 146 529 105.5 c 128,-1,2
 519 65 519 65 493 34 c 0,3,4
 443 -24 443 -24 299.5 -24 c 128,-1,5
 156 -24 156 -24 77 41 c 1,6,7
 60 125 60 125 60 207 c 0,8,9
 60 373 60 373 122.5 504 c 128,-1,10
 185 635 185 635 268 690 c 1,11,12
 385 642 385 642 462 510.5 c 128,-1,13
 539 379 539 379 539 207 c 0,0,1
418 252 m 0,14,15
 418 406 418 406 367 516 c 1,16,17
 270 427 270 427 215.5 310 c 128,-1,18
 161 193 161 193 161 80 c 1,19,20
 195 73 195 73 242 73 c 0,21,22
 334 73 334 73 400 96 c 1,23,24
 418 174 418 174 418 252 c 0,14,15
279 706 m 0,25,26
 228 706 228 706 194 754 c 0,27,28
 168 791 168 791 145 849 c 1,29,-1
 198 882 l 1,30,31
 214 854 214 854 222.5 841.5 c 128,-1,32
 231 829 231 829 246.5 818 c 128,-1,33
 262 807 262 807 286 807 c 128,-1,34
 310 807 310 807 327 828 c 128,-1,35
 344 849 344 849 360 888 c 1,36,-1
 444 833 l 1,37,38
 369 706 369 706 279 706 c 0,25,26
EndSplineSet
EndChar

StartChar: obreve
Encoding: 335 335 272
Width: 538
GlyphClass: 2
Flags: W
LayerCount: 2
Fore
SplineSet
488 184 m 0,0,1
 488 75 488 75 440.5 25.5 c 128,-1,2
 393 -24 393 -24 265 -24 c 128,-1,3
 137 -24 137 -24 65 34 c 1,4,5
 50 106 50 106 50 178 c 128,-1,6
 50 250 50 250 70.5 313.5 c 128,-1,7
 91 377 91 377 122 422 c 0,8,9
 187 514 187 514 238 539 c 1,10,11
 334 490 334 490 407 406 c 0,12,13
 488 314 488 314 488 184 c 0,0,1
372 211 m 0,14,15
 372 306 372 306 332 385 c 1,16,17
 249 341 249 341 195 251 c 128,-1,18
 141 161 141 161 141 69 c 1,19,20
 173 63 173 63 233 63 c 128,-1,21
 293 63 293 63 356 84 c 1,22,23
 372 145 372 145 372 211 c 0,14,15
253 556 m 0,24,25
 202 556 202 556 168 604 c 0,26,27
 142 641 142 641 119 699 c 1,28,-1
 172 732 l 1,29,30
 188 704 188 704 196.5 691.5 c 128,-1,31
 205 679 205 679 220.5 668 c 128,-1,32
 236 657 236 657 260 657 c 128,-1,33
 284 657 284 657 301 678 c 128,-1,34
 318 699 318 699 334 738 c 1,35,-1
 418 683 l 1,36,37
 343 556 343 556 253 556 c 0,24,25
EndSplineSet
EndChar

StartChar: Ohungarumlaut
Encoding: 336 336 273
Width: 589
GlyphClass: 2
Flags: W
LayerCount: 2
Fore
SplineSet
539 207 m 0,0,1
 539 146 539 146 529 105.5 c 128,-1,2
 519 65 519 65 493 34 c 0,3,4
 443 -24 443 -24 299.5 -24 c 128,-1,5
 156 -24 156 -24 77 41 c 1,6,7
 60 125 60 125 60 207 c 0,8,9
 60 373 60 373 122.5 504 c 128,-1,10
 185 635 185 635 268 690 c 1,11,12
 385 642 385 642 462 510.5 c 128,-1,13
 539 379 539 379 539 207 c 0,0,1
418 252 m 0,14,15
 418 406 418 406 367 516 c 1,16,17
 270 427 270 427 215.5 310 c 128,-1,18
 161 193 161 193 161 80 c 1,19,20
 195 73 195 73 242 73 c 0,21,22
 334 73 334 73 400 96 c 1,23,24
 418 174 418 174 418 252 c 0,14,15
109 759 m 1,25,-1
 243 906 l 1,26,-1
 320 803 l 1,27,-1
 145 708 l 1,28,-1
 109 759 l 1,25,-1
329 759 m 1,29,-1
 463 906 l 1,30,-1
 540 803 l 1,31,-1
 365 708 l 1,32,-1
 329 759 l 1,29,-1
EndSplineSet
EndChar

StartChar: ohungarumlaut
Encoding: 337 337 274
Width: 538
GlyphClass: 2
Flags: W
LayerCount: 2
Fore
SplineSet
488 184 m 0,0,1
 488 75 488 75 440.5 25.5 c 128,-1,2
 393 -24 393 -24 265 -24 c 128,-1,3
 137 -24 137 -24 65 34 c 1,4,5
 50 106 50 106 50 178 c 128,-1,6
 50 250 50 250 70.5 313.5 c 128,-1,7
 91 377 91 377 122 422 c 0,8,9
 187 514 187 514 238 539 c 1,10,11
 334 490 334 490 407 406 c 0,12,13
 488 314 488 314 488 184 c 0,0,1
372 211 m 0,14,15
 372 306 372 306 332 385 c 1,16,17
 249 341 249 341 195 251 c 128,-1,18
 141 161 141 161 141 69 c 1,19,20
 173 63 173 63 233 63 c 128,-1,21
 293 63 293 63 356 84 c 1,22,23
 372 145 372 145 372 211 c 0,14,15
88 609 m 1,24,-1
 222 756 l 1,25,-1
 299 653 l 1,26,-1
 124 558 l 1,27,-1
 88 609 l 1,24,-1
308 609 m 1,28,-1
 442 756 l 1,29,-1
 519 653 l 1,30,-1
 344 558 l 1,31,-1
 308 609 l 1,28,-1
EndSplineSet
EndChar

StartChar: OE
Encoding: 338 338 275
Width: 848
GlyphClass: 2
Flags: W
LayerCount: 2
Fore
SplineSet
300 -24 m 0,0,1
 156 -24 156 -24 77 41 c 1,2,3
 60 125 60 125 60 207 c 0,4,5
 60 373 60 373 122.5 504 c 128,-1,6
 185 635 185 635 268 690 c 1,7,8
 303 675 303 675 338 650 c 1,9,-1
 777 664 l 1,10,-1
 774 597 l 1,11,-1
 563 572 l 1,12,-1
 537 365 l 1,13,-1
 750 367 l 1,14,-1
 755 277 l 1,15,-1
 529 294 l 1,16,-1
 502 71 l 1,17,-1
 778 103 l 1,18,-1
 774 0 l 1,19,-1
 424 -8 l 1,20,21
 373 -24 373 -24 300 -24 c 0,0,1
161 80 m 1,22,23
 199 72 199 72 253.5 72 c 128,-1,24
 308 72 308 72 376 89 c 1,25,-1
 347 497 l 1,26,27
 259 409 259 409 210 298 c 128,-1,28
 161 187 161 187 161 80 c 1,22,23
EndSplineSet
EndChar

StartChar: oe
Encoding: 339 339 276
Width: 856
GlyphClass: 2
Flags: W
LayerCount: 2
Fore
SplineSet
372 211 m 0,0,1
 372 306 372 306 332 385 c 1,2,3
 249 341 249 341 195 251 c 128,-1,4
 141 161 141 161 141 69 c 1,5,6
 173 63 173 63 233 63 c 128,-1,7
 293 63 293 63 356 84 c 1,8,9
 372 145 372 145 372 211 c 0,0,1
559 539 m 1,10,11
 801 442 801 442 801 298 c 0,12,13
 801 223 801 223 758.5 189.5 c 128,-1,14
 716 156 716 156 601 156 c 0,15,16
 528 156 528 156 481 167 c 1,17,18
 462 120 462 120 462 69 c 1,19,20
 507 63 507 63 564 63 c 0,21,22
 668 63 668 63 760 96 c 1,23,-1
 790 -1 l 1,24,25
 717 -24 717 -24 626 -24 c 0,26,27
 495 -24 495 -24 418 16 c 1,28,29
 359 -24 359 -24 266 -24 c 0,30,31
 137 -24 137 -24 65 34 c 1,32,33
 50 106 50 106 50 178 c 128,-1,34
 50 250 50 250 70.5 313.5 c 128,-1,35
 91 377 91 377 122 422 c 0,36,37
 187 514 187 514 238 539 c 1,38,39
 359 475 359 475 423 385 c 1,40,41
 477 494 477 494 559 539 c 1,10,11
501 214 m 1,42,43
 514 213 514 213 566.5 213 c 128,-1,44
 619 213 619 213 687 227 c 1,45,46
 690 246 690 246 690 265 c 0,47,48
 690 325 690 325 657 380 c 1,49,50
 558 314 558 314 501 214 c 1,42,43
EndSplineSet
EndChar

StartChar: Racute
Encoding: 340 340 277
Width: 702
GlyphClass: 2
Flags: W
LayerCount: 2
Fore
SplineSet
311 254 m 1,0,1
 293 248 293 248 282 248 c 1,2,-1
 255 -4 l 1,3,-1
 155 -14 l 1,4,-1
 98 630 l 1,5,6
 151 647 151 647 238.5 661 c 128,-1,7
 326 675 326 675 406 675 c 0,8,9
 534 675 534 675 611 627 c 1,10,11
 629 573 629 573 629 528 c 0,12,13
 629 402 629 402 484 320 c 1,14,-1
 652 1 l 1,15,-1
 582 -38 l 1,16,-1
 311 254 l 1,0,1
436 501 m 0,17,18
 436 572 436 572 373 610 c 1,19,20
 349 610 349 610 319 600 c 1,21,-1
 289 312 l 1,22,23
 358 343 358 343 397 395.5 c 128,-1,24
 436 448 436 448 436 501 c 0,17,18
254 781 m 1,25,-1
 432 903 l 1,26,-1
 492 778 l 1,27,-1
 288 713 l 1,28,-1
 254 781 l 1,25,-1
EndSplineSet
EndChar

StartChar: racute
Encoding: 341 341 278
Width: 470
GlyphClass: 2
Flags: W
LayerCount: 2
Fore
SplineSet
383 329 m 0,0,1
 315 329 315 329 280 281.5 c 128,-1,2
 245 234 245 234 229 107 c 2,3,-1
 215 -6 l 1,4,-1
 116 -15 l 1,5,-1
 65 481 l 1,6,-1
 279 514 l 1,7,-1
 259 354 l 1,8,-1
 266 354 l 1,9,10
 346 526 346 526 470 537 c 1,11,-1
 442 324 l 1,12,13
 405 329 405 329 383 329 c 0,0,1
116 631 m 1,14,-1
 294 753 l 1,15,-1
 354 628 l 1,16,-1
 150 563 l 1,17,-1
 116 631 l 1,14,-1
EndSplineSet
EndChar

StartChar: uni0156
Encoding: 342 342 279
Width: 702
GlyphClass: 2
Flags: W
LayerCount: 2
Fore
SplineSet
311 254 m 1,0,1
 293 248 293 248 282 248 c 1,2,-1
 255 -4 l 1,3,-1
 155 -14 l 1,4,-1
 98 630 l 1,5,6
 151 647 151 647 238.5 661 c 128,-1,7
 326 675 326 675 406 675 c 0,8,9
 534 675 534 675 611 627 c 1,10,11
 629 573 629 573 629 528 c 0,12,13
 629 402 629 402 484 320 c 1,14,-1
 652 1 l 1,15,-1
 582 -38 l 1,16,-1
 311 254 l 1,0,1
436 501 m 0,17,18
 436 572 436 572 373 610 c 1,19,20
 349 610 349 610 319 600 c 1,21,-1
 289 312 l 1,22,23
 358 343 358 343 397 395.5 c 128,-1,24
 436 448 436 448 436 501 c 0,17,18
368 -199 m 1,25,26
 356 -209 356 -209 336.5 -209 c 128,-1,27
 317 -209 317 -209 304.5 -187.5 c 128,-1,28
 292 -166 292 -166 292 -127.5 c 128,-1,29
 292 -89 292 -89 308.5 -70 c 128,-1,30
 325 -51 325 -51 372 -51 c 128,-1,31
 419 -51 419 -51 444 -78 c 1,32,33
 450 -111 450 -111 450 -149 c 0,34,35
 450 -264 450 -264 375 -331 c 1,36,-1
 321 -280 l 1,37,38
 361 -247 361 -247 372 -201 c 1,39,-1
 368 -199 l 1,25,26
EndSplineSet
EndChar

StartChar: uni0157
Encoding: 343 343 280
Width: 470
GlyphClass: 2
Flags: W
LayerCount: 2
Fore
SplineSet
383 329 m 0,0,1
 315 329 315 329 280 281.5 c 128,-1,2
 245 234 245 234 229 107 c 2,3,-1
 215 -6 l 1,4,-1
 116 -15 l 1,5,-1
 65 481 l 1,6,-1
 279 514 l 1,7,-1
 259 354 l 1,8,-1
 266 354 l 1,9,10
 346 526 346 526 470 537 c 1,11,-1
 442 324 l 1,12,13
 405 329 405 329 383 329 c 0,0,1
162 -199 m 1,14,15
 150 -209 150 -209 130.5 -209 c 128,-1,16
 111 -209 111 -209 98.5 -187.5 c 128,-1,17
 86 -166 86 -166 86 -127.5 c 128,-1,18
 86 -89 86 -89 102.5 -70 c 128,-1,19
 119 -51 119 -51 166 -51 c 128,-1,20
 213 -51 213 -51 238 -78 c 1,21,22
 244 -111 244 -111 244 -149 c 0,23,24
 244 -264 244 -264 169 -331 c 1,25,-1
 115 -280 l 1,26,27
 155 -247 155 -247 166 -201 c 1,28,-1
 162 -199 l 1,14,15
EndSplineSet
EndChar

StartChar: Rcaron
Encoding: 344 344 281
Width: 702
GlyphClass: 2
Flags: W
LayerCount: 2
Fore
SplineSet
311 254 m 1,0,1
 293 248 293 248 282 248 c 1,2,-1
 255 -4 l 1,3,-1
 155 -14 l 1,4,-1
 98 630 l 1,5,6
 151 647 151 647 238.5 661 c 128,-1,7
 326 675 326 675 406 675 c 0,8,9
 534 675 534 675 611 627 c 1,10,11
 629 573 629 573 629 528 c 0,12,13
 629 402 629 402 484 320 c 1,14,-1
 652 1 l 1,15,-1
 582 -38 l 1,16,-1
 311 254 l 1,0,1
436 501 m 0,17,18
 436 572 436 572 373 610 c 1,19,20
 349 610 349 610 319 600 c 1,21,-1
 289 312 l 1,22,23
 358 343 358 343 397 395.5 c 128,-1,24
 436 448 436 448 436 501 c 0,17,18
524 798 m 1,25,-1
 337 706 l 1,26,-1
 221 843 l 1,27,-1
 255 891 l 1,28,-1
 373 826 l 1,29,-1
 449 888 l 1,30,-1
 524 798 l 1,25,-1
EndSplineSet
EndChar

StartChar: rcaron
Encoding: 345 345 282
Width: 470
GlyphClass: 2
Flags: W
LayerCount: 2
Fore
SplineSet
383 329 m 0,0,1
 315 329 315 329 280 281.5 c 128,-1,2
 245 234 245 234 229 107 c 2,3,-1
 215 -6 l 1,4,-1
 116 -15 l 1,5,-1
 65 481 l 1,6,-1
 279 514 l 1,7,-1
 259 354 l 1,8,-1
 266 354 l 1,9,10
 346 526 346 526 470 537 c 1,11,-1
 442 324 l 1,12,13
 405 329 405 329 383 329 c 0,0,1
412 648 m 1,14,-1
 225 556 l 1,15,-1
 109 693 l 1,16,-1
 143 741 l 1,17,-1
 261 676 l 1,18,-1
 337 738 l 1,19,-1
 412 648 l 1,14,-1
EndSplineSet
EndChar

StartChar: Sacute
Encoding: 346 346 283
Width: 431
GlyphClass: 2
Flags: W
LayerCount: 2
Fore
SplineSet
49 440 m 0,0,1
 49 581 49 581 199 700 c 1,2,-1
 382 578 l 1,3,4
 258 500 258 500 258 413 c 0,5,6
 258 376 258 376 283 335 c 128,-1,7
 308 294 308 294 333.5 254 c 128,-1,8
 359 214 359 214 359 179 c 0,9,10
 359 34 359 34 159 -45 c 1,11,-1
 111 20 l 1,12,13
 160 47 160 47 179 72 c 128,-1,14
 198 97 198 97 198 127 c 128,-1,15
 198 157 198 157 174.5 194.5 c 128,-1,16
 151 232 151 232 123.5 263 c 128,-1,17
 96 294 96 294 72.5 342 c 128,-1,18
 49 390 49 390 49 440 c 0,0,1
117 781 m 1,19,-1
 295 903 l 1,20,-1
 355 778 l 1,21,-1
 151 713 l 1,22,-1
 117 781 l 1,19,-1
EndSplineSet
EndChar

StartChar: sacute
Encoding: 347 347 284
Width: 419
GlyphClass: 2
Flags: W
LayerCount: 2
Fore
SplineSet
60 310 m 0,0,1
 60 432 60 432 195 533 c 1,2,-1
 359 428 l 1,3,4
 248 360 248 360 248 285 c 0,5,6
 248 246 248 246 293.5 183 c 128,-1,7
 339 120 339 120 339 85 c 0,8,9
 339 -40 339 -40 159 -108 c 1,10,-1
 115 -49 l 1,11,12
 194 -8 194 -8 194 41 c 0,13,14
 194 87 194 87 127 158 c 0,15,16
 102 185 102 185 81 226.5 c 128,-1,17
 60 268 60 268 60 310 c 0,0,1
111 631 m 1,18,-1
 289 753 l 1,19,-1
 349 628 l 1,20,-1
 145 563 l 1,21,-1
 111 631 l 1,18,-1
EndSplineSet
EndChar

StartChar: Scircumflex
Encoding: 348 348 285
Width: 431
GlyphClass: 2
Flags: W
LayerCount: 2
Fore
SplineSet
49 440 m 0,0,1
 49 581 49 581 199 700 c 1,2,-1
 382 578 l 1,3,4
 258 500 258 500 258 413 c 0,5,6
 258 376 258 376 283 335 c 128,-1,7
 308 294 308 294 333.5 254 c 128,-1,8
 359 214 359 214 359 179 c 0,9,10
 359 34 359 34 159 -45 c 1,11,-1
 111 20 l 1,12,13
 160 47 160 47 179 72 c 128,-1,14
 198 97 198 97 198 127 c 128,-1,15
 198 157 198 157 174.5 194.5 c 128,-1,16
 151 232 151 232 123.5 263 c 128,-1,17
 96 294 96 294 72.5 342 c 128,-1,18
 49 390 49 390 49 440 c 0,0,1
84 764 m 1,19,-1
 200 901 l 1,20,-1
 387 809 l 1,21,-1
 312 719 l 1,22,-1
 236 781 l 1,23,-1
 118 716 l 1,24,-1
 84 764 l 1,19,-1
EndSplineSet
EndChar

StartChar: scircumflex
Encoding: 349 349 286
Width: 419
GlyphClass: 2
Flags: W
LayerCount: 2
Fore
SplineSet
60 310 m 0,0,1
 60 432 60 432 195 533 c 1,2,-1
 359 428 l 1,3,4
 248 360 248 360 248 285 c 0,5,6
 248 246 248 246 293.5 183 c 128,-1,7
 339 120 339 120 339 85 c 0,8,9
 339 -40 339 -40 159 -108 c 1,10,-1
 115 -49 l 1,11,12
 194 -8 194 -8 194 41 c 0,13,14
 194 87 194 87 127 158 c 0,15,16
 102 185 102 185 81 226.5 c 128,-1,17
 60 268 60 268 60 310 c 0,0,1
78 614 m 1,18,-1
 194 751 l 1,19,-1
 381 659 l 1,20,-1
 306 569 l 1,21,-1
 230 631 l 1,22,-1
 112 566 l 1,23,-1
 78 614 l 1,18,-1
EndSplineSet
EndChar

StartChar: Scedilla
Encoding: 350 350 287
Width: 431
GlyphClass: 2
Flags: W
LayerCount: 2
Fore
SplineSet
93 -91 m 1,0,1
 153 -117 153 -117 189.5 -117 c 128,-1,2
 226 -117 226 -117 258 -104 c 1,3,4
 234 -46 234 -46 111 15 c 1,5,6
 198 64 198 64 198 126 c 0,7,8
 198 179 198 179 124 263 c 0,9,10
 96 294 96 294 72.5 342 c 128,-1,11
 49 390 49 390 49 440 c 0,12,13
 49 581 49 581 199 700 c 1,14,-1
 382 578 l 1,15,16
 258 500 258 500 258 413 c 0,17,18
 258 376 258 376 283 335 c 128,-1,19
 308 294 308 294 333.5 254 c 128,-1,20
 359 214 359 214 359 179 c 0,21,22
 359 71 359 71 248 0 c 1,23,24
 319 -51 319 -51 319 -105.5 c 128,-1,25
 319 -160 319 -160 271.5 -184 c 128,-1,26
 224 -208 224 -208 169 -208 c 128,-1,27
 114 -208 114 -208 59 -187 c 1,28,-1
 93 -91 l 1,0,1
EndSplineSet
EndChar

StartChar: scedilla
Encoding: 351 351 288
Width: 419
GlyphClass: 2
Flags: W
LayerCount: 2
Fore
SplineSet
114 -91 m 1,0,1
 174 -117 174 -117 210.5 -117 c 128,-1,2
 247 -117 247 -117 279 -104 c 1,3,4
 251 -47 251 -47 157 -3 c 1,5,6
 194 25 194 25 194 71 c 256,7,8
 194 117 194 117 127 188 c 0,9,10
 102 215 102 215 81 256.5 c 128,-1,11
 60 298 60 298 60 340 c 0,12,13
 60 462 60 462 195 563 c 1,14,-1
 359 458 l 1,15,16
 248 390 248 390 248 315 c 0,17,18
 248 276 248 276 293.5 213 c 128,-1,19
 339 150 339 150 339 115 c 0,20,21
 339 36 339 36 283 -11 c 1,22,23
 340 -56 340 -56 340 -108 c 128,-1,24
 340 -160 340 -160 292.5 -184 c 128,-1,25
 245 -208 245 -208 190.5 -208 c 128,-1,26
 136 -208 136 -208 80 -187 c 1,27,-1
 114 -91 l 1,0,1
EndSplineSet
Substitution2: "'locl' Localized Forms in Latin lookup 1 subtable" uni0219
EndChar

StartChar: Scaron
Encoding: 352 352 289
Width: 431
GlyphClass: 2
Flags: W
LayerCount: 2
Fore
SplineSet
49 410 m 0,0,1
 49 551 49 551 199 670 c 1,2,-1
 382 548 l 1,3,4
 258 470 258 470 258 383 c 0,5,6
 258 346 258 346 283 305 c 128,-1,7
 308 264 308 264 333.5 224 c 128,-1,8
 359 184 359 184 359 149 c 0,9,10
 359 4 359 4 159 -75 c 1,11,-1
 111 -10 l 1,12,13
 160 17 160 17 179 42 c 128,-1,14
 198 67 198 67 198 97 c 128,-1,15
 198 127 198 127 174.5 164.5 c 128,-1,16
 151 202 151 202 123.5 233 c 128,-1,17
 96 264 96 264 72.5 312 c 128,-1,18
 49 360 49 360 49 410 c 0,0,1
387 798 m 1,19,-1
 200 706 l 1,20,-1
 84 843 l 1,21,-1
 118 891 l 1,22,-1
 236 826 l 1,23,-1
 312 888 l 1,24,-1
 387 798 l 1,19,-1
EndSplineSet
EndChar

StartChar: scaron
Encoding: 353 353 290
Width: 419
GlyphClass: 2
Flags: W
LayerCount: 2
Fore
SplineSet
60 310 m 0,0,1
 60 432 60 432 195 533 c 1,2,-1
 359 428 l 1,3,4
 248 360 248 360 248 285 c 0,5,6
 248 246 248 246 293.5 183 c 128,-1,7
 339 120 339 120 339 85 c 0,8,9
 339 -40 339 -40 159 -108 c 1,10,-1
 115 -49 l 1,11,12
 194 -8 194 -8 194 41 c 0,13,14
 194 87 194 87 127 158 c 0,15,16
 102 185 102 185 81 226.5 c 128,-1,17
 60 268 60 268 60 310 c 0,0,1
374 648 m 1,18,-1
 187 556 l 1,19,-1
 71 693 l 1,20,-1
 105 741 l 1,21,-1
 223 676 l 1,22,-1
 299 738 l 1,23,-1
 374 648 l 1,18,-1
EndSplineSet
EndChar

StartChar: uni0162
Encoding: 354 354 291
Width: 551
GlyphClass: 2
Flags: W
LayerCount: 2
Fore
SplineSet
146 -91 m 1,0,1
 206 -117 206 -117 242.5 -117 c 128,-1,2
 279 -117 279 -117 311 -104 c 1,3,4
 282 -45 282 -45 196 -14 c 1,5,-1
 230 44 l 1,6,7
 335 -14 335 -14 360 -60 c 0,8,9
 372 -83 372 -83 372 -108 c 0,10,11
 372 -160 372 -160 324.5 -184 c 128,-1,12
 277 -208 277 -208 222.5 -208 c 128,-1,13
 168 -208 168 -208 112 -187 c 1,14,-1
 146 -91 l 1,0,1
25 651 m 1,15,-1
 31 548 l 1,16,-1
 171 562 l 1,17,-1
 221 -14 l 1,18,-1
 331 -4 l 1,19,-1
 393 584 l 1,20,-1
 533 598 l 1,21,-1
 536 665 l 1,22,-1
 25 651 l 1,15,-1
EndSplineSet
EndChar

StartChar: uni0163
Encoding: 355 355 292
Width: 431
GlyphClass: 2
Flags: W
LayerCount: 2
Fore
SplineSet
101 -91 m 1,0,1
 161 -117 161 -117 197.5 -117 c 128,-1,2
 234 -117 234 -117 266 -104 c 1,3,4
 238 -46 238 -46 151 -15 c 1,5,-1
 185 44 l 1,6,7
 290 -14 290 -14 315 -60 c 0,8,9
 327 -83 327 -83 327 -108 c 0,10,11
 327 -160 327 -160 279.5 -184 c 128,-1,12
 232 -208 232 -208 177 -208 c 128,-1,13
 122 -208 122 -208 67 -187 c 1,14,-1
 101 -91 l 1,0,1
151 -15 m 1,15,-1
 108 389 l 1,16,-1
 16 376 l 1,17,-1
 10 479 l 1,18,-1
 98 483 l 1,19,-1
 83 623 l 1,20,-1
 332 656 l 1,21,-1
 312 494 l 1,22,-1
 411 499 l 1,23,-1
 408 432 l 1,24,-1
 302 417 l 1,25,-1
 250 -6 l 1,26,-1
 151 -15 l 1,15,-1
EndSplineSet
Substitution2: "'locl' Localized Forms in Latin lookup 1 subtable" uni021B
EndChar

StartChar: Tcaron
Encoding: 356 356 293
Width: 551
GlyphClass: 2
Flags: W
LayerCount: 2
Fore
SplineSet
25 651 m 1,0,-1
 536 665 l 1,1,-1
 533 598 l 1,2,-1
 393 584 l 1,3,-1
 331 -4 l 1,4,-1
 221 -14 l 1,5,-1
 171 562 l 1,6,-1
 31 548 l 1,7,-1
 25 651 l 1,0,-1
427 798 m 1,8,-1
 240 706 l 1,9,-1
 124 843 l 1,10,-1
 158 891 l 1,11,-1
 276 826 l 1,12,-1
 352 888 l 1,13,-1
 427 798 l 1,8,-1
EndSplineSet
EndChar

StartChar: tcaron
Encoding: 357 357 294
Width: 431
GlyphClass: 2
Flags: W
LayerCount: 2
Fore
SplineSet
151 -15 m 1,0,-1
 108 389 l 1,1,-1
 16 376 l 1,2,-1
 10 479 l 1,3,-1
 98 483 l 1,4,-1
 83 623 l 1,5,-1
 332 656 l 1,6,-1
 312 494 l 1,7,-1
 411 499 l 1,8,-1
 408 432 l 1,9,-1
 302 417 l 1,10,-1
 250 -6 l 1,11,-1
 151 -15 l 1,0,-1
448 671 m 1,12,13
 436 661 436 661 416.5 661 c 128,-1,14
 397 661 397 661 384.5 682.5 c 128,-1,15
 372 704 372 704 372 742.5 c 128,-1,16
 372 781 372 781 388.5 800 c 128,-1,17
 405 819 405 819 452 819 c 128,-1,18
 499 819 499 819 524 792 c 1,19,20
 530 759 530 759 530 721 c 0,21,22
 530 606 530 606 455 539 c 1,23,-1
 401 590 l 1,24,25
 441 623 441 623 452 669 c 1,26,-1
 448 671 l 1,12,13
EndSplineSet
EndChar

StartChar: Tbar
Encoding: 358 358 295
Width: 551
GlyphClass: 2
Flags: W
LayerCount: 2
Fore
SplineSet
25 651 m 1,0,-1
 536 665 l 1,1,-1
 533 598 l 1,2,-1
 393 584 l 1,3,-1
 331 -4 l 1,4,-1
 221 -14 l 1,5,-1
 171 562 l 1,6,-1
 31 548 l 1,7,-1
 25 651 l 1,0,-1
472 316 m 1,8,-1
 26 289 l 1,9,-1
 38 369 l 1,10,-1
 484 369 l 1,11,-1
 472 316 l 1,8,-1
EndSplineSet
EndChar

StartChar: tbar
Encoding: 359 359 296
Width: 431
GlyphClass: 2
Flags: W
LayerCount: 2
Fore
SplineSet
151 -15 m 1,0,-1
 108 389 l 1,1,-1
 16 376 l 1,2,-1
 10 479 l 1,3,-1
 98 483 l 1,4,-1
 83 623 l 1,5,-1
 332 656 l 1,6,-1
 312 494 l 1,7,-1
 411 499 l 1,8,-1
 408 432 l 1,9,-1
 302 417 l 1,10,-1
 250 -6 l 1,11,-1
 151 -15 l 1,0,-1
396 228 m 1,12,-1
 24 201 l 1,13,-1
 34 281 l 1,14,-1
 406 281 l 1,15,-1
 396 228 l 1,12,-1
EndSplineSet
EndChar

StartChar: Utilde
Encoding: 360 360 297
Width: 696
GlyphClass: 2
Flags: W
LayerCount: 2
Fore
SplineSet
342 -24 m 0,0,1
 253 -24 253 -24 194.5 31 c 128,-1,2
 136 86 136 86 123 207 c 2,3,-1
 75 650 l 1,4,-1
 313 665 l 1,5,6
 272 183 272 183 272 168 c 0,7,8
 272 54 272 54 381 54 c 0,9,10
 431 54 431 54 466 84.5 c 128,-1,11
 501 115 501 115 502 191 c 2,12,-1
 511 655 l 1,13,-1
 611 660 l 1,14,-1
 581 190 l 2,15,16
 568 -24 568 -24 342 -24 c 0,0,1
426 847 m 0,17,18
 449 847 449 847 469 892 c 1,19,-1
 529 876 l 1,20,21
 511 735 511 735 444 735 c 0,22,23
 428 735 428 735 392.5 748 c 128,-1,24
 357 761 357 761 339 761 c 0,25,26
 316 761 316 761 296 716 c 1,27,-1
 236 732 l 1,28,29
 254 873 254 873 321 873 c 0,30,31
 337 873 337 873 372.5 860 c 128,-1,32
 408 847 408 847 426 847 c 0,17,18
EndSplineSet
EndChar

StartChar: utilde
Encoding: 361 361 298
Width: 690
GlyphClass: 2
Flags: W
LayerCount: 2
Fore
SplineSet
404 221 m 128,-1,1
 418 277 418 277 418 318.5 c 128,-1,2
 418 360 418 360 406 480 c 1,3,-1
 620 513 l 1,4,-1
 556 -6 l 1,5,-1
 457 -15 l 1,6,-1
 437 175 l 1,7,-1
 430 175 l 1,8,9
 356 -23 356 -23 194 -23 c 0,10,11
 170 -23 170 -23 154 -15 c 1,12,13
 103 47 103 47 84 195.5 c 128,-1,14
 65 344 65 344 65 492 c 1,15,-1
 265 507 l 1,16,17
 247 332 247 332 247 245 c 128,-1,18
 247 158 247 158 262 58 c 1,19,20
 317 70 317 70 353.5 117.5 c 128,-1,0
 390 165 390 165 404 221 c 128,-1,1
392 697 m 0,21,22
 415 697 415 697 435 742 c 1,23,-1
 495 726 l 1,24,25
 477 585 477 585 410 585 c 0,26,27
 394 585 394 585 358.5 598 c 128,-1,28
 323 611 323 611 305 611 c 0,29,30
 282 611 282 611 262 566 c 1,31,-1
 202 582 l 1,32,33
 220 723 220 723 287 723 c 0,34,35
 303 723 303 723 338.5 710 c 128,-1,36
 374 697 374 697 392 697 c 0,21,22
EndSplineSet
EndChar

StartChar: Umacron
Encoding: 362 362 299
Width: 696
GlyphClass: 2
Flags: W
LayerCount: 2
Fore
SplineSet
342 -24 m 0,0,1
 253 -24 253 -24 194.5 31 c 128,-1,2
 136 86 136 86 123 207 c 2,3,-1
 75 650 l 1,4,-1
 313 665 l 1,5,6
 272 183 272 183 272 168 c 0,7,8
 272 54 272 54 381 54 c 0,9,10
 431 54 431 54 466 84.5 c 128,-1,11
 501 115 501 115 502 191 c 2,12,-1
 511 655 l 1,13,-1
 611 660 l 1,14,-1
 581 190 l 2,15,16
 568 -24 568 -24 342 -24 c 0,0,1
512 761 m 1,17,-1
 251 734 l 1,18,-1
 258 853 l 1,19,-1
 519 853 l 1,20,-1
 512 761 l 1,17,-1
EndSplineSet
EndChar

StartChar: umacron
Encoding: 363 363 300
Width: 690
GlyphClass: 2
Flags: W
LayerCount: 2
Fore
SplineSet
404 221 m 128,-1,1
 418 277 418 277 418 318.5 c 128,-1,2
 418 360 418 360 406 480 c 1,3,-1
 620 513 l 1,4,-1
 556 -6 l 1,5,-1
 457 -15 l 1,6,-1
 437 175 l 1,7,-1
 430 175 l 1,8,9
 356 -23 356 -23 194 -23 c 0,10,11
 170 -23 170 -23 154 -15 c 1,12,13
 103 47 103 47 84 195.5 c 128,-1,14
 65 344 65 344 65 492 c 1,15,-1
 265 507 l 1,16,17
 247 332 247 332 247 245 c 128,-1,18
 247 158 247 158 262 58 c 1,19,20
 317 70 317 70 353.5 117.5 c 128,-1,0
 390 165 390 165 404 221 c 128,-1,1
472 611 m 1,21,-1
 211 584 l 1,22,-1
 218 703 l 1,23,-1
 479 703 l 1,24,-1
 472 611 l 1,21,-1
EndSplineSet
EndChar

